G04 MADE WITH FRITZING*
G04 WWW.FRITZING.ORG*
G04 DOUBLE SIDED*
G04 HOLES PLATED*
G04 CONTOUR ON CENTER OF CONTOUR VECTOR*
%ASAXBY*%
%FSLAX23Y23*%
%MOIN*%
%OFA0B0*%
%SFA1.0B1.0*%
%ADD10C,0.075000*%
%ADD11C,0.039370*%
%ADD12C,0.064000*%
%ADD13C,0.065000*%
%ADD14C,0.074000*%
%ADD15C,0.070925*%
%ADD16C,0.070866*%
%ADD17C,0.062992*%
%ADD18R,0.062992X0.062992*%
%ADD19C,0.016000*%
%ADD20C,0.020000*%
%ADD21R,0.001000X0.001000*%
%LNCOPPER0*%
G90*
G70*
G54D10*
X4924Y1024D03*
X4844Y661D03*
X2956Y974D03*
X4239Y657D03*
X3131Y592D03*
X3955Y589D03*
X1514Y554D03*
X2279Y561D03*
X1163Y334D03*
X5034Y547D03*
X1752Y381D03*
X831Y390D03*
X3154Y260D03*
X4295Y240D03*
X1932Y336D03*
X4749Y190D03*
X3635Y238D03*
G54D11*
X2856Y1065D03*
X2712Y633D03*
X1816Y857D03*
X1016Y841D03*
X3240Y441D03*
X824Y969D03*
X1832Y265D03*
X1336Y441D03*
X1112Y537D03*
X2584Y665D03*
X2584Y537D03*
X4680Y1033D03*
X2600Y457D03*
X2584Y201D03*
X1736Y151D03*
X3752Y489D03*
X3752Y617D03*
X4376Y409D03*
X2952Y233D03*
X2984Y393D03*
X3576Y665D03*
X3752Y809D03*
X4760Y393D03*
X1665Y53D03*
X936Y169D03*
X2542Y250D03*
G54D12*
X5112Y696D03*
X5041Y767D03*
X4970Y837D03*
X4899Y908D03*
X4829Y979D03*
X4758Y1049D03*
G54D13*
X306Y629D03*
X306Y729D03*
X612Y937D03*
X541Y867D03*
G54D14*
X2841Y967D03*
X2741Y967D03*
X2841Y867D03*
X2741Y867D03*
X2841Y767D03*
X2741Y767D03*
X2841Y967D03*
X2741Y967D03*
X2841Y867D03*
X2741Y867D03*
X2841Y767D03*
X2741Y767D03*
X2841Y967D03*
X2741Y967D03*
X2841Y867D03*
X2741Y867D03*
X2841Y767D03*
X2741Y767D03*
G54D15*
X941Y867D03*
G54D16*
X804Y730D03*
G54D10*
X3855Y827D03*
X4255Y827D03*
X1062Y134D03*
X1462Y134D03*
X5178Y777D03*
X5178Y377D03*
X4741Y767D03*
X4341Y767D03*
G54D17*
X141Y367D03*
X141Y465D03*
X1541Y367D03*
X1541Y465D03*
X4641Y567D03*
X4641Y665D03*
X3041Y567D03*
X3041Y665D03*
X3841Y567D03*
X3841Y665D03*
X441Y367D03*
X441Y465D03*
X4941Y567D03*
X4941Y665D03*
X4141Y567D03*
X4141Y665D03*
X1841Y367D03*
X1841Y465D03*
X3341Y567D03*
X3341Y665D03*
X741Y367D03*
X741Y465D03*
X2141Y367D03*
X2141Y465D03*
X4641Y267D03*
X4641Y168D03*
X3841Y267D03*
X3841Y168D03*
X3041Y267D03*
X3041Y168D03*
X1041Y367D03*
X1041Y465D03*
X4941Y267D03*
X4941Y168D03*
X4141Y267D03*
X4141Y168D03*
X2441Y367D03*
X2441Y465D03*
X3341Y267D03*
X3341Y168D03*
G54D10*
X1141Y667D03*
X1141Y967D03*
X1241Y667D03*
X1241Y967D03*
X1341Y667D03*
X1341Y967D03*
X1441Y667D03*
X1441Y967D03*
X1541Y667D03*
X1541Y967D03*
X1641Y667D03*
X1641Y967D03*
X1741Y667D03*
X1741Y967D03*
X1841Y667D03*
X1841Y967D03*
X1941Y667D03*
X1941Y967D03*
X2041Y667D03*
X2041Y967D03*
X2141Y667D03*
X2141Y967D03*
X2241Y667D03*
X2241Y967D03*
X2341Y667D03*
X2341Y967D03*
X2441Y667D03*
X2441Y967D03*
X2026Y187D03*
X1626Y187D03*
G54D18*
X141Y367D03*
X1541Y367D03*
X4641Y567D03*
X3041Y567D03*
X3841Y567D03*
X441Y367D03*
X4941Y567D03*
X4141Y567D03*
X1841Y367D03*
X3341Y567D03*
X741Y367D03*
X2141Y367D03*
X4641Y267D03*
X3841Y267D03*
X3041Y267D03*
X1041Y367D03*
X4941Y267D03*
X4141Y267D03*
X2441Y367D03*
X3341Y267D03*
G54D19*
X2733Y891D02*
X2728Y905D01*
D02*
X2728Y905D02*
X2296Y905D01*
X2296Y905D02*
X2256Y949D01*
D02*
X2823Y985D02*
X2776Y1033D01*
D02*
X2776Y1033D02*
X2184Y1033D01*
X2184Y1033D02*
X2153Y986D01*
D02*
X762Y465D02*
X1020Y465D01*
D02*
X462Y465D02*
X720Y465D01*
D02*
X1066Y156D02*
X1096Y313D01*
X1096Y313D02*
X1096Y425D01*
X1096Y425D02*
X1058Y452D01*
D02*
X4874Y910D02*
X2869Y1064D01*
D02*
X2862Y853D02*
X2904Y825D01*
D02*
X2904Y825D02*
X2904Y729D01*
X2904Y729D02*
X2872Y697D01*
X2872Y697D02*
X2680Y697D01*
X2680Y697D02*
X2680Y857D01*
X2680Y857D02*
X2264Y865D01*
X2264Y865D02*
X2080Y921D01*
X2080Y921D02*
X2056Y949D01*
D02*
X4656Y680D02*
X4725Y750D01*
D02*
X4120Y665D02*
X3862Y665D01*
D02*
X2028Y210D02*
X2040Y377D01*
X2040Y377D02*
X2125Y451D01*
D02*
X1860Y456D02*
X2040Y377D01*
D02*
X1927Y685D02*
X1896Y729D01*
X1896Y729D02*
X826Y730D01*
D02*
X2712Y646D02*
X2712Y649D01*
X2712Y649D02*
X2648Y649D01*
X2648Y649D02*
X2648Y809D01*
X2648Y809D02*
X1829Y856D01*
D02*
X631Y933D02*
X920Y871D01*
D02*
X2024Y683D02*
X1912Y793D01*
X1912Y793D02*
X1029Y840D01*
D02*
X1469Y156D02*
X1534Y346D01*
D02*
X2228Y648D02*
X2184Y585D01*
X2184Y585D02*
X1768Y585D01*
X1768Y585D02*
X1556Y381D01*
D02*
X4620Y566D02*
X4200Y553D01*
X4200Y553D02*
X4200Y505D01*
D02*
X4033Y503D02*
X3864Y537D01*
D02*
X4200Y505D02*
X4033Y503D01*
D02*
X3864Y537D02*
X3854Y550D01*
D02*
X2420Y369D02*
X2200Y393D01*
D02*
X2200Y393D02*
X2200Y521D01*
X2200Y521D02*
X1800Y521D01*
X1800Y521D02*
X1712Y441D01*
X1712Y441D02*
X1560Y233D01*
X1560Y233D02*
X1560Y73D01*
D02*
X1364Y90D02*
X1438Y644D01*
D02*
X3325Y281D02*
X3272Y329D01*
D02*
X3272Y329D02*
X2462Y366D01*
D02*
X4120Y272D02*
X3896Y329D01*
D02*
X3896Y329D02*
X3368Y281D01*
X3368Y281D02*
X3360Y277D01*
D02*
X4364Y771D02*
X4702Y837D01*
D02*
X4702Y837D02*
X4808Y825D01*
D02*
X4808Y825D02*
X4808Y729D01*
X4808Y729D02*
X4696Y665D01*
X4696Y665D02*
X4696Y505D01*
X4696Y505D02*
X4232Y505D01*
X4232Y505D02*
X4232Y473D01*
X4232Y473D02*
X4152Y473D01*
X4152Y473D02*
X4142Y288D01*
D02*
X3027Y283D02*
X3016Y297D01*
D02*
X3016Y297D02*
X2440Y297D01*
X2440Y297D02*
X2162Y362D01*
D02*
X4242Y808D02*
X4232Y793D01*
X4232Y793D02*
X3528Y737D01*
X3528Y737D02*
X3400Y489D01*
X3400Y489D02*
X3253Y445D01*
D02*
X3859Y255D02*
X4104Y105D01*
D02*
X4104Y105D02*
X4200Y105D01*
X4200Y105D02*
X4200Y313D01*
X4200Y313D02*
X4696Y329D01*
X4696Y329D02*
X4696Y265D01*
X4696Y265D02*
X4920Y266D01*
D02*
X462Y366D02*
X680Y361D01*
X680Y361D02*
X680Y297D01*
X680Y297D02*
X1016Y297D01*
X1016Y297D02*
X1000Y185D01*
X1000Y185D02*
X1000Y73D01*
X1000Y73D02*
X1352Y41D01*
D02*
X1592Y41D02*
X1828Y350D01*
D02*
X323Y739D02*
X524Y857D01*
D02*
X1726Y949D02*
X1688Y905D01*
X1688Y905D02*
X1080Y905D01*
X1080Y905D02*
X837Y966D01*
D02*
X2145Y121D02*
X1849Y131D01*
D02*
X1849Y131D02*
X1834Y252D01*
D02*
X1324Y446D02*
X1124Y532D01*
D02*
X2584Y652D02*
X2584Y550D01*
D02*
X4667Y1034D02*
X2808Y1113D01*
X2808Y1113D02*
X2808Y1065D01*
X2808Y1065D02*
X2152Y1065D01*
X2152Y1065D02*
X1800Y1025D01*
X1800Y1025D02*
X1757Y983D01*
D02*
X2145Y689D02*
X2152Y729D01*
X2152Y729D02*
X2505Y733D01*
D02*
X2505Y733D02*
X2504Y457D01*
X2504Y457D02*
X2587Y457D01*
D02*
X2571Y198D02*
X2155Y85D01*
D02*
X2155Y85D02*
X1801Y96D01*
D02*
X1801Y96D02*
X1746Y143D01*
D02*
X3329Y549D02*
X3320Y537D01*
X3320Y537D02*
X2613Y459D01*
D02*
X3752Y502D02*
X3752Y604D01*
D02*
X4922Y557D02*
X4728Y457D01*
X4728Y457D02*
X4389Y411D01*
D02*
X3062Y665D02*
X3320Y665D01*
D02*
X3320Y170D02*
X2984Y201D01*
D02*
X2984Y201D02*
X2962Y224D01*
D02*
X2997Y393D02*
X3576Y393D01*
X3576Y393D02*
X3576Y652D01*
D02*
X3022Y179D02*
X2984Y201D01*
D02*
X5176Y754D02*
X5168Y665D01*
X5168Y665D02*
X5144Y633D01*
X5144Y633D02*
X5064Y633D01*
X5064Y633D02*
X4840Y873D01*
X4840Y873D02*
X4296Y873D01*
X4296Y873D02*
X4296Y889D01*
X4296Y889D02*
X3800Y889D01*
X3800Y889D02*
X3759Y821D01*
D02*
X4773Y390D02*
X5000Y329D01*
X5000Y329D02*
X5000Y105D01*
X5000Y105D02*
X4232Y73D01*
D02*
X2224Y30D02*
X1776Y37D01*
D02*
X1776Y37D02*
X1678Y51D01*
D02*
X4232Y73D02*
X2224Y30D01*
D02*
X923Y172D02*
X376Y313D01*
X376Y313D02*
X368Y526D01*
D02*
X368Y526D02*
X1064Y585D01*
X1064Y585D02*
X1368Y585D01*
X1368Y585D02*
X1348Y645D01*
D02*
X2529Y246D02*
X2145Y121D01*
G36*
X2922Y1097D02*
X2922Y1077D01*
X2948Y1077D01*
X2948Y1075D01*
X2974Y1075D01*
X2974Y1073D01*
X3000Y1073D01*
X3000Y1071D01*
X3026Y1071D01*
X3026Y1069D01*
X3052Y1069D01*
X3052Y1067D01*
X3078Y1067D01*
X3078Y1065D01*
X3104Y1065D01*
X3104Y1063D01*
X4686Y1063D01*
X4686Y1061D01*
X4692Y1061D01*
X4692Y1059D01*
X4696Y1059D01*
X4696Y1057D01*
X4718Y1057D01*
X4718Y1065D01*
X4720Y1065D01*
X4720Y1069D01*
X4722Y1069D01*
X4722Y1073D01*
X4724Y1073D01*
X4724Y1075D01*
X4726Y1075D01*
X4726Y1077D01*
X4728Y1077D01*
X4728Y1097D01*
X2922Y1097D01*
G37*
D02*
G36*
X4788Y1097D02*
X4788Y1077D01*
X4790Y1077D01*
X4790Y1075D01*
X4792Y1075D01*
X4792Y1073D01*
X4794Y1073D01*
X4794Y1069D01*
X4796Y1069D01*
X4796Y1065D01*
X4798Y1065D01*
X4798Y1059D01*
X4800Y1059D01*
X4800Y1041D01*
X4798Y1041D01*
X4798Y1033D01*
X4796Y1033D01*
X4796Y1029D01*
X4794Y1029D01*
X4794Y1027D01*
X4792Y1027D01*
X4792Y1023D01*
X4790Y1023D01*
X4790Y1021D01*
X4836Y1021D01*
X4836Y1019D01*
X4844Y1019D01*
X4844Y1017D01*
X4848Y1017D01*
X4848Y1015D01*
X4852Y1015D01*
X4852Y1013D01*
X4854Y1013D01*
X4854Y1011D01*
X4856Y1011D01*
X4856Y1009D01*
X4858Y1009D01*
X4858Y1007D01*
X4860Y1007D01*
X4860Y1005D01*
X4862Y1005D01*
X4862Y1003D01*
X4864Y1003D01*
X4864Y999D01*
X4866Y999D01*
X4866Y995D01*
X4868Y995D01*
X4868Y989D01*
X4870Y989D01*
X4870Y967D01*
X4868Y967D01*
X4868Y961D01*
X4866Y961D01*
X4866Y957D01*
X4864Y957D01*
X4864Y955D01*
X4862Y955D01*
X4862Y951D01*
X4860Y951D01*
X4860Y949D01*
X4912Y949D01*
X4912Y947D01*
X4916Y947D01*
X4916Y945D01*
X4920Y945D01*
X4920Y943D01*
X4924Y943D01*
X4924Y941D01*
X4926Y941D01*
X4926Y939D01*
X4928Y939D01*
X4928Y937D01*
X4930Y937D01*
X4930Y935D01*
X4932Y935D01*
X4932Y933D01*
X4934Y933D01*
X4934Y931D01*
X4936Y931D01*
X4936Y927D01*
X4938Y927D01*
X4938Y921D01*
X4940Y921D01*
X4940Y913D01*
X4942Y913D01*
X4942Y903D01*
X4940Y903D01*
X4940Y895D01*
X4938Y895D01*
X4938Y889D01*
X4936Y889D01*
X4936Y885D01*
X4934Y885D01*
X4934Y883D01*
X4932Y883D01*
X4932Y881D01*
X4930Y881D01*
X4930Y879D01*
X4980Y879D01*
X4980Y877D01*
X4986Y877D01*
X4986Y875D01*
X4990Y875D01*
X4990Y873D01*
X4994Y873D01*
X4994Y871D01*
X4996Y871D01*
X4996Y869D01*
X4998Y869D01*
X4998Y867D01*
X5000Y867D01*
X5000Y865D01*
X5002Y865D01*
X5002Y863D01*
X5004Y863D01*
X5004Y861D01*
X5006Y861D01*
X5006Y857D01*
X5008Y857D01*
X5008Y853D01*
X5010Y853D01*
X5010Y847D01*
X5012Y847D01*
X5012Y829D01*
X5010Y829D01*
X5010Y825D01*
X5180Y825D01*
X5180Y823D01*
X5208Y823D01*
X5208Y1097D01*
X4788Y1097D01*
G37*
D02*
G36*
X3130Y1063D02*
X3130Y1061D01*
X3156Y1061D01*
X3156Y1059D01*
X3182Y1059D01*
X3182Y1057D01*
X3208Y1057D01*
X3208Y1055D01*
X3234Y1055D01*
X3234Y1053D01*
X3260Y1053D01*
X3260Y1051D01*
X3286Y1051D01*
X3286Y1049D01*
X3312Y1049D01*
X3312Y1047D01*
X3338Y1047D01*
X3338Y1045D01*
X3364Y1045D01*
X3364Y1043D01*
X3390Y1043D01*
X3390Y1041D01*
X3416Y1041D01*
X3416Y1039D01*
X3442Y1039D01*
X3442Y1037D01*
X3468Y1037D01*
X3468Y1035D01*
X3494Y1035D01*
X3494Y1033D01*
X3520Y1033D01*
X3520Y1031D01*
X3546Y1031D01*
X3546Y1029D01*
X3572Y1029D01*
X3572Y1027D01*
X3598Y1027D01*
X3598Y1025D01*
X3624Y1025D01*
X3624Y1023D01*
X3650Y1023D01*
X3650Y1021D01*
X3676Y1021D01*
X3676Y1019D01*
X3702Y1019D01*
X3702Y1017D01*
X3728Y1017D01*
X3728Y1015D01*
X3754Y1015D01*
X3754Y1013D01*
X3780Y1013D01*
X3780Y1011D01*
X3806Y1011D01*
X3806Y1009D01*
X3832Y1009D01*
X3832Y1007D01*
X3858Y1007D01*
X3858Y1005D01*
X3884Y1005D01*
X3884Y1003D01*
X4674Y1003D01*
X4674Y1005D01*
X4668Y1005D01*
X4668Y1007D01*
X4664Y1007D01*
X4664Y1009D01*
X4662Y1009D01*
X4662Y1011D01*
X4660Y1011D01*
X4660Y1013D01*
X4658Y1013D01*
X4658Y1015D01*
X4656Y1015D01*
X4656Y1017D01*
X4654Y1017D01*
X4654Y1021D01*
X4652Y1021D01*
X4652Y1027D01*
X4650Y1027D01*
X4650Y1039D01*
X4652Y1039D01*
X4652Y1045D01*
X4654Y1045D01*
X4654Y1049D01*
X4656Y1049D01*
X4656Y1051D01*
X4658Y1051D01*
X4658Y1053D01*
X4660Y1053D01*
X4660Y1055D01*
X4662Y1055D01*
X4662Y1057D01*
X4664Y1057D01*
X4664Y1059D01*
X4668Y1059D01*
X4668Y1061D01*
X4674Y1061D01*
X4674Y1063D01*
X3130Y1063D01*
G37*
D02*
G36*
X4706Y1021D02*
X4706Y1017D01*
X4704Y1017D01*
X4704Y1015D01*
X4702Y1015D01*
X4702Y1013D01*
X4700Y1013D01*
X4700Y1011D01*
X4698Y1011D01*
X4698Y1009D01*
X4696Y1009D01*
X4696Y1007D01*
X4752Y1007D01*
X4752Y1009D01*
X4744Y1009D01*
X4744Y1011D01*
X4740Y1011D01*
X4740Y1013D01*
X4736Y1013D01*
X4736Y1015D01*
X4732Y1015D01*
X4732Y1017D01*
X4730Y1017D01*
X4730Y1019D01*
X4728Y1019D01*
X4728Y1021D01*
X4706Y1021D01*
G37*
D02*
G36*
X4788Y1021D02*
X4788Y1019D01*
X4786Y1019D01*
X4786Y1017D01*
X4784Y1017D01*
X4784Y1015D01*
X4780Y1015D01*
X4780Y1013D01*
X4776Y1013D01*
X4776Y1011D01*
X4772Y1011D01*
X4772Y1009D01*
X4764Y1009D01*
X4764Y1007D01*
X4798Y1007D01*
X4798Y1009D01*
X4800Y1009D01*
X4800Y1011D01*
X4804Y1011D01*
X4804Y1013D01*
X4806Y1013D01*
X4806Y1015D01*
X4810Y1015D01*
X4810Y1017D01*
X4814Y1017D01*
X4814Y1019D01*
X4822Y1019D01*
X4822Y1021D01*
X4788Y1021D01*
G37*
D02*
G36*
X4692Y1007D02*
X4692Y1005D01*
X4796Y1005D01*
X4796Y1007D01*
X4692Y1007D01*
G37*
D02*
G36*
X4692Y1007D02*
X4692Y1005D01*
X4796Y1005D01*
X4796Y1007D01*
X4692Y1007D01*
G37*
D02*
G36*
X4686Y1005D02*
X4686Y1003D01*
X4796Y1003D01*
X4796Y1005D01*
X4686Y1005D01*
G37*
D02*
G36*
X3910Y1003D02*
X3910Y1001D01*
X4794Y1001D01*
X4794Y1003D01*
X3910Y1003D01*
G37*
D02*
G36*
X3910Y1003D02*
X3910Y1001D01*
X4794Y1001D01*
X4794Y1003D01*
X3910Y1003D01*
G37*
D02*
G36*
X3936Y1001D02*
X3936Y999D01*
X3962Y999D01*
X3962Y997D01*
X3988Y997D01*
X3988Y995D01*
X4014Y995D01*
X4014Y993D01*
X4040Y993D01*
X4040Y991D01*
X4066Y991D01*
X4066Y989D01*
X4092Y989D01*
X4092Y987D01*
X4118Y987D01*
X4118Y985D01*
X4144Y985D01*
X4144Y983D01*
X4170Y983D01*
X4170Y981D01*
X4196Y981D01*
X4196Y979D01*
X4222Y979D01*
X4222Y977D01*
X4248Y977D01*
X4248Y975D01*
X4274Y975D01*
X4274Y973D01*
X4300Y973D01*
X4300Y971D01*
X4326Y971D01*
X4326Y969D01*
X4352Y969D01*
X4352Y967D01*
X4380Y967D01*
X4380Y965D01*
X4406Y965D01*
X4406Y963D01*
X4432Y963D01*
X4432Y961D01*
X4458Y961D01*
X4458Y959D01*
X4484Y959D01*
X4484Y957D01*
X4510Y957D01*
X4510Y955D01*
X4536Y955D01*
X4536Y953D01*
X4562Y953D01*
X4562Y951D01*
X4588Y951D01*
X4588Y949D01*
X4614Y949D01*
X4614Y947D01*
X4640Y947D01*
X4640Y945D01*
X4666Y945D01*
X4666Y943D01*
X4692Y943D01*
X4692Y941D01*
X4718Y941D01*
X4718Y939D01*
X4744Y939D01*
X4744Y937D01*
X4770Y937D01*
X4770Y935D01*
X4794Y935D01*
X4794Y957D01*
X4792Y957D01*
X4792Y961D01*
X4790Y961D01*
X4790Y965D01*
X4788Y965D01*
X4788Y977D01*
X4786Y977D01*
X4786Y981D01*
X4788Y981D01*
X4788Y991D01*
X4790Y991D01*
X4790Y997D01*
X4792Y997D01*
X4792Y1001D01*
X3936Y1001D01*
G37*
D02*
G36*
X4858Y949D02*
X4858Y943D01*
X4878Y943D01*
X4878Y945D01*
X4882Y945D01*
X4882Y947D01*
X4888Y947D01*
X4888Y949D01*
X4858Y949D01*
G37*
D02*
G36*
X4928Y879D02*
X4928Y877D01*
X4926Y877D01*
X4926Y875D01*
X4924Y875D01*
X4924Y873D01*
X4920Y873D01*
X4920Y871D01*
X4918Y871D01*
X4918Y869D01*
X4912Y869D01*
X4912Y867D01*
X4900Y867D01*
X4900Y865D01*
X4886Y865D01*
X4886Y849D01*
X4888Y849D01*
X4888Y847D01*
X4890Y847D01*
X4890Y845D01*
X4892Y845D01*
X4892Y843D01*
X4894Y843D01*
X4894Y841D01*
X4896Y841D01*
X4896Y839D01*
X4898Y839D01*
X4898Y837D01*
X4900Y837D01*
X4900Y835D01*
X4902Y835D01*
X4902Y831D01*
X4904Y831D01*
X4904Y829D01*
X4906Y829D01*
X4906Y827D01*
X4908Y827D01*
X4908Y825D01*
X4910Y825D01*
X4910Y823D01*
X4912Y823D01*
X4912Y821D01*
X4932Y821D01*
X4932Y823D01*
X4930Y823D01*
X4930Y829D01*
X4928Y829D01*
X4928Y845D01*
X4930Y845D01*
X4930Y853D01*
X4932Y853D01*
X4932Y857D01*
X4934Y857D01*
X4934Y859D01*
X4936Y859D01*
X4936Y863D01*
X4938Y863D01*
X4938Y865D01*
X4940Y865D01*
X4940Y867D01*
X4942Y867D01*
X4942Y869D01*
X4944Y869D01*
X4944Y871D01*
X4946Y871D01*
X4946Y873D01*
X4950Y873D01*
X4950Y875D01*
X4954Y875D01*
X4954Y877D01*
X4960Y877D01*
X4960Y879D01*
X4928Y879D01*
G37*
D02*
G36*
X5010Y825D02*
X5010Y821D01*
X5008Y821D01*
X5008Y817D01*
X5006Y817D01*
X5006Y813D01*
X5004Y813D01*
X5004Y811D01*
X5002Y811D01*
X5002Y809D01*
X5046Y809D01*
X5046Y807D01*
X5054Y807D01*
X5054Y805D01*
X5060Y805D01*
X5060Y803D01*
X5064Y803D01*
X5064Y801D01*
X5066Y801D01*
X5066Y799D01*
X5068Y799D01*
X5068Y797D01*
X5070Y797D01*
X5070Y795D01*
X5072Y795D01*
X5072Y793D01*
X5074Y793D01*
X5074Y791D01*
X5076Y791D01*
X5076Y787D01*
X5078Y787D01*
X5078Y783D01*
X5080Y783D01*
X5080Y779D01*
X5082Y779D01*
X5082Y755D01*
X5080Y755D01*
X5080Y749D01*
X5078Y749D01*
X5078Y745D01*
X5076Y745D01*
X5076Y743D01*
X5074Y743D01*
X5074Y739D01*
X5072Y739D01*
X5072Y737D01*
X5122Y737D01*
X5122Y735D01*
X5128Y735D01*
X5128Y733D01*
X5132Y733D01*
X5132Y731D01*
X5154Y731D01*
X5154Y737D01*
X5150Y737D01*
X5150Y739D01*
X5148Y739D01*
X5148Y741D01*
X5146Y741D01*
X5146Y743D01*
X5144Y743D01*
X5144Y745D01*
X5142Y745D01*
X5142Y747D01*
X5140Y747D01*
X5140Y749D01*
X5138Y749D01*
X5138Y753D01*
X5136Y753D01*
X5136Y757D01*
X5134Y757D01*
X5134Y763D01*
X5132Y763D01*
X5132Y771D01*
X5130Y771D01*
X5130Y783D01*
X5132Y783D01*
X5132Y791D01*
X5134Y791D01*
X5134Y797D01*
X5136Y797D01*
X5136Y801D01*
X5138Y801D01*
X5138Y803D01*
X5140Y803D01*
X5140Y807D01*
X5142Y807D01*
X5142Y809D01*
X5144Y809D01*
X5144Y811D01*
X5146Y811D01*
X5146Y813D01*
X5150Y813D01*
X5150Y815D01*
X5152Y815D01*
X5152Y817D01*
X5156Y817D01*
X5156Y819D01*
X5158Y819D01*
X5158Y821D01*
X5164Y821D01*
X5164Y823D01*
X5176Y823D01*
X5176Y825D01*
X5010Y825D01*
G37*
D02*
G36*
X5000Y809D02*
X5000Y807D01*
X4998Y807D01*
X4998Y805D01*
X4996Y805D01*
X4996Y803D01*
X4992Y803D01*
X4992Y801D01*
X4990Y801D01*
X4990Y799D01*
X4984Y799D01*
X4984Y797D01*
X4978Y797D01*
X4978Y795D01*
X4950Y795D01*
X4950Y781D01*
X4952Y781D01*
X4952Y779D01*
X4954Y779D01*
X4954Y777D01*
X4956Y777D01*
X4956Y775D01*
X4958Y775D01*
X4958Y771D01*
X4960Y771D01*
X4960Y769D01*
X4962Y769D01*
X4962Y767D01*
X4964Y767D01*
X4964Y765D01*
X4966Y765D01*
X4966Y763D01*
X4968Y763D01*
X4968Y761D01*
X4970Y761D01*
X4970Y759D01*
X4972Y759D01*
X4972Y757D01*
X4974Y757D01*
X4974Y755D01*
X4976Y755D01*
X4976Y753D01*
X4978Y753D01*
X4978Y751D01*
X4980Y751D01*
X4980Y749D01*
X4982Y749D01*
X4982Y747D01*
X4984Y747D01*
X4984Y745D01*
X4986Y745D01*
X4986Y741D01*
X4988Y741D01*
X4988Y739D01*
X4990Y739D01*
X4990Y737D01*
X4992Y737D01*
X4992Y735D01*
X4994Y735D01*
X4994Y733D01*
X4996Y733D01*
X4996Y731D01*
X4998Y731D01*
X4998Y729D01*
X5000Y729D01*
X5000Y727D01*
X5002Y727D01*
X5002Y725D01*
X5030Y725D01*
X5030Y727D01*
X5024Y727D01*
X5024Y729D01*
X5020Y729D01*
X5020Y731D01*
X5018Y731D01*
X5018Y733D01*
X5014Y733D01*
X5014Y735D01*
X5012Y735D01*
X5012Y737D01*
X5010Y737D01*
X5010Y739D01*
X5008Y739D01*
X5008Y741D01*
X5006Y741D01*
X5006Y745D01*
X5004Y745D01*
X5004Y749D01*
X5002Y749D01*
X5002Y755D01*
X5000Y755D01*
X5000Y765D01*
X4998Y765D01*
X4998Y767D01*
X5000Y767D01*
X5000Y779D01*
X5002Y779D01*
X5002Y785D01*
X5004Y785D01*
X5004Y787D01*
X5006Y787D01*
X5006Y791D01*
X5008Y791D01*
X5008Y793D01*
X5010Y793D01*
X5010Y795D01*
X5012Y795D01*
X5012Y797D01*
X5014Y797D01*
X5014Y799D01*
X5016Y799D01*
X5016Y801D01*
X5018Y801D01*
X5018Y803D01*
X5022Y803D01*
X5022Y805D01*
X5028Y805D01*
X5028Y807D01*
X5036Y807D01*
X5036Y809D01*
X5000Y809D01*
G37*
D02*
G36*
X5070Y737D02*
X5070Y735D01*
X5068Y735D01*
X5068Y733D01*
X5064Y733D01*
X5064Y731D01*
X5062Y731D01*
X5062Y729D01*
X5058Y729D01*
X5058Y727D01*
X5052Y727D01*
X5052Y725D01*
X5082Y725D01*
X5082Y727D01*
X5084Y727D01*
X5084Y729D01*
X5088Y729D01*
X5088Y731D01*
X5090Y731D01*
X5090Y733D01*
X5094Y733D01*
X5094Y735D01*
X5100Y735D01*
X5100Y737D01*
X5070Y737D01*
G37*
D02*
G36*
X5004Y725D02*
X5004Y723D01*
X5080Y723D01*
X5080Y725D01*
X5004Y725D01*
G37*
D02*
G36*
X5004Y725D02*
X5004Y723D01*
X5080Y723D01*
X5080Y725D01*
X5004Y725D01*
G37*
D02*
G36*
X5006Y723D02*
X5006Y721D01*
X5008Y721D01*
X5008Y719D01*
X5010Y719D01*
X5010Y717D01*
X5012Y717D01*
X5012Y715D01*
X5014Y715D01*
X5014Y711D01*
X5016Y711D01*
X5016Y709D01*
X5018Y709D01*
X5018Y707D01*
X5020Y707D01*
X5020Y705D01*
X5022Y705D01*
X5022Y703D01*
X5024Y703D01*
X5024Y701D01*
X5026Y701D01*
X5026Y699D01*
X5028Y699D01*
X5028Y697D01*
X5030Y697D01*
X5030Y695D01*
X5032Y695D01*
X5032Y693D01*
X5034Y693D01*
X5034Y691D01*
X5036Y691D01*
X5036Y689D01*
X5038Y689D01*
X5038Y687D01*
X5040Y687D01*
X5040Y685D01*
X5042Y685D01*
X5042Y681D01*
X5044Y681D01*
X5044Y679D01*
X5046Y679D01*
X5046Y677D01*
X5048Y677D01*
X5048Y675D01*
X5050Y675D01*
X5050Y673D01*
X5052Y673D01*
X5052Y671D01*
X5054Y671D01*
X5054Y669D01*
X5056Y669D01*
X5056Y667D01*
X5058Y667D01*
X5058Y665D01*
X5078Y665D01*
X5078Y673D01*
X5076Y673D01*
X5076Y675D01*
X5074Y675D01*
X5074Y679D01*
X5072Y679D01*
X5072Y685D01*
X5070Y685D01*
X5070Y705D01*
X5072Y705D01*
X5072Y713D01*
X5074Y713D01*
X5074Y715D01*
X5076Y715D01*
X5076Y719D01*
X5078Y719D01*
X5078Y723D01*
X5006Y723D01*
G37*
D02*
G36*
X2478Y1015D02*
X2478Y995D01*
X2480Y995D01*
X2480Y991D01*
X2482Y991D01*
X2482Y987D01*
X2484Y987D01*
X2484Y983D01*
X2486Y983D01*
X2486Y977D01*
X2488Y977D01*
X2488Y955D01*
X2486Y955D01*
X2486Y949D01*
X2484Y949D01*
X2484Y945D01*
X2482Y945D01*
X2482Y923D01*
X2702Y923D01*
X2702Y943D01*
X2700Y943D01*
X2700Y945D01*
X2698Y945D01*
X2698Y951D01*
X2696Y951D01*
X2696Y957D01*
X2694Y957D01*
X2694Y977D01*
X2696Y977D01*
X2696Y983D01*
X2698Y983D01*
X2698Y987D01*
X2700Y987D01*
X2700Y991D01*
X2702Y991D01*
X2702Y993D01*
X2704Y993D01*
X2704Y1015D01*
X2478Y1015D01*
G37*
D02*
G36*
X2780Y943D02*
X2780Y939D01*
X2778Y939D01*
X2778Y937D01*
X2776Y937D01*
X2776Y935D01*
X2774Y935D01*
X2774Y933D01*
X2772Y933D01*
X2772Y931D01*
X2770Y931D01*
X2770Y929D01*
X2768Y929D01*
X2768Y927D01*
X2764Y927D01*
X2764Y907D01*
X2766Y907D01*
X2766Y905D01*
X2768Y905D01*
X2768Y903D01*
X2772Y903D01*
X2772Y901D01*
X2774Y901D01*
X2774Y899D01*
X2776Y899D01*
X2776Y897D01*
X2778Y897D01*
X2778Y893D01*
X2780Y893D01*
X2780Y891D01*
X2802Y891D01*
X2802Y893D01*
X2804Y893D01*
X2804Y897D01*
X2806Y897D01*
X2806Y899D01*
X2808Y899D01*
X2808Y901D01*
X2810Y901D01*
X2810Y903D01*
X2812Y903D01*
X2812Y905D01*
X2816Y905D01*
X2816Y907D01*
X2818Y907D01*
X2818Y927D01*
X2814Y927D01*
X2814Y929D01*
X2812Y929D01*
X2812Y931D01*
X2810Y931D01*
X2810Y933D01*
X2808Y933D01*
X2808Y935D01*
X2806Y935D01*
X2806Y937D01*
X2804Y937D01*
X2804Y939D01*
X2802Y939D01*
X2802Y943D01*
X2780Y943D01*
G37*
D02*
G36*
X2180Y941D02*
X2180Y939D01*
X2178Y939D01*
X2178Y937D01*
X2176Y937D01*
X2176Y933D01*
X2174Y933D01*
X2174Y931D01*
X2172Y931D01*
X2172Y911D01*
X2178Y911D01*
X2178Y909D01*
X2184Y909D01*
X2184Y907D01*
X2192Y907D01*
X2192Y905D01*
X2198Y905D01*
X2198Y903D01*
X2204Y903D01*
X2204Y901D01*
X2210Y901D01*
X2210Y899D01*
X2218Y899D01*
X2218Y897D01*
X2224Y897D01*
X2224Y895D01*
X2230Y895D01*
X2230Y893D01*
X2238Y893D01*
X2238Y891D01*
X2244Y891D01*
X2244Y889D01*
X2250Y889D01*
X2250Y887D01*
X2274Y887D01*
X2274Y903D01*
X2272Y903D01*
X2272Y905D01*
X2270Y905D01*
X2270Y909D01*
X2268Y909D01*
X2268Y911D01*
X2266Y911D01*
X2266Y913D01*
X2264Y913D01*
X2264Y915D01*
X2262Y915D01*
X2262Y917D01*
X2260Y917D01*
X2260Y919D01*
X2232Y919D01*
X2232Y921D01*
X2224Y921D01*
X2224Y923D01*
X2220Y923D01*
X2220Y925D01*
X2216Y925D01*
X2216Y927D01*
X2214Y927D01*
X2214Y929D01*
X2210Y929D01*
X2210Y931D01*
X2208Y931D01*
X2208Y933D01*
X2206Y933D01*
X2206Y935D01*
X2204Y935D01*
X2204Y939D01*
X2202Y939D01*
X2202Y941D01*
X2180Y941D01*
G37*
D02*
G36*
X3896Y871D02*
X3896Y849D01*
X3898Y849D01*
X3898Y845D01*
X3900Y845D01*
X3900Y837D01*
X3902Y837D01*
X3902Y815D01*
X3900Y815D01*
X3900Y809D01*
X3898Y809D01*
X3898Y805D01*
X3896Y805D01*
X3896Y785D01*
X3916Y785D01*
X3916Y787D01*
X3942Y787D01*
X3942Y789D01*
X3968Y789D01*
X3968Y791D01*
X3992Y791D01*
X3992Y793D01*
X4018Y793D01*
X4018Y795D01*
X4042Y795D01*
X4042Y797D01*
X4068Y797D01*
X4068Y799D01*
X4092Y799D01*
X4092Y801D01*
X4118Y801D01*
X4118Y803D01*
X4144Y803D01*
X4144Y805D01*
X4168Y805D01*
X4168Y807D01*
X4194Y807D01*
X4194Y809D01*
X4208Y809D01*
X4208Y837D01*
X4210Y837D01*
X4210Y845D01*
X4212Y845D01*
X4212Y849D01*
X4214Y849D01*
X4214Y871D01*
X3896Y871D01*
G37*
D02*
G36*
X4302Y855D02*
X4302Y815D01*
X4300Y815D01*
X4300Y813D01*
X4354Y813D01*
X4354Y811D01*
X4360Y811D01*
X4360Y809D01*
X4364Y809D01*
X4364Y807D01*
X4368Y807D01*
X4368Y805D01*
X4370Y805D01*
X4370Y803D01*
X4372Y803D01*
X4372Y801D01*
X4374Y801D01*
X4374Y799D01*
X4376Y799D01*
X4376Y797D01*
X4378Y797D01*
X4378Y795D01*
X4398Y795D01*
X4398Y797D01*
X4408Y797D01*
X4408Y799D01*
X4418Y799D01*
X4418Y801D01*
X4428Y801D01*
X4428Y803D01*
X4438Y803D01*
X4438Y805D01*
X4448Y805D01*
X4448Y807D01*
X4460Y807D01*
X4460Y809D01*
X4470Y809D01*
X4470Y811D01*
X4480Y811D01*
X4480Y813D01*
X4490Y813D01*
X4490Y815D01*
X4500Y815D01*
X4500Y817D01*
X4510Y817D01*
X4510Y819D01*
X4520Y819D01*
X4520Y821D01*
X4530Y821D01*
X4530Y823D01*
X4540Y823D01*
X4540Y825D01*
X4552Y825D01*
X4552Y827D01*
X4562Y827D01*
X4562Y829D01*
X4572Y829D01*
X4572Y831D01*
X4582Y831D01*
X4582Y833D01*
X4592Y833D01*
X4592Y835D01*
X4602Y835D01*
X4602Y855D01*
X4302Y855D01*
G37*
D02*
G36*
X4300Y813D02*
X4300Y809D01*
X4298Y809D01*
X4298Y807D01*
X4318Y807D01*
X4318Y809D01*
X4322Y809D01*
X4322Y811D01*
X4328Y811D01*
X4328Y813D01*
X4300Y813D01*
G37*
D02*
G36*
X4822Y845D02*
X4822Y835D01*
X4824Y835D01*
X4824Y831D01*
X4826Y831D01*
X4826Y723D01*
X4824Y723D01*
X4824Y719D01*
X4822Y719D01*
X4822Y717D01*
X4820Y717D01*
X4820Y715D01*
X4818Y715D01*
X4818Y713D01*
X4814Y713D01*
X4814Y711D01*
X4812Y711D01*
X4812Y709D01*
X4808Y709D01*
X4808Y707D01*
X4804Y707D01*
X4804Y705D01*
X4800Y705D01*
X4800Y703D01*
X4798Y703D01*
X4798Y701D01*
X4794Y701D01*
X4794Y699D01*
X4790Y699D01*
X4790Y697D01*
X4786Y697D01*
X4786Y695D01*
X4784Y695D01*
X4784Y693D01*
X4780Y693D01*
X4780Y691D01*
X4776Y691D01*
X4776Y689D01*
X4772Y689D01*
X4772Y687D01*
X4770Y687D01*
X4770Y685D01*
X4766Y685D01*
X4766Y683D01*
X4762Y683D01*
X4762Y681D01*
X4758Y681D01*
X4758Y679D01*
X4756Y679D01*
X4756Y677D01*
X4752Y677D01*
X4752Y675D01*
X4748Y675D01*
X4748Y673D01*
X4744Y673D01*
X4744Y671D01*
X4742Y671D01*
X4742Y669D01*
X4738Y669D01*
X4738Y667D01*
X4734Y667D01*
X4734Y665D01*
X4730Y665D01*
X4730Y663D01*
X4728Y663D01*
X4728Y661D01*
X4724Y661D01*
X4724Y659D01*
X4720Y659D01*
X4720Y657D01*
X4716Y657D01*
X4716Y655D01*
X4714Y655D01*
X4714Y499D01*
X4712Y499D01*
X4712Y495D01*
X4710Y495D01*
X4710Y493D01*
X4708Y493D01*
X4708Y477D01*
X4730Y477D01*
X4730Y479D01*
X4734Y479D01*
X4734Y481D01*
X4738Y481D01*
X4738Y483D01*
X4742Y483D01*
X4742Y485D01*
X4746Y485D01*
X4746Y487D01*
X4748Y487D01*
X4748Y489D01*
X4752Y489D01*
X4752Y491D01*
X4756Y491D01*
X4756Y493D01*
X4760Y493D01*
X4760Y495D01*
X4764Y495D01*
X4764Y497D01*
X4768Y497D01*
X4768Y499D01*
X4772Y499D01*
X4772Y501D01*
X4776Y501D01*
X4776Y503D01*
X4780Y503D01*
X4780Y505D01*
X4784Y505D01*
X4784Y507D01*
X4788Y507D01*
X4788Y509D01*
X4792Y509D01*
X4792Y511D01*
X4796Y511D01*
X4796Y513D01*
X4800Y513D01*
X4800Y515D01*
X4804Y515D01*
X4804Y517D01*
X4808Y517D01*
X4808Y519D01*
X4812Y519D01*
X4812Y521D01*
X4814Y521D01*
X4814Y523D01*
X4818Y523D01*
X4818Y525D01*
X4822Y525D01*
X4822Y527D01*
X4826Y527D01*
X4826Y529D01*
X4830Y529D01*
X4830Y531D01*
X4834Y531D01*
X4834Y533D01*
X4838Y533D01*
X4838Y535D01*
X4842Y535D01*
X4842Y537D01*
X4846Y537D01*
X4846Y539D01*
X4850Y539D01*
X4850Y541D01*
X4854Y541D01*
X4854Y543D01*
X4858Y543D01*
X4858Y545D01*
X4862Y545D01*
X4862Y547D01*
X4866Y547D01*
X4866Y549D01*
X4870Y549D01*
X4870Y551D01*
X4874Y551D01*
X4874Y553D01*
X4878Y553D01*
X4878Y555D01*
X4882Y555D01*
X4882Y557D01*
X4884Y557D01*
X4884Y559D01*
X4888Y559D01*
X4888Y561D01*
X4892Y561D01*
X4892Y563D01*
X4896Y563D01*
X4896Y565D01*
X4900Y565D01*
X4900Y609D01*
X4922Y609D01*
X4922Y629D01*
X4918Y629D01*
X4918Y631D01*
X4916Y631D01*
X4916Y633D01*
X4914Y633D01*
X4914Y635D01*
X4912Y635D01*
X4912Y637D01*
X4910Y637D01*
X4910Y639D01*
X4908Y639D01*
X4908Y641D01*
X4906Y641D01*
X4906Y645D01*
X4904Y645D01*
X4904Y649D01*
X4902Y649D01*
X4902Y655D01*
X4900Y655D01*
X4900Y675D01*
X4902Y675D01*
X4902Y681D01*
X4904Y681D01*
X4904Y685D01*
X4906Y685D01*
X4906Y689D01*
X4908Y689D01*
X4908Y691D01*
X4910Y691D01*
X4910Y693D01*
X4912Y693D01*
X4912Y695D01*
X4914Y695D01*
X4914Y697D01*
X4916Y697D01*
X4916Y699D01*
X4920Y699D01*
X4920Y701D01*
X4922Y701D01*
X4922Y703D01*
X4928Y703D01*
X4928Y705D01*
X4936Y705D01*
X4936Y707D01*
X4956Y707D01*
X4956Y723D01*
X4954Y723D01*
X4954Y725D01*
X4952Y725D01*
X4952Y727D01*
X4950Y727D01*
X4950Y729D01*
X4948Y729D01*
X4948Y731D01*
X4946Y731D01*
X4946Y735D01*
X4944Y735D01*
X4944Y737D01*
X4942Y737D01*
X4942Y739D01*
X4940Y739D01*
X4940Y741D01*
X4938Y741D01*
X4938Y743D01*
X4936Y743D01*
X4936Y745D01*
X4934Y745D01*
X4934Y747D01*
X4932Y747D01*
X4932Y749D01*
X4930Y749D01*
X4930Y751D01*
X4928Y751D01*
X4928Y753D01*
X4926Y753D01*
X4926Y755D01*
X4924Y755D01*
X4924Y757D01*
X4922Y757D01*
X4922Y759D01*
X4920Y759D01*
X4920Y761D01*
X4918Y761D01*
X4918Y765D01*
X4916Y765D01*
X4916Y767D01*
X4914Y767D01*
X4914Y769D01*
X4912Y769D01*
X4912Y771D01*
X4910Y771D01*
X4910Y773D01*
X4908Y773D01*
X4908Y775D01*
X4906Y775D01*
X4906Y777D01*
X4904Y777D01*
X4904Y779D01*
X4902Y779D01*
X4902Y781D01*
X4900Y781D01*
X4900Y783D01*
X4898Y783D01*
X4898Y785D01*
X4896Y785D01*
X4896Y787D01*
X4894Y787D01*
X4894Y789D01*
X4892Y789D01*
X4892Y791D01*
X4890Y791D01*
X4890Y795D01*
X4888Y795D01*
X4888Y797D01*
X4886Y797D01*
X4886Y799D01*
X4884Y799D01*
X4884Y801D01*
X4882Y801D01*
X4882Y803D01*
X4880Y803D01*
X4880Y805D01*
X4878Y805D01*
X4878Y807D01*
X4876Y807D01*
X4876Y809D01*
X4874Y809D01*
X4874Y811D01*
X4872Y811D01*
X4872Y813D01*
X4870Y813D01*
X4870Y815D01*
X4868Y815D01*
X4868Y817D01*
X4866Y817D01*
X4866Y819D01*
X4864Y819D01*
X4864Y821D01*
X4862Y821D01*
X4862Y825D01*
X4860Y825D01*
X4860Y827D01*
X4858Y827D01*
X4858Y829D01*
X4856Y829D01*
X4856Y831D01*
X4854Y831D01*
X4854Y833D01*
X4852Y833D01*
X4852Y835D01*
X4850Y835D01*
X4850Y837D01*
X4848Y837D01*
X4848Y839D01*
X4846Y839D01*
X4846Y841D01*
X4844Y841D01*
X4844Y843D01*
X4842Y843D01*
X4842Y845D01*
X4822Y845D01*
G37*
D02*
G36*
X2780Y843D02*
X2780Y839D01*
X2778Y839D01*
X2778Y837D01*
X2776Y837D01*
X2776Y835D01*
X2774Y835D01*
X2774Y833D01*
X2772Y833D01*
X2772Y831D01*
X2770Y831D01*
X2770Y829D01*
X2768Y829D01*
X2768Y827D01*
X2764Y827D01*
X2764Y807D01*
X2766Y807D01*
X2766Y805D01*
X2768Y805D01*
X2768Y803D01*
X2772Y803D01*
X2772Y801D01*
X2774Y801D01*
X2774Y799D01*
X2776Y799D01*
X2776Y797D01*
X2778Y797D01*
X2778Y793D01*
X2780Y793D01*
X2780Y791D01*
X2802Y791D01*
X2802Y793D01*
X2804Y793D01*
X2804Y797D01*
X2806Y797D01*
X2806Y799D01*
X2808Y799D01*
X2808Y801D01*
X2810Y801D01*
X2810Y803D01*
X2812Y803D01*
X2812Y805D01*
X2816Y805D01*
X2816Y807D01*
X2818Y807D01*
X2818Y827D01*
X2814Y827D01*
X2814Y829D01*
X2812Y829D01*
X2812Y831D01*
X2810Y831D01*
X2810Y833D01*
X2808Y833D01*
X2808Y835D01*
X2806Y835D01*
X2806Y837D01*
X2804Y837D01*
X2804Y839D01*
X2802Y839D01*
X2802Y843D01*
X2780Y843D01*
G37*
D02*
G36*
X40Y1097D02*
X40Y1051D01*
X2782Y1051D01*
X2782Y1049D01*
X2786Y1049D01*
X2786Y1047D01*
X2788Y1047D01*
X2788Y1045D01*
X2790Y1045D01*
X2790Y1043D01*
X2792Y1043D01*
X2792Y1041D01*
X2794Y1041D01*
X2794Y1039D01*
X2796Y1039D01*
X2796Y1037D01*
X2798Y1037D01*
X2798Y1035D01*
X2850Y1035D01*
X2850Y1037D01*
X2844Y1037D01*
X2844Y1039D01*
X2840Y1039D01*
X2840Y1041D01*
X2838Y1041D01*
X2838Y1043D01*
X2836Y1043D01*
X2836Y1045D01*
X2834Y1045D01*
X2834Y1047D01*
X2832Y1047D01*
X2832Y1049D01*
X2830Y1049D01*
X2830Y1053D01*
X2828Y1053D01*
X2828Y1059D01*
X2826Y1059D01*
X2826Y1071D01*
X2828Y1071D01*
X2828Y1077D01*
X2830Y1077D01*
X2830Y1097D01*
X40Y1097D01*
G37*
D02*
G36*
X40Y1051D02*
X40Y1013D01*
X2054Y1013D01*
X2054Y1011D01*
X2060Y1011D01*
X2060Y1009D01*
X2064Y1009D01*
X2064Y1007D01*
X2068Y1007D01*
X2068Y1005D01*
X2070Y1005D01*
X2070Y1003D01*
X2072Y1003D01*
X2072Y1001D01*
X2074Y1001D01*
X2074Y999D01*
X2076Y999D01*
X2076Y997D01*
X2078Y997D01*
X2078Y995D01*
X2080Y995D01*
X2080Y991D01*
X2102Y991D01*
X2102Y995D01*
X2104Y995D01*
X2104Y997D01*
X2106Y997D01*
X2106Y999D01*
X2108Y999D01*
X2108Y1001D01*
X2110Y1001D01*
X2110Y1003D01*
X2112Y1003D01*
X2112Y1005D01*
X2114Y1005D01*
X2114Y1007D01*
X2118Y1007D01*
X2118Y1009D01*
X2122Y1009D01*
X2122Y1011D01*
X2128Y1011D01*
X2128Y1013D01*
X2150Y1013D01*
X2150Y1015D01*
X2152Y1015D01*
X2152Y1019D01*
X2154Y1019D01*
X2154Y1021D01*
X2156Y1021D01*
X2156Y1025D01*
X2158Y1025D01*
X2158Y1027D01*
X2160Y1027D01*
X2160Y1031D01*
X2162Y1031D01*
X2162Y1033D01*
X2164Y1033D01*
X2164Y1037D01*
X2166Y1037D01*
X2166Y1039D01*
X2168Y1039D01*
X2168Y1043D01*
X2170Y1043D01*
X2170Y1045D01*
X2172Y1045D01*
X2172Y1047D01*
X2174Y1047D01*
X2174Y1049D01*
X2178Y1049D01*
X2178Y1051D01*
X40Y1051D01*
G37*
D02*
G36*
X2874Y1043D02*
X2874Y1041D01*
X2872Y1041D01*
X2872Y1039D01*
X2868Y1039D01*
X2868Y1037D01*
X2862Y1037D01*
X2862Y1035D01*
X2998Y1035D01*
X2998Y1037D01*
X2972Y1037D01*
X2972Y1039D01*
X2946Y1039D01*
X2946Y1041D01*
X2920Y1041D01*
X2920Y1043D01*
X2874Y1043D01*
G37*
D02*
G36*
X2800Y1035D02*
X2800Y1033D01*
X3024Y1033D01*
X3024Y1035D01*
X2800Y1035D01*
G37*
D02*
G36*
X2800Y1035D02*
X2800Y1033D01*
X3024Y1033D01*
X3024Y1035D01*
X2800Y1035D01*
G37*
D02*
G36*
X2802Y1033D02*
X2802Y1031D01*
X2804Y1031D01*
X2804Y1029D01*
X2806Y1029D01*
X2806Y1027D01*
X2808Y1027D01*
X2808Y1025D01*
X2810Y1025D01*
X2810Y1023D01*
X2812Y1023D01*
X2812Y1021D01*
X2814Y1021D01*
X2814Y1019D01*
X2816Y1019D01*
X2816Y1017D01*
X2818Y1017D01*
X2818Y1015D01*
X2820Y1015D01*
X2820Y1013D01*
X2852Y1013D01*
X2852Y1011D01*
X2858Y1011D01*
X2858Y1009D01*
X2862Y1009D01*
X2862Y1007D01*
X2866Y1007D01*
X2866Y1005D01*
X2868Y1005D01*
X2868Y1003D01*
X2872Y1003D01*
X2872Y1001D01*
X2874Y1001D01*
X2874Y999D01*
X2876Y999D01*
X2876Y997D01*
X2878Y997D01*
X2878Y993D01*
X2880Y993D01*
X2880Y991D01*
X2882Y991D01*
X2882Y987D01*
X2884Y987D01*
X2884Y983D01*
X2886Y983D01*
X2886Y975D01*
X2888Y975D01*
X2888Y959D01*
X2886Y959D01*
X2886Y951D01*
X2884Y951D01*
X2884Y947D01*
X2882Y947D01*
X2882Y943D01*
X2880Y943D01*
X2880Y939D01*
X2878Y939D01*
X2878Y937D01*
X2876Y937D01*
X2876Y935D01*
X2874Y935D01*
X2874Y933D01*
X2872Y933D01*
X2872Y931D01*
X2870Y931D01*
X2870Y929D01*
X2868Y929D01*
X2868Y927D01*
X2864Y927D01*
X2864Y907D01*
X4302Y907D01*
X4302Y905D01*
X4306Y905D01*
X4306Y903D01*
X4308Y903D01*
X4308Y901D01*
X4310Y901D01*
X4310Y899D01*
X4312Y899D01*
X4312Y895D01*
X4314Y895D01*
X4314Y891D01*
X4638Y891D01*
X4638Y911D01*
X4612Y911D01*
X4612Y913D01*
X4586Y913D01*
X4586Y915D01*
X4560Y915D01*
X4560Y917D01*
X4534Y917D01*
X4534Y919D01*
X4508Y919D01*
X4508Y921D01*
X4482Y921D01*
X4482Y923D01*
X4456Y923D01*
X4456Y925D01*
X4430Y925D01*
X4430Y927D01*
X4404Y927D01*
X4404Y929D01*
X4378Y929D01*
X4378Y931D01*
X4352Y931D01*
X4352Y933D01*
X4326Y933D01*
X4326Y935D01*
X4300Y935D01*
X4300Y937D01*
X4274Y937D01*
X4274Y939D01*
X4248Y939D01*
X4248Y941D01*
X4222Y941D01*
X4222Y943D01*
X4196Y943D01*
X4196Y945D01*
X4170Y945D01*
X4170Y947D01*
X4144Y947D01*
X4144Y949D01*
X4118Y949D01*
X4118Y951D01*
X4092Y951D01*
X4092Y953D01*
X4066Y953D01*
X4066Y955D01*
X4040Y955D01*
X4040Y957D01*
X4014Y957D01*
X4014Y959D01*
X3988Y959D01*
X3988Y961D01*
X3962Y961D01*
X3962Y963D01*
X3936Y963D01*
X3936Y965D01*
X3910Y965D01*
X3910Y967D01*
X3884Y967D01*
X3884Y969D01*
X3858Y969D01*
X3858Y971D01*
X3832Y971D01*
X3832Y973D01*
X3806Y973D01*
X3806Y975D01*
X3780Y975D01*
X3780Y977D01*
X3754Y977D01*
X3754Y979D01*
X3726Y979D01*
X3726Y981D01*
X3700Y981D01*
X3700Y983D01*
X3674Y983D01*
X3674Y985D01*
X3648Y985D01*
X3648Y987D01*
X3622Y987D01*
X3622Y989D01*
X3596Y989D01*
X3596Y991D01*
X3570Y991D01*
X3570Y993D01*
X3544Y993D01*
X3544Y995D01*
X3518Y995D01*
X3518Y997D01*
X3492Y997D01*
X3492Y999D01*
X3466Y999D01*
X3466Y1001D01*
X3440Y1001D01*
X3440Y1003D01*
X3414Y1003D01*
X3414Y1005D01*
X3388Y1005D01*
X3388Y1007D01*
X3362Y1007D01*
X3362Y1009D01*
X3336Y1009D01*
X3336Y1011D01*
X3310Y1011D01*
X3310Y1013D01*
X3284Y1013D01*
X3284Y1015D01*
X3258Y1015D01*
X3258Y1017D01*
X3232Y1017D01*
X3232Y1019D01*
X3206Y1019D01*
X3206Y1021D01*
X3180Y1021D01*
X3180Y1023D01*
X3154Y1023D01*
X3154Y1025D01*
X3128Y1025D01*
X3128Y1027D01*
X3102Y1027D01*
X3102Y1029D01*
X3076Y1029D01*
X3076Y1031D01*
X3050Y1031D01*
X3050Y1033D01*
X2802Y1033D01*
G37*
D02*
G36*
X40Y1013D02*
X40Y999D01*
X830Y999D01*
X830Y997D01*
X836Y997D01*
X836Y995D01*
X840Y995D01*
X840Y993D01*
X842Y993D01*
X842Y991D01*
X844Y991D01*
X844Y989D01*
X846Y989D01*
X846Y987D01*
X848Y987D01*
X848Y985D01*
X850Y985D01*
X850Y981D01*
X852Y981D01*
X852Y975D01*
X854Y975D01*
X854Y963D01*
X852Y963D01*
X852Y957D01*
X850Y957D01*
X850Y953D01*
X848Y953D01*
X848Y951D01*
X846Y951D01*
X846Y949D01*
X844Y949D01*
X844Y947D01*
X842Y947D01*
X842Y945D01*
X840Y945D01*
X840Y943D01*
X836Y943D01*
X836Y941D01*
X830Y941D01*
X830Y939D01*
X1102Y939D01*
X1102Y941D01*
X1100Y941D01*
X1100Y945D01*
X1098Y945D01*
X1098Y949D01*
X1096Y949D01*
X1096Y955D01*
X1094Y955D01*
X1094Y977D01*
X1096Y977D01*
X1096Y985D01*
X1098Y985D01*
X1098Y989D01*
X1100Y989D01*
X1100Y991D01*
X1102Y991D01*
X1102Y995D01*
X1104Y995D01*
X1104Y997D01*
X1106Y997D01*
X1106Y999D01*
X1108Y999D01*
X1108Y1001D01*
X1110Y1001D01*
X1110Y1003D01*
X1112Y1003D01*
X1112Y1005D01*
X1114Y1005D01*
X1114Y1007D01*
X1118Y1007D01*
X1118Y1009D01*
X1122Y1009D01*
X1122Y1011D01*
X1128Y1011D01*
X1128Y1013D01*
X40Y1013D01*
G37*
D02*
G36*
X1154Y1013D02*
X1154Y1011D01*
X1160Y1011D01*
X1160Y1009D01*
X1164Y1009D01*
X1164Y1007D01*
X1168Y1007D01*
X1168Y1005D01*
X1170Y1005D01*
X1170Y1003D01*
X1172Y1003D01*
X1172Y1001D01*
X1174Y1001D01*
X1174Y999D01*
X1176Y999D01*
X1176Y997D01*
X1178Y997D01*
X1178Y995D01*
X1180Y995D01*
X1180Y991D01*
X1202Y991D01*
X1202Y995D01*
X1204Y995D01*
X1204Y997D01*
X1206Y997D01*
X1206Y999D01*
X1208Y999D01*
X1208Y1001D01*
X1210Y1001D01*
X1210Y1003D01*
X1212Y1003D01*
X1212Y1005D01*
X1214Y1005D01*
X1214Y1007D01*
X1218Y1007D01*
X1218Y1009D01*
X1222Y1009D01*
X1222Y1011D01*
X1228Y1011D01*
X1228Y1013D01*
X1154Y1013D01*
G37*
D02*
G36*
X1254Y1013D02*
X1254Y1011D01*
X1260Y1011D01*
X1260Y1009D01*
X1264Y1009D01*
X1264Y1007D01*
X1268Y1007D01*
X1268Y1005D01*
X1270Y1005D01*
X1270Y1003D01*
X1272Y1003D01*
X1272Y1001D01*
X1274Y1001D01*
X1274Y999D01*
X1276Y999D01*
X1276Y997D01*
X1278Y997D01*
X1278Y995D01*
X1280Y995D01*
X1280Y991D01*
X1302Y991D01*
X1302Y995D01*
X1304Y995D01*
X1304Y997D01*
X1306Y997D01*
X1306Y999D01*
X1308Y999D01*
X1308Y1001D01*
X1310Y1001D01*
X1310Y1003D01*
X1312Y1003D01*
X1312Y1005D01*
X1314Y1005D01*
X1314Y1007D01*
X1318Y1007D01*
X1318Y1009D01*
X1322Y1009D01*
X1322Y1011D01*
X1328Y1011D01*
X1328Y1013D01*
X1254Y1013D01*
G37*
D02*
G36*
X1354Y1013D02*
X1354Y1011D01*
X1360Y1011D01*
X1360Y1009D01*
X1364Y1009D01*
X1364Y1007D01*
X1368Y1007D01*
X1368Y1005D01*
X1370Y1005D01*
X1370Y1003D01*
X1372Y1003D01*
X1372Y1001D01*
X1374Y1001D01*
X1374Y999D01*
X1376Y999D01*
X1376Y997D01*
X1378Y997D01*
X1378Y995D01*
X1380Y995D01*
X1380Y991D01*
X1402Y991D01*
X1402Y995D01*
X1404Y995D01*
X1404Y997D01*
X1406Y997D01*
X1406Y999D01*
X1408Y999D01*
X1408Y1001D01*
X1410Y1001D01*
X1410Y1003D01*
X1412Y1003D01*
X1412Y1005D01*
X1414Y1005D01*
X1414Y1007D01*
X1418Y1007D01*
X1418Y1009D01*
X1422Y1009D01*
X1422Y1011D01*
X1428Y1011D01*
X1428Y1013D01*
X1354Y1013D01*
G37*
D02*
G36*
X1454Y1013D02*
X1454Y1011D01*
X1460Y1011D01*
X1460Y1009D01*
X1464Y1009D01*
X1464Y1007D01*
X1468Y1007D01*
X1468Y1005D01*
X1470Y1005D01*
X1470Y1003D01*
X1472Y1003D01*
X1472Y1001D01*
X1474Y1001D01*
X1474Y999D01*
X1476Y999D01*
X1476Y997D01*
X1478Y997D01*
X1478Y995D01*
X1480Y995D01*
X1480Y991D01*
X1502Y991D01*
X1502Y995D01*
X1504Y995D01*
X1504Y997D01*
X1506Y997D01*
X1506Y999D01*
X1508Y999D01*
X1508Y1001D01*
X1510Y1001D01*
X1510Y1003D01*
X1512Y1003D01*
X1512Y1005D01*
X1514Y1005D01*
X1514Y1007D01*
X1518Y1007D01*
X1518Y1009D01*
X1522Y1009D01*
X1522Y1011D01*
X1528Y1011D01*
X1528Y1013D01*
X1454Y1013D01*
G37*
D02*
G36*
X1554Y1013D02*
X1554Y1011D01*
X1560Y1011D01*
X1560Y1009D01*
X1564Y1009D01*
X1564Y1007D01*
X1568Y1007D01*
X1568Y1005D01*
X1570Y1005D01*
X1570Y1003D01*
X1572Y1003D01*
X1572Y1001D01*
X1574Y1001D01*
X1574Y999D01*
X1576Y999D01*
X1576Y997D01*
X1578Y997D01*
X1578Y995D01*
X1580Y995D01*
X1580Y991D01*
X1602Y991D01*
X1602Y995D01*
X1604Y995D01*
X1604Y997D01*
X1606Y997D01*
X1606Y999D01*
X1608Y999D01*
X1608Y1001D01*
X1610Y1001D01*
X1610Y1003D01*
X1612Y1003D01*
X1612Y1005D01*
X1614Y1005D01*
X1614Y1007D01*
X1618Y1007D01*
X1618Y1009D01*
X1622Y1009D01*
X1622Y1011D01*
X1628Y1011D01*
X1628Y1013D01*
X1554Y1013D01*
G37*
D02*
G36*
X1654Y1013D02*
X1654Y1011D01*
X1660Y1011D01*
X1660Y1009D01*
X1664Y1009D01*
X1664Y1007D01*
X1668Y1007D01*
X1668Y1005D01*
X1670Y1005D01*
X1670Y1003D01*
X1672Y1003D01*
X1672Y1001D01*
X1674Y1001D01*
X1674Y999D01*
X1676Y999D01*
X1676Y997D01*
X1678Y997D01*
X1678Y995D01*
X1680Y995D01*
X1680Y991D01*
X1702Y991D01*
X1702Y995D01*
X1704Y995D01*
X1704Y997D01*
X1706Y997D01*
X1706Y999D01*
X1708Y999D01*
X1708Y1001D01*
X1710Y1001D01*
X1710Y1003D01*
X1712Y1003D01*
X1712Y1005D01*
X1714Y1005D01*
X1714Y1007D01*
X1718Y1007D01*
X1718Y1009D01*
X1722Y1009D01*
X1722Y1011D01*
X1728Y1011D01*
X1728Y1013D01*
X1654Y1013D01*
G37*
D02*
G36*
X1754Y1013D02*
X1754Y1011D01*
X1760Y1011D01*
X1760Y1009D01*
X1764Y1009D01*
X1764Y1007D01*
X1768Y1007D01*
X1768Y1005D01*
X1770Y1005D01*
X1770Y1003D01*
X1772Y1003D01*
X1772Y1001D01*
X1774Y1001D01*
X1774Y999D01*
X1776Y999D01*
X1776Y997D01*
X1778Y997D01*
X1778Y995D01*
X1780Y995D01*
X1780Y991D01*
X1802Y991D01*
X1802Y995D01*
X1804Y995D01*
X1804Y997D01*
X1806Y997D01*
X1806Y999D01*
X1808Y999D01*
X1808Y1001D01*
X1810Y1001D01*
X1810Y1003D01*
X1812Y1003D01*
X1812Y1005D01*
X1814Y1005D01*
X1814Y1007D01*
X1818Y1007D01*
X1818Y1009D01*
X1822Y1009D01*
X1822Y1011D01*
X1828Y1011D01*
X1828Y1013D01*
X1754Y1013D01*
G37*
D02*
G36*
X1854Y1013D02*
X1854Y1011D01*
X1860Y1011D01*
X1860Y1009D01*
X1864Y1009D01*
X1864Y1007D01*
X1868Y1007D01*
X1868Y1005D01*
X1870Y1005D01*
X1870Y1003D01*
X1872Y1003D01*
X1872Y1001D01*
X1874Y1001D01*
X1874Y999D01*
X1876Y999D01*
X1876Y997D01*
X1878Y997D01*
X1878Y995D01*
X1880Y995D01*
X1880Y991D01*
X1902Y991D01*
X1902Y995D01*
X1904Y995D01*
X1904Y997D01*
X1906Y997D01*
X1906Y999D01*
X1908Y999D01*
X1908Y1001D01*
X1910Y1001D01*
X1910Y1003D01*
X1912Y1003D01*
X1912Y1005D01*
X1914Y1005D01*
X1914Y1007D01*
X1918Y1007D01*
X1918Y1009D01*
X1922Y1009D01*
X1922Y1011D01*
X1928Y1011D01*
X1928Y1013D01*
X1854Y1013D01*
G37*
D02*
G36*
X1954Y1013D02*
X1954Y1011D01*
X1960Y1011D01*
X1960Y1009D01*
X1964Y1009D01*
X1964Y1007D01*
X1968Y1007D01*
X1968Y1005D01*
X1970Y1005D01*
X1970Y1003D01*
X1972Y1003D01*
X1972Y1001D01*
X1974Y1001D01*
X1974Y999D01*
X1976Y999D01*
X1976Y997D01*
X1978Y997D01*
X1978Y995D01*
X1980Y995D01*
X1980Y991D01*
X2002Y991D01*
X2002Y995D01*
X2004Y995D01*
X2004Y997D01*
X2006Y997D01*
X2006Y999D01*
X2008Y999D01*
X2008Y1001D01*
X2010Y1001D01*
X2010Y1003D01*
X2012Y1003D01*
X2012Y1005D01*
X2014Y1005D01*
X2014Y1007D01*
X2018Y1007D01*
X2018Y1009D01*
X2022Y1009D01*
X2022Y1011D01*
X2028Y1011D01*
X2028Y1013D01*
X1954Y1013D01*
G37*
D02*
G36*
X40Y999D02*
X40Y979D01*
X622Y979D01*
X622Y977D01*
X628Y977D01*
X628Y975D01*
X632Y975D01*
X632Y973D01*
X636Y973D01*
X636Y971D01*
X638Y971D01*
X638Y969D01*
X640Y969D01*
X640Y967D01*
X642Y967D01*
X642Y965D01*
X644Y965D01*
X644Y963D01*
X646Y963D01*
X646Y961D01*
X648Y961D01*
X648Y957D01*
X650Y957D01*
X650Y953D01*
X652Y953D01*
X652Y947D01*
X656Y947D01*
X656Y945D01*
X666Y945D01*
X666Y943D01*
X676Y943D01*
X676Y941D01*
X684Y941D01*
X684Y939D01*
X818Y939D01*
X818Y941D01*
X812Y941D01*
X812Y943D01*
X808Y943D01*
X808Y945D01*
X806Y945D01*
X806Y947D01*
X804Y947D01*
X804Y949D01*
X802Y949D01*
X802Y951D01*
X800Y951D01*
X800Y953D01*
X798Y953D01*
X798Y957D01*
X796Y957D01*
X796Y963D01*
X794Y963D01*
X794Y975D01*
X796Y975D01*
X796Y981D01*
X798Y981D01*
X798Y985D01*
X800Y985D01*
X800Y987D01*
X802Y987D01*
X802Y989D01*
X804Y989D01*
X804Y991D01*
X806Y991D01*
X806Y993D01*
X808Y993D01*
X808Y995D01*
X812Y995D01*
X812Y997D01*
X818Y997D01*
X818Y999D01*
X40Y999D01*
G37*
D02*
G36*
X40Y979D02*
X40Y909D01*
X550Y909D01*
X550Y907D01*
X556Y907D01*
X556Y905D01*
X560Y905D01*
X560Y903D01*
X564Y903D01*
X564Y901D01*
X566Y901D01*
X566Y899D01*
X570Y899D01*
X570Y897D01*
X572Y897D01*
X572Y895D01*
X602Y895D01*
X602Y897D01*
X596Y897D01*
X596Y899D01*
X592Y899D01*
X592Y901D01*
X588Y901D01*
X588Y903D01*
X586Y903D01*
X586Y905D01*
X582Y905D01*
X582Y907D01*
X580Y907D01*
X580Y911D01*
X578Y911D01*
X578Y913D01*
X576Y913D01*
X576Y917D01*
X574Y917D01*
X574Y919D01*
X572Y919D01*
X572Y925D01*
X570Y925D01*
X570Y949D01*
X572Y949D01*
X572Y955D01*
X574Y955D01*
X574Y959D01*
X576Y959D01*
X576Y961D01*
X578Y961D01*
X578Y965D01*
X580Y965D01*
X580Y967D01*
X582Y967D01*
X582Y969D01*
X584Y969D01*
X584Y971D01*
X588Y971D01*
X588Y973D01*
X590Y973D01*
X590Y975D01*
X594Y975D01*
X594Y977D01*
X600Y977D01*
X600Y979D01*
X40Y979D01*
G37*
D02*
G36*
X1180Y941D02*
X1180Y939D01*
X1178Y939D01*
X1178Y937D01*
X1176Y937D01*
X1176Y933D01*
X1174Y933D01*
X1174Y931D01*
X1170Y931D01*
X1170Y929D01*
X1168Y929D01*
X1168Y927D01*
X1166Y927D01*
X1166Y925D01*
X1162Y925D01*
X1162Y923D01*
X1156Y923D01*
X1156Y921D01*
X1150Y921D01*
X1150Y919D01*
X1232Y919D01*
X1232Y921D01*
X1224Y921D01*
X1224Y923D01*
X1220Y923D01*
X1220Y925D01*
X1216Y925D01*
X1216Y927D01*
X1214Y927D01*
X1214Y929D01*
X1210Y929D01*
X1210Y931D01*
X1208Y931D01*
X1208Y933D01*
X1206Y933D01*
X1206Y935D01*
X1204Y935D01*
X1204Y939D01*
X1202Y939D01*
X1202Y941D01*
X1180Y941D01*
G37*
D02*
G36*
X1280Y941D02*
X1280Y939D01*
X1278Y939D01*
X1278Y937D01*
X1276Y937D01*
X1276Y933D01*
X1274Y933D01*
X1274Y931D01*
X1270Y931D01*
X1270Y929D01*
X1268Y929D01*
X1268Y927D01*
X1266Y927D01*
X1266Y925D01*
X1262Y925D01*
X1262Y923D01*
X1256Y923D01*
X1256Y921D01*
X1250Y921D01*
X1250Y919D01*
X1332Y919D01*
X1332Y921D01*
X1324Y921D01*
X1324Y923D01*
X1320Y923D01*
X1320Y925D01*
X1316Y925D01*
X1316Y927D01*
X1314Y927D01*
X1314Y929D01*
X1310Y929D01*
X1310Y931D01*
X1308Y931D01*
X1308Y933D01*
X1306Y933D01*
X1306Y935D01*
X1304Y935D01*
X1304Y939D01*
X1302Y939D01*
X1302Y941D01*
X1280Y941D01*
G37*
D02*
G36*
X1380Y941D02*
X1380Y939D01*
X1378Y939D01*
X1378Y937D01*
X1376Y937D01*
X1376Y933D01*
X1374Y933D01*
X1374Y931D01*
X1370Y931D01*
X1370Y929D01*
X1368Y929D01*
X1368Y927D01*
X1366Y927D01*
X1366Y925D01*
X1362Y925D01*
X1362Y923D01*
X1356Y923D01*
X1356Y921D01*
X1350Y921D01*
X1350Y919D01*
X1432Y919D01*
X1432Y921D01*
X1424Y921D01*
X1424Y923D01*
X1420Y923D01*
X1420Y925D01*
X1416Y925D01*
X1416Y927D01*
X1414Y927D01*
X1414Y929D01*
X1410Y929D01*
X1410Y931D01*
X1408Y931D01*
X1408Y933D01*
X1406Y933D01*
X1406Y935D01*
X1404Y935D01*
X1404Y939D01*
X1402Y939D01*
X1402Y941D01*
X1380Y941D01*
G37*
D02*
G36*
X1480Y941D02*
X1480Y939D01*
X1478Y939D01*
X1478Y937D01*
X1476Y937D01*
X1476Y933D01*
X1474Y933D01*
X1474Y931D01*
X1470Y931D01*
X1470Y929D01*
X1468Y929D01*
X1468Y927D01*
X1466Y927D01*
X1466Y925D01*
X1462Y925D01*
X1462Y923D01*
X1456Y923D01*
X1456Y921D01*
X1450Y921D01*
X1450Y919D01*
X1532Y919D01*
X1532Y921D01*
X1524Y921D01*
X1524Y923D01*
X1520Y923D01*
X1520Y925D01*
X1516Y925D01*
X1516Y927D01*
X1514Y927D01*
X1514Y929D01*
X1510Y929D01*
X1510Y931D01*
X1508Y931D01*
X1508Y933D01*
X1506Y933D01*
X1506Y935D01*
X1504Y935D01*
X1504Y939D01*
X1502Y939D01*
X1502Y941D01*
X1480Y941D01*
G37*
D02*
G36*
X1580Y941D02*
X1580Y939D01*
X1578Y939D01*
X1578Y937D01*
X1576Y937D01*
X1576Y933D01*
X1574Y933D01*
X1574Y931D01*
X1570Y931D01*
X1570Y929D01*
X1568Y929D01*
X1568Y927D01*
X1566Y927D01*
X1566Y925D01*
X1562Y925D01*
X1562Y923D01*
X1556Y923D01*
X1556Y921D01*
X1550Y921D01*
X1550Y919D01*
X1632Y919D01*
X1632Y921D01*
X1624Y921D01*
X1624Y923D01*
X1620Y923D01*
X1620Y925D01*
X1616Y925D01*
X1616Y927D01*
X1614Y927D01*
X1614Y929D01*
X1610Y929D01*
X1610Y931D01*
X1608Y931D01*
X1608Y933D01*
X1606Y933D01*
X1606Y935D01*
X1604Y935D01*
X1604Y939D01*
X1602Y939D01*
X1602Y941D01*
X1580Y941D01*
G37*
D02*
G36*
X1680Y941D02*
X1680Y939D01*
X1678Y939D01*
X1678Y937D01*
X1676Y937D01*
X1676Y933D01*
X1674Y933D01*
X1674Y931D01*
X1670Y931D01*
X1670Y929D01*
X1668Y929D01*
X1668Y927D01*
X1666Y927D01*
X1666Y925D01*
X1662Y925D01*
X1662Y923D01*
X1656Y923D01*
X1656Y921D01*
X1650Y921D01*
X1650Y919D01*
X1732Y919D01*
X1732Y921D01*
X1724Y921D01*
X1724Y923D01*
X1720Y923D01*
X1720Y925D01*
X1716Y925D01*
X1716Y927D01*
X1714Y927D01*
X1714Y929D01*
X1710Y929D01*
X1710Y931D01*
X1708Y931D01*
X1708Y933D01*
X1706Y933D01*
X1706Y935D01*
X1704Y935D01*
X1704Y939D01*
X1702Y939D01*
X1702Y941D01*
X1680Y941D01*
G37*
D02*
G36*
X1780Y941D02*
X1780Y939D01*
X1778Y939D01*
X1778Y937D01*
X1776Y937D01*
X1776Y933D01*
X1774Y933D01*
X1774Y931D01*
X1770Y931D01*
X1770Y929D01*
X1768Y929D01*
X1768Y927D01*
X1766Y927D01*
X1766Y925D01*
X1762Y925D01*
X1762Y923D01*
X1756Y923D01*
X1756Y921D01*
X1750Y921D01*
X1750Y919D01*
X1832Y919D01*
X1832Y921D01*
X1824Y921D01*
X1824Y923D01*
X1820Y923D01*
X1820Y925D01*
X1816Y925D01*
X1816Y927D01*
X1814Y927D01*
X1814Y929D01*
X1810Y929D01*
X1810Y931D01*
X1808Y931D01*
X1808Y933D01*
X1806Y933D01*
X1806Y935D01*
X1804Y935D01*
X1804Y939D01*
X1802Y939D01*
X1802Y941D01*
X1780Y941D01*
G37*
D02*
G36*
X1880Y941D02*
X1880Y939D01*
X1878Y939D01*
X1878Y937D01*
X1876Y937D01*
X1876Y933D01*
X1874Y933D01*
X1874Y931D01*
X1870Y931D01*
X1870Y929D01*
X1868Y929D01*
X1868Y927D01*
X1866Y927D01*
X1866Y925D01*
X1862Y925D01*
X1862Y923D01*
X1856Y923D01*
X1856Y921D01*
X1850Y921D01*
X1850Y919D01*
X1932Y919D01*
X1932Y921D01*
X1924Y921D01*
X1924Y923D01*
X1920Y923D01*
X1920Y925D01*
X1916Y925D01*
X1916Y927D01*
X1914Y927D01*
X1914Y929D01*
X1910Y929D01*
X1910Y931D01*
X1908Y931D01*
X1908Y933D01*
X1906Y933D01*
X1906Y935D01*
X1904Y935D01*
X1904Y939D01*
X1902Y939D01*
X1902Y941D01*
X1880Y941D01*
G37*
D02*
G36*
X1980Y941D02*
X1980Y939D01*
X1978Y939D01*
X1978Y937D01*
X1976Y937D01*
X1976Y933D01*
X1974Y933D01*
X1974Y931D01*
X1970Y931D01*
X1970Y929D01*
X1968Y929D01*
X1968Y927D01*
X1966Y927D01*
X1966Y925D01*
X1962Y925D01*
X1962Y923D01*
X1956Y923D01*
X1956Y921D01*
X1950Y921D01*
X1950Y919D01*
X2032Y919D01*
X2032Y921D01*
X2024Y921D01*
X2024Y923D01*
X2020Y923D01*
X2020Y925D01*
X2016Y925D01*
X2016Y927D01*
X2014Y927D01*
X2014Y929D01*
X2010Y929D01*
X2010Y931D01*
X2008Y931D01*
X2008Y933D01*
X2006Y933D01*
X2006Y935D01*
X2004Y935D01*
X2004Y939D01*
X2002Y939D01*
X2002Y941D01*
X1980Y941D01*
G37*
D02*
G36*
X694Y939D02*
X694Y937D01*
X1104Y937D01*
X1104Y939D01*
X694Y939D01*
G37*
D02*
G36*
X694Y939D02*
X694Y937D01*
X1104Y937D01*
X1104Y939D01*
X694Y939D01*
G37*
D02*
G36*
X704Y937D02*
X704Y935D01*
X712Y935D01*
X712Y933D01*
X722Y933D01*
X722Y931D01*
X730Y931D01*
X730Y929D01*
X740Y929D01*
X740Y927D01*
X750Y927D01*
X750Y925D01*
X758Y925D01*
X758Y923D01*
X768Y923D01*
X768Y921D01*
X778Y921D01*
X778Y919D01*
X1132Y919D01*
X1132Y921D01*
X1124Y921D01*
X1124Y923D01*
X1120Y923D01*
X1120Y925D01*
X1116Y925D01*
X1116Y927D01*
X1114Y927D01*
X1114Y929D01*
X1110Y929D01*
X1110Y931D01*
X1108Y931D01*
X1108Y933D01*
X1106Y933D01*
X1106Y935D01*
X1104Y935D01*
X1104Y937D01*
X704Y937D01*
G37*
D02*
G36*
X786Y919D02*
X786Y917D01*
X2058Y917D01*
X2058Y919D01*
X786Y919D01*
G37*
D02*
G36*
X786Y919D02*
X786Y917D01*
X2058Y917D01*
X2058Y919D01*
X786Y919D01*
G37*
D02*
G36*
X786Y919D02*
X786Y917D01*
X2058Y917D01*
X2058Y919D01*
X786Y919D01*
G37*
D02*
G36*
X786Y919D02*
X786Y917D01*
X2058Y917D01*
X2058Y919D01*
X786Y919D01*
G37*
D02*
G36*
X786Y919D02*
X786Y917D01*
X2058Y917D01*
X2058Y919D01*
X786Y919D01*
G37*
D02*
G36*
X786Y919D02*
X786Y917D01*
X2058Y917D01*
X2058Y919D01*
X786Y919D01*
G37*
D02*
G36*
X786Y919D02*
X786Y917D01*
X2058Y917D01*
X2058Y919D01*
X786Y919D01*
G37*
D02*
G36*
X786Y919D02*
X786Y917D01*
X2058Y917D01*
X2058Y919D01*
X786Y919D01*
G37*
D02*
G36*
X786Y919D02*
X786Y917D01*
X2058Y917D01*
X2058Y919D01*
X786Y919D01*
G37*
D02*
G36*
X786Y919D02*
X786Y917D01*
X2058Y917D01*
X2058Y919D01*
X786Y919D01*
G37*
D02*
G36*
X796Y917D02*
X796Y915D01*
X806Y915D01*
X806Y913D01*
X814Y913D01*
X814Y911D01*
X954Y911D01*
X954Y909D01*
X960Y909D01*
X960Y907D01*
X962Y907D01*
X962Y905D01*
X966Y905D01*
X966Y903D01*
X970Y903D01*
X970Y901D01*
X972Y901D01*
X972Y899D01*
X974Y899D01*
X974Y897D01*
X976Y897D01*
X976Y893D01*
X978Y893D01*
X978Y891D01*
X980Y891D01*
X980Y887D01*
X1822Y887D01*
X1822Y885D01*
X1828Y885D01*
X1828Y883D01*
X1832Y883D01*
X1832Y881D01*
X1834Y881D01*
X1834Y879D01*
X1836Y879D01*
X1836Y877D01*
X1838Y877D01*
X1838Y875D01*
X1840Y875D01*
X1840Y873D01*
X1868Y873D01*
X1868Y871D01*
X1904Y871D01*
X1904Y869D01*
X1938Y869D01*
X1938Y867D01*
X1972Y867D01*
X1972Y865D01*
X2008Y865D01*
X2008Y863D01*
X2042Y863D01*
X2042Y861D01*
X2076Y861D01*
X2076Y859D01*
X2112Y859D01*
X2112Y857D01*
X2146Y857D01*
X2146Y855D01*
X2172Y855D01*
X2172Y875D01*
X2166Y875D01*
X2166Y877D01*
X2160Y877D01*
X2160Y879D01*
X2152Y879D01*
X2152Y881D01*
X2146Y881D01*
X2146Y883D01*
X2140Y883D01*
X2140Y885D01*
X2134Y885D01*
X2134Y887D01*
X2126Y887D01*
X2126Y889D01*
X2120Y889D01*
X2120Y891D01*
X2114Y891D01*
X2114Y893D01*
X2106Y893D01*
X2106Y895D01*
X2100Y895D01*
X2100Y897D01*
X2094Y897D01*
X2094Y899D01*
X2088Y899D01*
X2088Y901D01*
X2080Y901D01*
X2080Y903D01*
X2074Y903D01*
X2074Y905D01*
X2070Y905D01*
X2070Y907D01*
X2068Y907D01*
X2068Y909D01*
X2066Y909D01*
X2066Y911D01*
X2064Y911D01*
X2064Y913D01*
X2062Y913D01*
X2062Y915D01*
X2060Y915D01*
X2060Y917D01*
X796Y917D01*
G37*
D02*
G36*
X824Y911D02*
X824Y909D01*
X834Y909D01*
X834Y907D01*
X842Y907D01*
X842Y905D01*
X852Y905D01*
X852Y903D01*
X862Y903D01*
X862Y901D01*
X870Y901D01*
X870Y899D01*
X880Y899D01*
X880Y897D01*
X908Y897D01*
X908Y899D01*
X910Y899D01*
X910Y901D01*
X912Y901D01*
X912Y903D01*
X916Y903D01*
X916Y905D01*
X918Y905D01*
X918Y907D01*
X922Y907D01*
X922Y909D01*
X928Y909D01*
X928Y911D01*
X824Y911D01*
G37*
D02*
G36*
X40Y909D02*
X40Y825D01*
X528Y825D01*
X528Y827D01*
X524Y827D01*
X524Y829D01*
X520Y829D01*
X520Y831D01*
X516Y831D01*
X516Y833D01*
X514Y833D01*
X514Y835D01*
X512Y835D01*
X512Y837D01*
X510Y837D01*
X510Y839D01*
X508Y839D01*
X508Y841D01*
X506Y841D01*
X506Y845D01*
X504Y845D01*
X504Y847D01*
X502Y847D01*
X502Y853D01*
X500Y853D01*
X500Y861D01*
X498Y861D01*
X498Y873D01*
X500Y873D01*
X500Y881D01*
X502Y881D01*
X502Y885D01*
X504Y885D01*
X504Y889D01*
X506Y889D01*
X506Y891D01*
X508Y891D01*
X508Y895D01*
X510Y895D01*
X510Y897D01*
X512Y897D01*
X512Y899D01*
X514Y899D01*
X514Y901D01*
X518Y901D01*
X518Y903D01*
X522Y903D01*
X522Y905D01*
X526Y905D01*
X526Y907D01*
X532Y907D01*
X532Y909D01*
X40Y909D01*
G37*
D02*
G36*
X642Y909D02*
X642Y907D01*
X640Y907D01*
X640Y905D01*
X638Y905D01*
X638Y903D01*
X636Y903D01*
X636Y901D01*
X632Y901D01*
X632Y899D01*
X628Y899D01*
X628Y897D01*
X622Y897D01*
X622Y895D01*
X718Y895D01*
X718Y897D01*
X708Y897D01*
X708Y899D01*
X700Y899D01*
X700Y901D01*
X690Y901D01*
X690Y903D01*
X680Y903D01*
X680Y905D01*
X672Y905D01*
X672Y907D01*
X662Y907D01*
X662Y909D01*
X642Y909D01*
G37*
D02*
G36*
X2866Y907D02*
X2866Y905D01*
X2868Y905D01*
X2868Y903D01*
X2872Y903D01*
X2872Y901D01*
X2874Y901D01*
X2874Y899D01*
X2876Y899D01*
X2876Y897D01*
X2878Y897D01*
X2878Y893D01*
X2880Y893D01*
X2880Y891D01*
X2882Y891D01*
X2882Y887D01*
X2884Y887D01*
X2884Y883D01*
X2886Y883D01*
X2886Y875D01*
X2888Y875D01*
X2888Y857D01*
X2890Y857D01*
X2890Y855D01*
X2892Y855D01*
X2892Y853D01*
X2896Y853D01*
X2896Y851D01*
X2898Y851D01*
X2898Y849D01*
X2902Y849D01*
X2902Y847D01*
X2904Y847D01*
X2904Y845D01*
X2908Y845D01*
X2908Y843D01*
X2910Y843D01*
X2910Y841D01*
X2914Y841D01*
X2914Y839D01*
X2916Y839D01*
X2916Y837D01*
X2918Y837D01*
X2918Y835D01*
X2920Y835D01*
X2920Y831D01*
X2922Y831D01*
X2922Y723D01*
X2920Y723D01*
X2920Y719D01*
X2918Y719D01*
X2918Y717D01*
X2916Y717D01*
X2916Y715D01*
X2914Y715D01*
X2914Y713D01*
X2912Y713D01*
X2912Y711D01*
X2910Y711D01*
X2910Y709D01*
X2908Y709D01*
X2908Y707D01*
X3344Y707D01*
X3344Y705D01*
X3354Y705D01*
X3354Y703D01*
X3360Y703D01*
X3360Y701D01*
X3362Y701D01*
X3362Y699D01*
X3366Y699D01*
X3366Y697D01*
X3368Y697D01*
X3368Y695D01*
X3370Y695D01*
X3370Y693D01*
X3372Y693D01*
X3372Y691D01*
X3374Y691D01*
X3374Y689D01*
X3376Y689D01*
X3376Y685D01*
X3378Y685D01*
X3378Y681D01*
X3380Y681D01*
X3380Y675D01*
X3382Y675D01*
X3382Y655D01*
X3380Y655D01*
X3380Y649D01*
X3378Y649D01*
X3378Y645D01*
X3376Y645D01*
X3376Y641D01*
X3374Y641D01*
X3374Y639D01*
X3372Y639D01*
X3372Y637D01*
X3370Y637D01*
X3370Y635D01*
X3368Y635D01*
X3368Y633D01*
X3366Y633D01*
X3366Y631D01*
X3362Y631D01*
X3362Y629D01*
X3360Y629D01*
X3360Y609D01*
X3382Y609D01*
X3382Y531D01*
X3402Y531D01*
X3402Y535D01*
X3404Y535D01*
X3404Y537D01*
X3406Y537D01*
X3406Y541D01*
X3408Y541D01*
X3408Y545D01*
X3410Y545D01*
X3410Y549D01*
X3412Y549D01*
X3412Y553D01*
X3414Y553D01*
X3414Y557D01*
X3416Y557D01*
X3416Y561D01*
X3418Y561D01*
X3418Y565D01*
X3420Y565D01*
X3420Y569D01*
X3422Y569D01*
X3422Y573D01*
X3424Y573D01*
X3424Y577D01*
X3426Y577D01*
X3426Y581D01*
X3428Y581D01*
X3428Y585D01*
X3430Y585D01*
X3430Y589D01*
X3432Y589D01*
X3432Y593D01*
X3434Y593D01*
X3434Y597D01*
X3436Y597D01*
X3436Y599D01*
X3438Y599D01*
X3438Y603D01*
X3440Y603D01*
X3440Y607D01*
X3442Y607D01*
X3442Y611D01*
X3444Y611D01*
X3444Y615D01*
X3446Y615D01*
X3446Y619D01*
X3448Y619D01*
X3448Y623D01*
X3450Y623D01*
X3450Y627D01*
X3452Y627D01*
X3452Y631D01*
X3454Y631D01*
X3454Y635D01*
X3456Y635D01*
X3456Y639D01*
X3458Y639D01*
X3458Y643D01*
X3460Y643D01*
X3460Y647D01*
X3462Y647D01*
X3462Y651D01*
X3464Y651D01*
X3464Y655D01*
X3466Y655D01*
X3466Y659D01*
X3468Y659D01*
X3468Y661D01*
X3470Y661D01*
X3470Y665D01*
X3472Y665D01*
X3472Y669D01*
X3474Y669D01*
X3474Y673D01*
X3476Y673D01*
X3476Y677D01*
X3478Y677D01*
X3478Y681D01*
X3480Y681D01*
X3480Y685D01*
X3482Y685D01*
X3482Y689D01*
X3484Y689D01*
X3484Y693D01*
X3486Y693D01*
X3486Y697D01*
X3488Y697D01*
X3488Y701D01*
X3490Y701D01*
X3490Y705D01*
X3492Y705D01*
X3492Y709D01*
X3494Y709D01*
X3494Y713D01*
X3496Y713D01*
X3496Y717D01*
X3498Y717D01*
X3498Y721D01*
X3500Y721D01*
X3500Y723D01*
X3502Y723D01*
X3502Y727D01*
X3504Y727D01*
X3504Y731D01*
X3506Y731D01*
X3506Y735D01*
X3508Y735D01*
X3508Y739D01*
X3510Y739D01*
X3510Y743D01*
X3512Y743D01*
X3512Y747D01*
X3514Y747D01*
X3514Y749D01*
X3516Y749D01*
X3516Y751D01*
X3518Y751D01*
X3518Y753D01*
X3522Y753D01*
X3522Y755D01*
X3540Y755D01*
X3540Y757D01*
X3564Y757D01*
X3564Y759D01*
X3590Y759D01*
X3590Y761D01*
X3616Y761D01*
X3616Y763D01*
X3640Y763D01*
X3640Y765D01*
X3666Y765D01*
X3666Y767D01*
X3690Y767D01*
X3690Y769D01*
X3716Y769D01*
X3716Y771D01*
X3730Y771D01*
X3730Y791D01*
X3728Y791D01*
X3728Y793D01*
X3726Y793D01*
X3726Y797D01*
X3724Y797D01*
X3724Y803D01*
X3722Y803D01*
X3722Y815D01*
X3724Y815D01*
X3724Y821D01*
X3726Y821D01*
X3726Y825D01*
X3728Y825D01*
X3728Y827D01*
X3730Y827D01*
X3730Y829D01*
X3732Y829D01*
X3732Y831D01*
X3734Y831D01*
X3734Y833D01*
X3736Y833D01*
X3736Y835D01*
X3740Y835D01*
X3740Y837D01*
X3746Y837D01*
X3746Y839D01*
X3750Y839D01*
X3750Y843D01*
X3752Y843D01*
X3752Y845D01*
X3754Y845D01*
X3754Y849D01*
X3756Y849D01*
X3756Y853D01*
X3758Y853D01*
X3758Y855D01*
X3760Y855D01*
X3760Y859D01*
X3762Y859D01*
X3762Y863D01*
X3764Y863D01*
X3764Y865D01*
X3766Y865D01*
X3766Y869D01*
X3768Y869D01*
X3768Y873D01*
X3770Y873D01*
X3770Y875D01*
X3772Y875D01*
X3772Y879D01*
X3774Y879D01*
X3774Y883D01*
X3776Y883D01*
X3776Y885D01*
X3778Y885D01*
X3778Y889D01*
X3780Y889D01*
X3780Y893D01*
X3782Y893D01*
X3782Y895D01*
X3784Y895D01*
X3784Y899D01*
X3786Y899D01*
X3786Y901D01*
X3788Y901D01*
X3788Y903D01*
X3790Y903D01*
X3790Y905D01*
X3794Y905D01*
X3794Y907D01*
X2866Y907D01*
G37*
D02*
G36*
X574Y895D02*
X574Y893D01*
X728Y893D01*
X728Y895D01*
X574Y895D01*
G37*
D02*
G36*
X574Y895D02*
X574Y893D01*
X728Y893D01*
X728Y895D01*
X574Y895D01*
G37*
D02*
G36*
X574Y893D02*
X574Y891D01*
X576Y891D01*
X576Y889D01*
X578Y889D01*
X578Y885D01*
X580Y885D01*
X580Y879D01*
X582Y879D01*
X582Y871D01*
X584Y871D01*
X584Y863D01*
X582Y863D01*
X582Y853D01*
X580Y853D01*
X580Y849D01*
X578Y849D01*
X578Y845D01*
X576Y845D01*
X576Y841D01*
X574Y841D01*
X574Y839D01*
X572Y839D01*
X572Y837D01*
X570Y837D01*
X570Y835D01*
X568Y835D01*
X568Y833D01*
X566Y833D01*
X566Y831D01*
X562Y831D01*
X562Y829D01*
X558Y829D01*
X558Y827D01*
X552Y827D01*
X552Y825D01*
X920Y825D01*
X920Y827D01*
X918Y827D01*
X918Y829D01*
X914Y829D01*
X914Y831D01*
X912Y831D01*
X912Y833D01*
X910Y833D01*
X910Y835D01*
X908Y835D01*
X908Y837D01*
X906Y837D01*
X906Y839D01*
X904Y839D01*
X904Y841D01*
X902Y841D01*
X902Y845D01*
X900Y845D01*
X900Y849D01*
X898Y849D01*
X898Y855D01*
X896Y855D01*
X896Y857D01*
X894Y857D01*
X894Y859D01*
X886Y859D01*
X886Y861D01*
X876Y861D01*
X876Y863D01*
X866Y863D01*
X866Y865D01*
X858Y865D01*
X858Y867D01*
X848Y867D01*
X848Y869D01*
X838Y869D01*
X838Y871D01*
X830Y871D01*
X830Y873D01*
X820Y873D01*
X820Y875D01*
X810Y875D01*
X810Y877D01*
X802Y877D01*
X802Y879D01*
X792Y879D01*
X792Y881D01*
X784Y881D01*
X784Y883D01*
X774Y883D01*
X774Y885D01*
X764Y885D01*
X764Y887D01*
X756Y887D01*
X756Y889D01*
X746Y889D01*
X746Y891D01*
X736Y891D01*
X736Y893D01*
X574Y893D01*
G37*
D02*
G36*
X982Y887D02*
X982Y883D01*
X984Y883D01*
X984Y877D01*
X986Y877D01*
X986Y871D01*
X1022Y871D01*
X1022Y869D01*
X1028Y869D01*
X1028Y867D01*
X1032Y867D01*
X1032Y865D01*
X1034Y865D01*
X1034Y863D01*
X1036Y863D01*
X1036Y861D01*
X1038Y861D01*
X1038Y859D01*
X1040Y859D01*
X1040Y857D01*
X1072Y857D01*
X1072Y855D01*
X1110Y855D01*
X1110Y853D01*
X1148Y853D01*
X1148Y851D01*
X1184Y851D01*
X1184Y849D01*
X1222Y849D01*
X1222Y847D01*
X1260Y847D01*
X1260Y845D01*
X1296Y845D01*
X1296Y843D01*
X1334Y843D01*
X1334Y841D01*
X1372Y841D01*
X1372Y839D01*
X1408Y839D01*
X1408Y837D01*
X1446Y837D01*
X1446Y835D01*
X1484Y835D01*
X1484Y833D01*
X1520Y833D01*
X1520Y831D01*
X1558Y831D01*
X1558Y829D01*
X1596Y829D01*
X1596Y827D01*
X1632Y827D01*
X1632Y825D01*
X1670Y825D01*
X1670Y823D01*
X1708Y823D01*
X1708Y821D01*
X1744Y821D01*
X1744Y819D01*
X1796Y819D01*
X1796Y837D01*
X1794Y837D01*
X1794Y839D01*
X1792Y839D01*
X1792Y841D01*
X1790Y841D01*
X1790Y845D01*
X1788Y845D01*
X1788Y851D01*
X1786Y851D01*
X1786Y863D01*
X1788Y863D01*
X1788Y869D01*
X1790Y869D01*
X1790Y873D01*
X1792Y873D01*
X1792Y875D01*
X1794Y875D01*
X1794Y877D01*
X1796Y877D01*
X1796Y879D01*
X1798Y879D01*
X1798Y881D01*
X1800Y881D01*
X1800Y883D01*
X1804Y883D01*
X1804Y885D01*
X1810Y885D01*
X1810Y887D01*
X982Y887D01*
G37*
D02*
G36*
X986Y871D02*
X986Y869D01*
X1010Y869D01*
X1010Y871D01*
X986Y871D01*
G37*
D02*
G36*
X1836Y837D02*
X1836Y835D01*
X1834Y835D01*
X1834Y815D01*
X1856Y815D01*
X1856Y813D01*
X1894Y813D01*
X1894Y811D01*
X1918Y811D01*
X1918Y809D01*
X1922Y809D01*
X1922Y807D01*
X1924Y807D01*
X1924Y805D01*
X1926Y805D01*
X1926Y803D01*
X1928Y803D01*
X1928Y801D01*
X1930Y801D01*
X1930Y799D01*
X1932Y799D01*
X1932Y797D01*
X1934Y797D01*
X1934Y795D01*
X1936Y795D01*
X1936Y793D01*
X1938Y793D01*
X1938Y791D01*
X1940Y791D01*
X1940Y789D01*
X1942Y789D01*
X1942Y787D01*
X1944Y787D01*
X1944Y785D01*
X1946Y785D01*
X1946Y783D01*
X1948Y783D01*
X1948Y781D01*
X1950Y781D01*
X1950Y779D01*
X1952Y779D01*
X1952Y777D01*
X1956Y777D01*
X1956Y775D01*
X1958Y775D01*
X1958Y773D01*
X1960Y773D01*
X1960Y771D01*
X1962Y771D01*
X1962Y769D01*
X1964Y769D01*
X1964Y767D01*
X1966Y767D01*
X1966Y765D01*
X1968Y765D01*
X1968Y763D01*
X1970Y763D01*
X1970Y761D01*
X1972Y761D01*
X1972Y759D01*
X1974Y759D01*
X1974Y757D01*
X1976Y757D01*
X1976Y755D01*
X1978Y755D01*
X1978Y753D01*
X1980Y753D01*
X1980Y751D01*
X2512Y751D01*
X2512Y749D01*
X2514Y749D01*
X2514Y747D01*
X2518Y747D01*
X2518Y745D01*
X2520Y745D01*
X2520Y741D01*
X2522Y741D01*
X2522Y695D01*
X2590Y695D01*
X2590Y693D01*
X2596Y693D01*
X2596Y691D01*
X2600Y691D01*
X2600Y689D01*
X2602Y689D01*
X2602Y687D01*
X2604Y687D01*
X2604Y685D01*
X2606Y685D01*
X2606Y683D01*
X2608Y683D01*
X2608Y681D01*
X2610Y681D01*
X2610Y677D01*
X2630Y677D01*
X2630Y793D01*
X2596Y793D01*
X2596Y795D01*
X2560Y795D01*
X2560Y797D01*
X2526Y797D01*
X2526Y799D01*
X2492Y799D01*
X2492Y801D01*
X2456Y801D01*
X2456Y803D01*
X2422Y803D01*
X2422Y805D01*
X2388Y805D01*
X2388Y807D01*
X2352Y807D01*
X2352Y809D01*
X2318Y809D01*
X2318Y811D01*
X2284Y811D01*
X2284Y813D01*
X2248Y813D01*
X2248Y815D01*
X2214Y815D01*
X2214Y817D01*
X2180Y817D01*
X2180Y819D01*
X2144Y819D01*
X2144Y821D01*
X2110Y821D01*
X2110Y823D01*
X2076Y823D01*
X2076Y825D01*
X2040Y825D01*
X2040Y827D01*
X2006Y827D01*
X2006Y829D01*
X1972Y829D01*
X1972Y831D01*
X1936Y831D01*
X1936Y833D01*
X1902Y833D01*
X1902Y835D01*
X1868Y835D01*
X1868Y837D01*
X1836Y837D01*
G37*
D02*
G36*
X968Y831D02*
X968Y829D01*
X964Y829D01*
X964Y827D01*
X962Y827D01*
X962Y825D01*
X956Y825D01*
X956Y823D01*
X950Y823D01*
X950Y821D01*
X994Y821D01*
X994Y823D01*
X992Y823D01*
X992Y825D01*
X990Y825D01*
X990Y829D01*
X988Y829D01*
X988Y831D01*
X968Y831D01*
G37*
D02*
G36*
X40Y825D02*
X40Y823D01*
X926Y823D01*
X926Y825D01*
X40Y825D01*
G37*
D02*
G36*
X40Y825D02*
X40Y823D01*
X926Y823D01*
X926Y825D01*
X40Y825D01*
G37*
D02*
G36*
X40Y823D02*
X40Y821D01*
X932Y821D01*
X932Y823D01*
X40Y823D01*
G37*
D02*
G36*
X40Y821D02*
X40Y819D01*
X996Y819D01*
X996Y821D01*
X40Y821D01*
G37*
D02*
G36*
X40Y821D02*
X40Y819D01*
X996Y819D01*
X996Y821D01*
X40Y821D01*
G37*
D02*
G36*
X1036Y821D02*
X1036Y819D01*
X1034Y819D01*
X1034Y817D01*
X1032Y817D01*
X1032Y815D01*
X1028Y815D01*
X1028Y813D01*
X1022Y813D01*
X1022Y811D01*
X1220Y811D01*
X1220Y813D01*
X1184Y813D01*
X1184Y815D01*
X1146Y815D01*
X1146Y817D01*
X1108Y817D01*
X1108Y819D01*
X1072Y819D01*
X1072Y821D01*
X1036Y821D01*
G37*
D02*
G36*
X40Y819D02*
X40Y811D01*
X1010Y811D01*
X1010Y813D01*
X1004Y813D01*
X1004Y815D01*
X1000Y815D01*
X1000Y817D01*
X998Y817D01*
X998Y819D01*
X40Y819D01*
G37*
D02*
G36*
X40Y811D02*
X40Y809D01*
X1258Y809D01*
X1258Y811D01*
X40Y811D01*
G37*
D02*
G36*
X40Y811D02*
X40Y809D01*
X1258Y809D01*
X1258Y811D01*
X40Y811D01*
G37*
D02*
G36*
X40Y809D02*
X40Y775D01*
X814Y775D01*
X814Y773D01*
X822Y773D01*
X822Y771D01*
X826Y771D01*
X826Y769D01*
X828Y769D01*
X828Y767D01*
X832Y767D01*
X832Y765D01*
X834Y765D01*
X834Y763D01*
X836Y763D01*
X836Y761D01*
X838Y761D01*
X838Y759D01*
X840Y759D01*
X840Y757D01*
X842Y757D01*
X842Y753D01*
X844Y753D01*
X844Y749D01*
X846Y749D01*
X846Y747D01*
X1902Y747D01*
X1902Y745D01*
X1906Y745D01*
X1906Y743D01*
X1908Y743D01*
X1908Y741D01*
X1910Y741D01*
X1910Y739D01*
X1912Y739D01*
X1912Y737D01*
X1914Y737D01*
X1914Y733D01*
X1916Y733D01*
X1916Y731D01*
X1918Y731D01*
X1918Y727D01*
X1920Y727D01*
X1920Y725D01*
X1922Y725D01*
X1922Y723D01*
X1924Y723D01*
X1924Y719D01*
X1926Y719D01*
X1926Y717D01*
X1928Y717D01*
X1928Y713D01*
X1948Y713D01*
X1948Y733D01*
X1946Y733D01*
X1946Y735D01*
X1944Y735D01*
X1944Y737D01*
X1942Y737D01*
X1942Y739D01*
X1940Y739D01*
X1940Y741D01*
X1938Y741D01*
X1938Y743D01*
X1936Y743D01*
X1936Y745D01*
X1934Y745D01*
X1934Y747D01*
X1932Y747D01*
X1932Y749D01*
X1930Y749D01*
X1930Y751D01*
X1928Y751D01*
X1928Y753D01*
X1926Y753D01*
X1926Y755D01*
X1924Y755D01*
X1924Y757D01*
X1922Y757D01*
X1922Y759D01*
X1920Y759D01*
X1920Y761D01*
X1918Y761D01*
X1918Y763D01*
X1916Y763D01*
X1916Y765D01*
X1914Y765D01*
X1914Y767D01*
X1912Y767D01*
X1912Y769D01*
X1910Y769D01*
X1910Y771D01*
X1908Y771D01*
X1908Y773D01*
X1906Y773D01*
X1906Y775D01*
X1892Y775D01*
X1892Y777D01*
X1856Y777D01*
X1856Y779D01*
X1818Y779D01*
X1818Y781D01*
X1780Y781D01*
X1780Y783D01*
X1744Y783D01*
X1744Y785D01*
X1706Y785D01*
X1706Y787D01*
X1668Y787D01*
X1668Y789D01*
X1632Y789D01*
X1632Y791D01*
X1594Y791D01*
X1594Y793D01*
X1556Y793D01*
X1556Y795D01*
X1520Y795D01*
X1520Y797D01*
X1482Y797D01*
X1482Y799D01*
X1444Y799D01*
X1444Y801D01*
X1408Y801D01*
X1408Y803D01*
X1370Y803D01*
X1370Y805D01*
X1332Y805D01*
X1332Y807D01*
X1296Y807D01*
X1296Y809D01*
X40Y809D01*
G37*
D02*
G36*
X40Y775D02*
X40Y771D01*
X318Y771D01*
X318Y769D01*
X324Y769D01*
X324Y767D01*
X328Y767D01*
X328Y765D01*
X330Y765D01*
X330Y763D01*
X332Y763D01*
X332Y761D01*
X336Y761D01*
X336Y759D01*
X338Y759D01*
X338Y755D01*
X340Y755D01*
X340Y753D01*
X342Y753D01*
X342Y749D01*
X344Y749D01*
X344Y747D01*
X346Y747D01*
X346Y739D01*
X348Y739D01*
X348Y719D01*
X346Y719D01*
X346Y713D01*
X344Y713D01*
X344Y709D01*
X342Y709D01*
X342Y705D01*
X340Y705D01*
X340Y703D01*
X338Y703D01*
X338Y701D01*
X336Y701D01*
X336Y699D01*
X334Y699D01*
X334Y697D01*
X332Y697D01*
X332Y695D01*
X330Y695D01*
X330Y693D01*
X326Y693D01*
X326Y691D01*
X322Y691D01*
X322Y689D01*
X318Y689D01*
X318Y685D01*
X794Y685D01*
X794Y687D01*
X788Y687D01*
X788Y689D01*
X784Y689D01*
X784Y691D01*
X780Y691D01*
X780Y693D01*
X776Y693D01*
X776Y695D01*
X774Y695D01*
X774Y697D01*
X772Y697D01*
X772Y699D01*
X770Y699D01*
X770Y701D01*
X768Y701D01*
X768Y705D01*
X766Y705D01*
X766Y707D01*
X764Y707D01*
X764Y711D01*
X762Y711D01*
X762Y717D01*
X760Y717D01*
X760Y729D01*
X758Y729D01*
X758Y731D01*
X760Y731D01*
X760Y743D01*
X762Y743D01*
X762Y749D01*
X764Y749D01*
X764Y753D01*
X766Y753D01*
X766Y755D01*
X768Y755D01*
X768Y759D01*
X770Y759D01*
X770Y761D01*
X772Y761D01*
X772Y763D01*
X774Y763D01*
X774Y765D01*
X776Y765D01*
X776Y767D01*
X780Y767D01*
X780Y769D01*
X784Y769D01*
X784Y771D01*
X788Y771D01*
X788Y773D01*
X794Y773D01*
X794Y775D01*
X40Y775D01*
G37*
D02*
G36*
X40Y771D02*
X40Y587D01*
X298Y587D01*
X298Y589D01*
X290Y589D01*
X290Y591D01*
X286Y591D01*
X286Y593D01*
X282Y593D01*
X282Y595D01*
X280Y595D01*
X280Y597D01*
X278Y597D01*
X278Y599D01*
X276Y599D01*
X276Y601D01*
X274Y601D01*
X274Y603D01*
X272Y603D01*
X272Y605D01*
X270Y605D01*
X270Y609D01*
X268Y609D01*
X268Y613D01*
X266Y613D01*
X266Y619D01*
X264Y619D01*
X264Y639D01*
X266Y639D01*
X266Y647D01*
X268Y647D01*
X268Y649D01*
X270Y649D01*
X270Y653D01*
X272Y653D01*
X272Y655D01*
X274Y655D01*
X274Y659D01*
X276Y659D01*
X276Y661D01*
X280Y661D01*
X280Y663D01*
X282Y663D01*
X282Y665D01*
X284Y665D01*
X284Y667D01*
X288Y667D01*
X288Y669D01*
X294Y669D01*
X294Y689D01*
X290Y689D01*
X290Y691D01*
X286Y691D01*
X286Y693D01*
X282Y693D01*
X282Y695D01*
X280Y695D01*
X280Y697D01*
X278Y697D01*
X278Y699D01*
X276Y699D01*
X276Y701D01*
X274Y701D01*
X274Y703D01*
X272Y703D01*
X272Y705D01*
X270Y705D01*
X270Y709D01*
X268Y709D01*
X268Y713D01*
X266Y713D01*
X266Y719D01*
X264Y719D01*
X264Y739D01*
X266Y739D01*
X266Y747D01*
X268Y747D01*
X268Y749D01*
X270Y749D01*
X270Y753D01*
X272Y753D01*
X272Y755D01*
X274Y755D01*
X274Y759D01*
X276Y759D01*
X276Y761D01*
X280Y761D01*
X280Y763D01*
X282Y763D01*
X282Y765D01*
X284Y765D01*
X284Y767D01*
X288Y767D01*
X288Y769D01*
X294Y769D01*
X294Y771D01*
X40Y771D01*
G37*
D02*
G36*
X1982Y751D02*
X1982Y749D01*
X1984Y749D01*
X1984Y747D01*
X1986Y747D01*
X1986Y745D01*
X1988Y745D01*
X1988Y743D01*
X1990Y743D01*
X1990Y741D01*
X1992Y741D01*
X1992Y739D01*
X1994Y739D01*
X1994Y737D01*
X1996Y737D01*
X1996Y735D01*
X1998Y735D01*
X1998Y733D01*
X2000Y733D01*
X2000Y731D01*
X2002Y731D01*
X2002Y729D01*
X2004Y729D01*
X2004Y727D01*
X2006Y727D01*
X2006Y725D01*
X2008Y725D01*
X2008Y723D01*
X2010Y723D01*
X2010Y721D01*
X2012Y721D01*
X2012Y719D01*
X2014Y719D01*
X2014Y717D01*
X2016Y717D01*
X2016Y715D01*
X2018Y715D01*
X2018Y713D01*
X2054Y713D01*
X2054Y711D01*
X2060Y711D01*
X2060Y709D01*
X2064Y709D01*
X2064Y707D01*
X2068Y707D01*
X2068Y705D01*
X2070Y705D01*
X2070Y703D01*
X2072Y703D01*
X2072Y701D01*
X2074Y701D01*
X2074Y699D01*
X2076Y699D01*
X2076Y697D01*
X2078Y697D01*
X2078Y695D01*
X2080Y695D01*
X2080Y691D01*
X2102Y691D01*
X2102Y695D01*
X2104Y695D01*
X2104Y697D01*
X2106Y697D01*
X2106Y699D01*
X2108Y699D01*
X2108Y701D01*
X2110Y701D01*
X2110Y703D01*
X2112Y703D01*
X2112Y705D01*
X2114Y705D01*
X2114Y707D01*
X2118Y707D01*
X2118Y709D01*
X2122Y709D01*
X2122Y711D01*
X2128Y711D01*
X2128Y713D01*
X2132Y713D01*
X2132Y725D01*
X2134Y725D01*
X2134Y735D01*
X2136Y735D01*
X2136Y739D01*
X2138Y739D01*
X2138Y741D01*
X2140Y741D01*
X2140Y743D01*
X2142Y743D01*
X2142Y745D01*
X2146Y745D01*
X2146Y747D01*
X2236Y747D01*
X2236Y749D01*
X2404Y749D01*
X2404Y751D01*
X1982Y751D01*
G37*
D02*
G36*
X844Y711D02*
X844Y707D01*
X842Y707D01*
X842Y703D01*
X840Y703D01*
X840Y701D01*
X838Y701D01*
X838Y699D01*
X836Y699D01*
X836Y697D01*
X834Y697D01*
X834Y695D01*
X832Y695D01*
X832Y693D01*
X830Y693D01*
X830Y691D01*
X826Y691D01*
X826Y689D01*
X822Y689D01*
X822Y687D01*
X814Y687D01*
X814Y685D01*
X1094Y685D01*
X1094Y711D01*
X844Y711D01*
G37*
D02*
G36*
X2906Y707D02*
X2906Y705D01*
X2904Y705D01*
X2904Y703D01*
X2902Y703D01*
X2902Y701D01*
X2900Y701D01*
X2900Y699D01*
X2898Y699D01*
X2898Y697D01*
X2896Y697D01*
X2896Y695D01*
X2894Y695D01*
X2894Y693D01*
X2892Y693D01*
X2892Y691D01*
X2890Y691D01*
X2890Y689D01*
X2888Y689D01*
X2888Y687D01*
X2886Y687D01*
X2886Y685D01*
X2884Y685D01*
X2884Y683D01*
X2882Y683D01*
X2882Y681D01*
X2878Y681D01*
X2878Y679D01*
X2726Y679D01*
X2726Y659D01*
X2728Y659D01*
X2728Y657D01*
X2730Y657D01*
X2730Y655D01*
X2732Y655D01*
X2732Y653D01*
X2734Y653D01*
X2734Y651D01*
X2736Y651D01*
X2736Y649D01*
X2738Y649D01*
X2738Y645D01*
X2740Y645D01*
X2740Y639D01*
X2742Y639D01*
X2742Y627D01*
X2740Y627D01*
X2740Y621D01*
X2738Y621D01*
X2738Y617D01*
X2736Y617D01*
X2736Y615D01*
X2734Y615D01*
X2734Y613D01*
X2732Y613D01*
X2732Y611D01*
X2730Y611D01*
X2730Y609D01*
X2728Y609D01*
X2728Y607D01*
X2724Y607D01*
X2724Y605D01*
X2718Y605D01*
X2718Y603D01*
X3000Y603D01*
X3000Y609D01*
X3022Y609D01*
X3022Y629D01*
X3018Y629D01*
X3018Y631D01*
X3016Y631D01*
X3016Y633D01*
X3014Y633D01*
X3014Y635D01*
X3012Y635D01*
X3012Y637D01*
X3010Y637D01*
X3010Y639D01*
X3008Y639D01*
X3008Y641D01*
X3006Y641D01*
X3006Y645D01*
X3004Y645D01*
X3004Y649D01*
X3002Y649D01*
X3002Y655D01*
X3000Y655D01*
X3000Y675D01*
X3002Y675D01*
X3002Y681D01*
X3004Y681D01*
X3004Y685D01*
X3006Y685D01*
X3006Y689D01*
X3008Y689D01*
X3008Y691D01*
X3010Y691D01*
X3010Y693D01*
X3012Y693D01*
X3012Y695D01*
X3014Y695D01*
X3014Y697D01*
X3016Y697D01*
X3016Y699D01*
X3020Y699D01*
X3020Y701D01*
X3022Y701D01*
X3022Y703D01*
X3028Y703D01*
X3028Y705D01*
X3036Y705D01*
X3036Y707D01*
X2906Y707D01*
G37*
D02*
G36*
X3044Y707D02*
X3044Y705D01*
X3054Y705D01*
X3054Y703D01*
X3060Y703D01*
X3060Y701D01*
X3062Y701D01*
X3062Y699D01*
X3066Y699D01*
X3066Y697D01*
X3068Y697D01*
X3068Y695D01*
X3070Y695D01*
X3070Y693D01*
X3072Y693D01*
X3072Y691D01*
X3074Y691D01*
X3074Y689D01*
X3076Y689D01*
X3076Y685D01*
X3078Y685D01*
X3078Y683D01*
X3304Y683D01*
X3304Y685D01*
X3306Y685D01*
X3306Y689D01*
X3308Y689D01*
X3308Y691D01*
X3310Y691D01*
X3310Y693D01*
X3312Y693D01*
X3312Y695D01*
X3314Y695D01*
X3314Y697D01*
X3316Y697D01*
X3316Y699D01*
X3320Y699D01*
X3320Y701D01*
X3322Y701D01*
X3322Y703D01*
X3328Y703D01*
X3328Y705D01*
X3336Y705D01*
X3336Y707D01*
X3044Y707D01*
G37*
D02*
G36*
X2522Y695D02*
X2522Y635D01*
X2578Y635D01*
X2578Y637D01*
X2572Y637D01*
X2572Y639D01*
X2568Y639D01*
X2568Y641D01*
X2566Y641D01*
X2566Y643D01*
X2564Y643D01*
X2564Y645D01*
X2562Y645D01*
X2562Y647D01*
X2560Y647D01*
X2560Y649D01*
X2558Y649D01*
X2558Y653D01*
X2556Y653D01*
X2556Y659D01*
X2554Y659D01*
X2554Y671D01*
X2556Y671D01*
X2556Y677D01*
X2558Y677D01*
X2558Y681D01*
X2560Y681D01*
X2560Y683D01*
X2562Y683D01*
X2562Y685D01*
X2564Y685D01*
X2564Y687D01*
X2566Y687D01*
X2566Y689D01*
X2568Y689D01*
X2568Y691D01*
X2572Y691D01*
X2572Y693D01*
X2578Y693D01*
X2578Y695D01*
X2522Y695D01*
G37*
D02*
G36*
X318Y685D02*
X318Y683D01*
X1094Y683D01*
X1094Y685D01*
X318Y685D01*
G37*
D02*
G36*
X318Y685D02*
X318Y683D01*
X1094Y683D01*
X1094Y685D01*
X318Y685D01*
G37*
D02*
G36*
X318Y683D02*
X318Y669D01*
X324Y669D01*
X324Y667D01*
X328Y667D01*
X328Y665D01*
X330Y665D01*
X330Y663D01*
X332Y663D01*
X332Y661D01*
X336Y661D01*
X336Y659D01*
X338Y659D01*
X338Y655D01*
X340Y655D01*
X340Y653D01*
X342Y653D01*
X342Y649D01*
X344Y649D01*
X344Y647D01*
X346Y647D01*
X346Y639D01*
X348Y639D01*
X348Y619D01*
X346Y619D01*
X346Y613D01*
X344Y613D01*
X344Y609D01*
X342Y609D01*
X342Y605D01*
X340Y605D01*
X340Y603D01*
X338Y603D01*
X338Y601D01*
X336Y601D01*
X336Y599D01*
X334Y599D01*
X334Y597D01*
X332Y597D01*
X332Y595D01*
X330Y595D01*
X330Y593D01*
X326Y593D01*
X326Y591D01*
X322Y591D01*
X322Y589D01*
X314Y589D01*
X314Y587D01*
X886Y587D01*
X886Y589D01*
X910Y589D01*
X910Y591D01*
X934Y591D01*
X934Y593D01*
X958Y593D01*
X958Y595D01*
X980Y595D01*
X980Y597D01*
X1004Y597D01*
X1004Y599D01*
X1028Y599D01*
X1028Y601D01*
X1052Y601D01*
X1052Y603D01*
X1094Y603D01*
X1094Y683D01*
X318Y683D01*
G37*
D02*
G36*
X2610Y653D02*
X2610Y649D01*
X2608Y649D01*
X2608Y647D01*
X2606Y647D01*
X2606Y645D01*
X2604Y645D01*
X2604Y643D01*
X2602Y643D01*
X2602Y641D01*
X2600Y641D01*
X2600Y639D01*
X2596Y639D01*
X2596Y637D01*
X2590Y637D01*
X2590Y635D01*
X2636Y635D01*
X2636Y637D01*
X2634Y637D01*
X2634Y639D01*
X2632Y639D01*
X2632Y643D01*
X2630Y643D01*
X2630Y653D01*
X2610Y653D01*
G37*
D02*
G36*
X2522Y635D02*
X2522Y633D01*
X2638Y633D01*
X2638Y635D01*
X2522Y635D01*
G37*
D02*
G36*
X2522Y635D02*
X2522Y633D01*
X2638Y633D01*
X2638Y635D01*
X2522Y635D01*
G37*
D02*
G36*
X2522Y633D02*
X2522Y603D01*
X2706Y603D01*
X2706Y605D01*
X2700Y605D01*
X2700Y607D01*
X2696Y607D01*
X2696Y609D01*
X2694Y609D01*
X2694Y611D01*
X2692Y611D01*
X2692Y613D01*
X2690Y613D01*
X2690Y615D01*
X2688Y615D01*
X2688Y617D01*
X2686Y617D01*
X2686Y621D01*
X2684Y621D01*
X2684Y627D01*
X2682Y627D01*
X2682Y631D01*
X2642Y631D01*
X2642Y633D01*
X2522Y633D01*
G37*
D02*
G36*
X2522Y603D02*
X2522Y601D01*
X3000Y601D01*
X3000Y603D01*
X2522Y603D01*
G37*
D02*
G36*
X2522Y603D02*
X2522Y601D01*
X3000Y601D01*
X3000Y603D01*
X2522Y603D01*
G37*
D02*
G36*
X2522Y601D02*
X2522Y567D01*
X2590Y567D01*
X2590Y565D01*
X2596Y565D01*
X2596Y563D01*
X2600Y563D01*
X2600Y561D01*
X2602Y561D01*
X2602Y559D01*
X2604Y559D01*
X2604Y557D01*
X2606Y557D01*
X2606Y555D01*
X2608Y555D01*
X2608Y553D01*
X2610Y553D01*
X2610Y549D01*
X2612Y549D01*
X2612Y543D01*
X2614Y543D01*
X2614Y531D01*
X2612Y531D01*
X2612Y525D01*
X2610Y525D01*
X2610Y521D01*
X2608Y521D01*
X2608Y519D01*
X2606Y519D01*
X2606Y517D01*
X2604Y517D01*
X2604Y515D01*
X2602Y515D01*
X2602Y513D01*
X2600Y513D01*
X2600Y511D01*
X2596Y511D01*
X2596Y509D01*
X2590Y509D01*
X2590Y507D01*
X2896Y507D01*
X2896Y509D01*
X2914Y509D01*
X2914Y511D01*
X2932Y511D01*
X2932Y513D01*
X2950Y513D01*
X2950Y515D01*
X2968Y515D01*
X2968Y517D01*
X2986Y517D01*
X2986Y519D01*
X3000Y519D01*
X3000Y601D01*
X2522Y601D01*
G37*
D02*
G36*
X40Y587D02*
X40Y585D01*
X864Y585D01*
X864Y587D01*
X40Y587D01*
G37*
D02*
G36*
X40Y587D02*
X40Y585D01*
X864Y585D01*
X864Y587D01*
X40Y587D01*
G37*
D02*
G36*
X40Y585D02*
X40Y507D01*
X144Y507D01*
X144Y505D01*
X154Y505D01*
X154Y503D01*
X160Y503D01*
X160Y501D01*
X162Y501D01*
X162Y499D01*
X166Y499D01*
X166Y497D01*
X168Y497D01*
X168Y495D01*
X170Y495D01*
X170Y493D01*
X172Y493D01*
X172Y491D01*
X174Y491D01*
X174Y489D01*
X176Y489D01*
X176Y485D01*
X178Y485D01*
X178Y481D01*
X180Y481D01*
X180Y475D01*
X182Y475D01*
X182Y455D01*
X180Y455D01*
X180Y449D01*
X178Y449D01*
X178Y445D01*
X176Y445D01*
X176Y441D01*
X174Y441D01*
X174Y439D01*
X172Y439D01*
X172Y437D01*
X170Y437D01*
X170Y435D01*
X168Y435D01*
X168Y433D01*
X166Y433D01*
X166Y431D01*
X162Y431D01*
X162Y429D01*
X160Y429D01*
X160Y409D01*
X182Y409D01*
X182Y325D01*
X358Y325D01*
X358Y337D01*
X356Y337D01*
X356Y389D01*
X354Y389D01*
X354Y441D01*
X352Y441D01*
X352Y491D01*
X350Y491D01*
X350Y533D01*
X352Y533D01*
X352Y537D01*
X354Y537D01*
X354Y539D01*
X356Y539D01*
X356Y541D01*
X360Y541D01*
X360Y543D01*
X370Y543D01*
X370Y545D01*
X392Y545D01*
X392Y547D01*
X416Y547D01*
X416Y549D01*
X440Y549D01*
X440Y551D01*
X464Y551D01*
X464Y553D01*
X486Y553D01*
X486Y555D01*
X510Y555D01*
X510Y557D01*
X534Y557D01*
X534Y559D01*
X558Y559D01*
X558Y561D01*
X580Y561D01*
X580Y563D01*
X604Y563D01*
X604Y565D01*
X628Y565D01*
X628Y567D01*
X652Y567D01*
X652Y569D01*
X676Y569D01*
X676Y571D01*
X698Y571D01*
X698Y573D01*
X722Y573D01*
X722Y575D01*
X746Y575D01*
X746Y577D01*
X770Y577D01*
X770Y579D01*
X792Y579D01*
X792Y581D01*
X816Y581D01*
X816Y583D01*
X840Y583D01*
X840Y585D01*
X40Y585D01*
G37*
D02*
G36*
X2522Y567D02*
X2522Y507D01*
X2578Y507D01*
X2578Y509D01*
X2572Y509D01*
X2572Y511D01*
X2568Y511D01*
X2568Y513D01*
X2566Y513D01*
X2566Y515D01*
X2564Y515D01*
X2564Y517D01*
X2562Y517D01*
X2562Y519D01*
X2560Y519D01*
X2560Y521D01*
X2558Y521D01*
X2558Y525D01*
X2556Y525D01*
X2556Y531D01*
X2554Y531D01*
X2554Y543D01*
X2556Y543D01*
X2556Y549D01*
X2558Y549D01*
X2558Y553D01*
X2560Y553D01*
X2560Y555D01*
X2562Y555D01*
X2562Y557D01*
X2564Y557D01*
X2564Y559D01*
X2566Y559D01*
X2566Y561D01*
X2568Y561D01*
X2568Y563D01*
X2572Y563D01*
X2572Y565D01*
X2578Y565D01*
X2578Y567D01*
X2522Y567D01*
G37*
D02*
G36*
X40Y507D02*
X40Y325D01*
X100Y325D01*
X100Y409D01*
X122Y409D01*
X122Y429D01*
X118Y429D01*
X118Y431D01*
X116Y431D01*
X116Y433D01*
X114Y433D01*
X114Y435D01*
X112Y435D01*
X112Y437D01*
X110Y437D01*
X110Y439D01*
X108Y439D01*
X108Y441D01*
X106Y441D01*
X106Y445D01*
X104Y445D01*
X104Y449D01*
X102Y449D01*
X102Y455D01*
X100Y455D01*
X100Y475D01*
X102Y475D01*
X102Y481D01*
X104Y481D01*
X104Y485D01*
X106Y485D01*
X106Y489D01*
X108Y489D01*
X108Y491D01*
X110Y491D01*
X110Y493D01*
X112Y493D01*
X112Y495D01*
X114Y495D01*
X114Y497D01*
X116Y497D01*
X116Y499D01*
X120Y499D01*
X120Y501D01*
X122Y501D01*
X122Y503D01*
X128Y503D01*
X128Y505D01*
X136Y505D01*
X136Y507D01*
X40Y507D01*
G37*
D02*
G36*
X2522Y507D02*
X2522Y505D01*
X2878Y505D01*
X2878Y507D01*
X2522Y507D01*
G37*
D02*
G36*
X2522Y507D02*
X2522Y505D01*
X2878Y505D01*
X2878Y507D01*
X2522Y507D01*
G37*
D02*
G36*
X2522Y505D02*
X2522Y487D01*
X2606Y487D01*
X2606Y485D01*
X2612Y485D01*
X2612Y483D01*
X2616Y483D01*
X2616Y481D01*
X2618Y481D01*
X2618Y479D01*
X2644Y479D01*
X2644Y481D01*
X2662Y481D01*
X2662Y483D01*
X2680Y483D01*
X2680Y485D01*
X2698Y485D01*
X2698Y487D01*
X2716Y487D01*
X2716Y489D01*
X2734Y489D01*
X2734Y491D01*
X2752Y491D01*
X2752Y493D01*
X2770Y493D01*
X2770Y495D01*
X2788Y495D01*
X2788Y497D01*
X2806Y497D01*
X2806Y499D01*
X2824Y499D01*
X2824Y501D01*
X2842Y501D01*
X2842Y503D01*
X2860Y503D01*
X2860Y505D01*
X2522Y505D01*
G37*
D02*
G36*
X2522Y487D02*
X2522Y475D01*
X2578Y475D01*
X2578Y477D01*
X2580Y477D01*
X2580Y479D01*
X2582Y479D01*
X2582Y481D01*
X2584Y481D01*
X2584Y483D01*
X2588Y483D01*
X2588Y485D01*
X2594Y485D01*
X2594Y487D01*
X2522Y487D01*
G37*
D02*
G36*
X40Y325D02*
X40Y323D01*
X358Y323D01*
X358Y325D01*
X40Y325D01*
G37*
D02*
G36*
X40Y325D02*
X40Y323D01*
X358Y323D01*
X358Y325D01*
X40Y325D01*
G37*
D02*
G36*
X40Y323D02*
X40Y139D01*
X930Y139D01*
X930Y141D01*
X924Y141D01*
X924Y143D01*
X920Y143D01*
X920Y145D01*
X918Y145D01*
X918Y147D01*
X916Y147D01*
X916Y149D01*
X914Y149D01*
X914Y151D01*
X912Y151D01*
X912Y153D01*
X910Y153D01*
X910Y157D01*
X906Y157D01*
X906Y159D01*
X898Y159D01*
X898Y161D01*
X890Y161D01*
X890Y163D01*
X884Y163D01*
X884Y165D01*
X876Y165D01*
X876Y167D01*
X868Y167D01*
X868Y169D01*
X860Y169D01*
X860Y171D01*
X852Y171D01*
X852Y173D01*
X844Y173D01*
X844Y175D01*
X836Y175D01*
X836Y177D01*
X828Y177D01*
X828Y179D01*
X820Y179D01*
X820Y181D01*
X814Y181D01*
X814Y183D01*
X806Y183D01*
X806Y185D01*
X798Y185D01*
X798Y187D01*
X790Y187D01*
X790Y189D01*
X782Y189D01*
X782Y191D01*
X774Y191D01*
X774Y193D01*
X766Y193D01*
X766Y195D01*
X758Y195D01*
X758Y197D01*
X750Y197D01*
X750Y199D01*
X744Y199D01*
X744Y201D01*
X736Y201D01*
X736Y203D01*
X728Y203D01*
X728Y205D01*
X720Y205D01*
X720Y207D01*
X712Y207D01*
X712Y209D01*
X704Y209D01*
X704Y211D01*
X696Y211D01*
X696Y213D01*
X688Y213D01*
X688Y215D01*
X680Y215D01*
X680Y217D01*
X674Y217D01*
X674Y219D01*
X666Y219D01*
X666Y221D01*
X658Y221D01*
X658Y223D01*
X650Y223D01*
X650Y225D01*
X642Y225D01*
X642Y227D01*
X634Y227D01*
X634Y229D01*
X626Y229D01*
X626Y231D01*
X618Y231D01*
X618Y233D01*
X610Y233D01*
X610Y235D01*
X604Y235D01*
X604Y237D01*
X596Y237D01*
X596Y239D01*
X588Y239D01*
X588Y241D01*
X580Y241D01*
X580Y243D01*
X572Y243D01*
X572Y245D01*
X564Y245D01*
X564Y247D01*
X556Y247D01*
X556Y249D01*
X548Y249D01*
X548Y251D01*
X540Y251D01*
X540Y253D01*
X534Y253D01*
X534Y255D01*
X526Y255D01*
X526Y257D01*
X518Y257D01*
X518Y259D01*
X510Y259D01*
X510Y261D01*
X502Y261D01*
X502Y263D01*
X494Y263D01*
X494Y265D01*
X486Y265D01*
X486Y267D01*
X478Y267D01*
X478Y269D01*
X470Y269D01*
X470Y271D01*
X464Y271D01*
X464Y273D01*
X456Y273D01*
X456Y275D01*
X448Y275D01*
X448Y277D01*
X440Y277D01*
X440Y279D01*
X432Y279D01*
X432Y281D01*
X424Y281D01*
X424Y283D01*
X416Y283D01*
X416Y285D01*
X408Y285D01*
X408Y287D01*
X400Y287D01*
X400Y289D01*
X394Y289D01*
X394Y291D01*
X386Y291D01*
X386Y293D01*
X378Y293D01*
X378Y295D01*
X370Y295D01*
X370Y297D01*
X366Y297D01*
X366Y299D01*
X364Y299D01*
X364Y301D01*
X362Y301D01*
X362Y303D01*
X360Y303D01*
X360Y307D01*
X358Y307D01*
X358Y323D01*
X40Y323D01*
G37*
D02*
G36*
X962Y157D02*
X962Y153D01*
X960Y153D01*
X960Y151D01*
X958Y151D01*
X958Y149D01*
X956Y149D01*
X956Y147D01*
X954Y147D01*
X954Y145D01*
X952Y145D01*
X952Y143D01*
X948Y143D01*
X948Y141D01*
X942Y141D01*
X942Y139D01*
X982Y139D01*
X982Y157D01*
X962Y157D01*
G37*
D02*
G36*
X40Y139D02*
X40Y137D01*
X982Y137D01*
X982Y139D01*
X40Y139D01*
G37*
D02*
G36*
X40Y139D02*
X40Y137D01*
X982Y137D01*
X982Y139D01*
X40Y139D01*
G37*
D02*
G36*
X40Y137D02*
X40Y41D01*
X988Y41D01*
X988Y61D01*
X986Y61D01*
X986Y63D01*
X984Y63D01*
X984Y67D01*
X982Y67D01*
X982Y137D01*
X40Y137D01*
G37*
D02*
G36*
X3788Y835D02*
X3788Y833D01*
X3786Y833D01*
X3786Y829D01*
X3784Y829D01*
X3784Y825D01*
X3782Y825D01*
X3782Y803D01*
X3780Y803D01*
X3780Y797D01*
X3778Y797D01*
X3778Y777D01*
X3816Y777D01*
X3816Y779D01*
X3818Y779D01*
X3818Y799D01*
X3816Y799D01*
X3816Y801D01*
X3814Y801D01*
X3814Y805D01*
X3812Y805D01*
X3812Y809D01*
X3810Y809D01*
X3810Y815D01*
X3808Y815D01*
X3808Y835D01*
X3788Y835D01*
G37*
D02*
G36*
X4688Y817D02*
X4688Y815D01*
X4678Y815D01*
X4678Y813D01*
X4666Y813D01*
X4666Y811D01*
X4656Y811D01*
X4656Y809D01*
X4646Y809D01*
X4646Y807D01*
X4636Y807D01*
X4636Y805D01*
X4626Y805D01*
X4626Y803D01*
X4616Y803D01*
X4616Y801D01*
X4606Y801D01*
X4606Y799D01*
X4596Y799D01*
X4596Y797D01*
X4586Y797D01*
X4586Y795D01*
X4574Y795D01*
X4574Y793D01*
X4564Y793D01*
X4564Y791D01*
X4554Y791D01*
X4554Y789D01*
X4544Y789D01*
X4544Y787D01*
X4534Y787D01*
X4534Y785D01*
X4524Y785D01*
X4524Y783D01*
X4514Y783D01*
X4514Y781D01*
X4504Y781D01*
X4504Y779D01*
X4494Y779D01*
X4494Y777D01*
X4484Y777D01*
X4484Y775D01*
X4472Y775D01*
X4472Y773D01*
X4462Y773D01*
X4462Y771D01*
X4452Y771D01*
X4452Y769D01*
X4442Y769D01*
X4442Y767D01*
X4432Y767D01*
X4432Y765D01*
X4422Y765D01*
X4422Y763D01*
X4412Y763D01*
X4412Y761D01*
X4402Y761D01*
X4402Y759D01*
X4392Y759D01*
X4392Y757D01*
X4388Y757D01*
X4388Y755D01*
X4386Y755D01*
X4386Y749D01*
X4384Y749D01*
X4384Y745D01*
X4382Y745D01*
X4382Y741D01*
X4380Y741D01*
X4380Y739D01*
X4378Y739D01*
X4378Y737D01*
X4376Y737D01*
X4376Y733D01*
X4374Y733D01*
X4374Y731D01*
X4370Y731D01*
X4370Y729D01*
X4368Y729D01*
X4368Y727D01*
X4366Y727D01*
X4366Y725D01*
X4362Y725D01*
X4362Y723D01*
X4356Y723D01*
X4356Y721D01*
X4350Y721D01*
X4350Y719D01*
X4670Y719D01*
X4670Y721D01*
X4672Y721D01*
X4672Y723D01*
X4674Y723D01*
X4674Y725D01*
X4676Y725D01*
X4676Y727D01*
X4678Y727D01*
X4678Y729D01*
X4680Y729D01*
X4680Y731D01*
X4682Y731D01*
X4682Y733D01*
X4684Y733D01*
X4684Y735D01*
X4686Y735D01*
X4686Y737D01*
X4688Y737D01*
X4688Y739D01*
X4690Y739D01*
X4690Y741D01*
X4692Y741D01*
X4692Y743D01*
X4694Y743D01*
X4694Y777D01*
X4696Y777D01*
X4696Y785D01*
X4698Y785D01*
X4698Y789D01*
X4700Y789D01*
X4700Y791D01*
X4702Y791D01*
X4702Y795D01*
X4704Y795D01*
X4704Y797D01*
X4706Y797D01*
X4706Y799D01*
X4708Y799D01*
X4708Y817D01*
X4688Y817D01*
G37*
D02*
G36*
X4278Y787D02*
X4278Y785D01*
X4276Y785D01*
X4276Y783D01*
X4270Y783D01*
X4270Y781D01*
X4262Y781D01*
X4262Y779D01*
X4242Y779D01*
X4242Y777D01*
X4238Y777D01*
X4238Y775D01*
X4220Y775D01*
X4220Y773D01*
X4194Y773D01*
X4194Y771D01*
X4170Y771D01*
X4170Y769D01*
X4144Y769D01*
X4144Y767D01*
X4120Y767D01*
X4120Y765D01*
X4094Y765D01*
X4094Y763D01*
X4070Y763D01*
X4070Y761D01*
X4044Y761D01*
X4044Y759D01*
X4018Y759D01*
X4018Y757D01*
X3994Y757D01*
X3994Y755D01*
X3968Y755D01*
X3968Y753D01*
X3944Y753D01*
X3944Y751D01*
X3918Y751D01*
X3918Y749D01*
X3894Y749D01*
X3894Y747D01*
X3868Y747D01*
X3868Y745D01*
X3842Y745D01*
X3842Y743D01*
X3818Y743D01*
X3818Y741D01*
X3792Y741D01*
X3792Y739D01*
X3768Y739D01*
X3768Y737D01*
X3742Y737D01*
X3742Y735D01*
X3718Y735D01*
X3718Y733D01*
X3692Y733D01*
X3692Y731D01*
X3666Y731D01*
X3666Y729D01*
X3642Y729D01*
X3642Y727D01*
X3616Y727D01*
X3616Y725D01*
X3592Y725D01*
X3592Y723D01*
X3566Y723D01*
X3566Y721D01*
X3542Y721D01*
X3542Y719D01*
X4332Y719D01*
X4332Y721D01*
X4324Y721D01*
X4324Y723D01*
X4320Y723D01*
X4320Y725D01*
X4316Y725D01*
X4316Y727D01*
X4314Y727D01*
X4314Y729D01*
X4310Y729D01*
X4310Y731D01*
X4308Y731D01*
X4308Y733D01*
X4306Y733D01*
X4306Y735D01*
X4304Y735D01*
X4304Y739D01*
X4302Y739D01*
X4302Y741D01*
X4300Y741D01*
X4300Y745D01*
X4298Y745D01*
X4298Y749D01*
X4296Y749D01*
X4296Y755D01*
X4294Y755D01*
X4294Y777D01*
X4296Y777D01*
X4296Y785D01*
X4298Y785D01*
X4298Y787D01*
X4278Y787D01*
G37*
D02*
G36*
X3538Y719D02*
X3538Y717D01*
X4668Y717D01*
X4668Y719D01*
X3538Y719D01*
G37*
D02*
G36*
X3538Y719D02*
X3538Y717D01*
X4668Y717D01*
X4668Y719D01*
X3538Y719D01*
G37*
D02*
G36*
X3538Y717D02*
X3538Y715D01*
X3536Y715D01*
X3536Y711D01*
X3534Y711D01*
X3534Y707D01*
X4144Y707D01*
X4144Y705D01*
X4154Y705D01*
X4154Y703D01*
X4160Y703D01*
X4160Y701D01*
X4162Y701D01*
X4162Y699D01*
X4166Y699D01*
X4166Y697D01*
X4168Y697D01*
X4168Y695D01*
X4170Y695D01*
X4170Y693D01*
X4172Y693D01*
X4172Y691D01*
X4174Y691D01*
X4174Y689D01*
X4176Y689D01*
X4176Y685D01*
X4178Y685D01*
X4178Y681D01*
X4180Y681D01*
X4180Y675D01*
X4182Y675D01*
X4182Y655D01*
X4180Y655D01*
X4180Y649D01*
X4178Y649D01*
X4178Y645D01*
X4176Y645D01*
X4176Y641D01*
X4174Y641D01*
X4174Y639D01*
X4172Y639D01*
X4172Y637D01*
X4170Y637D01*
X4170Y635D01*
X4168Y635D01*
X4168Y633D01*
X4166Y633D01*
X4166Y631D01*
X4162Y631D01*
X4162Y629D01*
X4160Y629D01*
X4160Y609D01*
X4182Y609D01*
X4182Y571D01*
X4232Y571D01*
X4232Y573D01*
X4298Y573D01*
X4298Y575D01*
X4362Y575D01*
X4362Y577D01*
X4428Y577D01*
X4428Y579D01*
X4494Y579D01*
X4494Y581D01*
X4558Y581D01*
X4558Y583D01*
X4600Y583D01*
X4600Y609D01*
X4622Y609D01*
X4622Y629D01*
X4618Y629D01*
X4618Y631D01*
X4616Y631D01*
X4616Y633D01*
X4614Y633D01*
X4614Y635D01*
X4612Y635D01*
X4612Y637D01*
X4610Y637D01*
X4610Y639D01*
X4608Y639D01*
X4608Y641D01*
X4606Y641D01*
X4606Y645D01*
X4604Y645D01*
X4604Y649D01*
X4602Y649D01*
X4602Y655D01*
X4600Y655D01*
X4600Y675D01*
X4602Y675D01*
X4602Y681D01*
X4604Y681D01*
X4604Y685D01*
X4606Y685D01*
X4606Y689D01*
X4608Y689D01*
X4608Y691D01*
X4610Y691D01*
X4610Y693D01*
X4612Y693D01*
X4612Y695D01*
X4614Y695D01*
X4614Y697D01*
X4616Y697D01*
X4616Y699D01*
X4620Y699D01*
X4620Y701D01*
X4622Y701D01*
X4622Y703D01*
X4628Y703D01*
X4628Y705D01*
X4636Y705D01*
X4636Y707D01*
X4658Y707D01*
X4658Y709D01*
X4660Y709D01*
X4660Y711D01*
X4662Y711D01*
X4662Y713D01*
X4664Y713D01*
X4664Y715D01*
X4666Y715D01*
X4666Y717D01*
X3538Y717D01*
G37*
D02*
G36*
X3532Y707D02*
X3532Y703D01*
X3530Y703D01*
X3530Y699D01*
X3528Y699D01*
X3528Y695D01*
X3582Y695D01*
X3582Y693D01*
X3588Y693D01*
X3588Y691D01*
X3592Y691D01*
X3592Y689D01*
X3594Y689D01*
X3594Y687D01*
X3596Y687D01*
X3596Y685D01*
X3598Y685D01*
X3598Y683D01*
X3600Y683D01*
X3600Y681D01*
X3602Y681D01*
X3602Y677D01*
X3604Y677D01*
X3604Y671D01*
X3606Y671D01*
X3606Y659D01*
X3604Y659D01*
X3604Y653D01*
X3602Y653D01*
X3602Y649D01*
X3600Y649D01*
X3600Y647D01*
X3758Y647D01*
X3758Y645D01*
X3764Y645D01*
X3764Y643D01*
X3768Y643D01*
X3768Y641D01*
X3770Y641D01*
X3770Y639D01*
X3772Y639D01*
X3772Y637D01*
X3774Y637D01*
X3774Y635D01*
X3776Y635D01*
X3776Y633D01*
X3778Y633D01*
X3778Y629D01*
X3780Y629D01*
X3780Y623D01*
X3782Y623D01*
X3782Y611D01*
X3780Y611D01*
X3780Y605D01*
X3778Y605D01*
X3778Y601D01*
X3776Y601D01*
X3776Y599D01*
X3774Y599D01*
X3774Y597D01*
X3772Y597D01*
X3772Y595D01*
X3770Y595D01*
X3770Y511D01*
X3772Y511D01*
X3772Y509D01*
X3774Y509D01*
X3774Y507D01*
X3776Y507D01*
X3776Y505D01*
X3778Y505D01*
X3778Y501D01*
X3780Y501D01*
X3780Y495D01*
X3782Y495D01*
X3782Y483D01*
X3780Y483D01*
X3780Y477D01*
X3778Y477D01*
X3778Y473D01*
X3776Y473D01*
X3776Y471D01*
X3774Y471D01*
X3774Y469D01*
X3772Y469D01*
X3772Y467D01*
X3770Y467D01*
X3770Y465D01*
X3768Y465D01*
X3768Y463D01*
X3764Y463D01*
X3764Y461D01*
X3758Y461D01*
X3758Y459D01*
X4134Y459D01*
X4134Y485D01*
X4024Y485D01*
X4024Y487D01*
X4014Y487D01*
X4014Y489D01*
X4004Y489D01*
X4004Y491D01*
X3994Y491D01*
X3994Y493D01*
X3984Y493D01*
X3984Y495D01*
X3976Y495D01*
X3976Y497D01*
X3966Y497D01*
X3966Y499D01*
X3956Y499D01*
X3956Y501D01*
X3946Y501D01*
X3946Y503D01*
X3936Y503D01*
X3936Y505D01*
X3926Y505D01*
X3926Y507D01*
X3916Y507D01*
X3916Y509D01*
X3906Y509D01*
X3906Y511D01*
X3896Y511D01*
X3896Y513D01*
X3886Y513D01*
X3886Y515D01*
X3876Y515D01*
X3876Y517D01*
X3868Y517D01*
X3868Y519D01*
X3858Y519D01*
X3858Y521D01*
X3854Y521D01*
X3854Y523D01*
X3852Y523D01*
X3852Y525D01*
X3800Y525D01*
X3800Y609D01*
X3822Y609D01*
X3822Y629D01*
X3818Y629D01*
X3818Y631D01*
X3816Y631D01*
X3816Y633D01*
X3814Y633D01*
X3814Y635D01*
X3812Y635D01*
X3812Y637D01*
X3810Y637D01*
X3810Y639D01*
X3808Y639D01*
X3808Y641D01*
X3806Y641D01*
X3806Y645D01*
X3804Y645D01*
X3804Y649D01*
X3802Y649D01*
X3802Y655D01*
X3800Y655D01*
X3800Y675D01*
X3802Y675D01*
X3802Y681D01*
X3804Y681D01*
X3804Y685D01*
X3806Y685D01*
X3806Y689D01*
X3808Y689D01*
X3808Y691D01*
X3810Y691D01*
X3810Y693D01*
X3812Y693D01*
X3812Y695D01*
X3814Y695D01*
X3814Y697D01*
X3816Y697D01*
X3816Y699D01*
X3820Y699D01*
X3820Y701D01*
X3822Y701D01*
X3822Y703D01*
X3828Y703D01*
X3828Y705D01*
X3836Y705D01*
X3836Y707D01*
X3532Y707D01*
G37*
D02*
G36*
X3844Y707D02*
X3844Y705D01*
X3854Y705D01*
X3854Y703D01*
X3860Y703D01*
X3860Y701D01*
X3862Y701D01*
X3862Y699D01*
X3866Y699D01*
X3866Y697D01*
X3868Y697D01*
X3868Y695D01*
X3870Y695D01*
X3870Y693D01*
X3872Y693D01*
X3872Y691D01*
X3874Y691D01*
X3874Y689D01*
X3876Y689D01*
X3876Y685D01*
X3878Y685D01*
X3878Y683D01*
X4104Y683D01*
X4104Y685D01*
X4106Y685D01*
X4106Y689D01*
X4108Y689D01*
X4108Y691D01*
X4110Y691D01*
X4110Y693D01*
X4112Y693D01*
X4112Y695D01*
X4114Y695D01*
X4114Y697D01*
X4116Y697D01*
X4116Y699D01*
X4120Y699D01*
X4120Y701D01*
X4122Y701D01*
X4122Y703D01*
X4128Y703D01*
X4128Y705D01*
X4136Y705D01*
X4136Y707D01*
X3844Y707D01*
G37*
D02*
G36*
X3526Y695D02*
X3526Y691D01*
X3524Y691D01*
X3524Y689D01*
X3522Y689D01*
X3522Y685D01*
X3520Y685D01*
X3520Y681D01*
X3518Y681D01*
X3518Y677D01*
X3516Y677D01*
X3516Y673D01*
X3514Y673D01*
X3514Y669D01*
X3512Y669D01*
X3512Y665D01*
X3510Y665D01*
X3510Y661D01*
X3508Y661D01*
X3508Y657D01*
X3506Y657D01*
X3506Y653D01*
X3504Y653D01*
X3504Y649D01*
X3502Y649D01*
X3502Y645D01*
X3500Y645D01*
X3500Y641D01*
X3498Y641D01*
X3498Y637D01*
X3496Y637D01*
X3496Y633D01*
X3494Y633D01*
X3494Y629D01*
X3492Y629D01*
X3492Y627D01*
X3490Y627D01*
X3490Y623D01*
X3488Y623D01*
X3488Y619D01*
X3486Y619D01*
X3486Y615D01*
X3484Y615D01*
X3484Y611D01*
X3482Y611D01*
X3482Y607D01*
X3480Y607D01*
X3480Y603D01*
X3478Y603D01*
X3478Y599D01*
X3476Y599D01*
X3476Y595D01*
X3474Y595D01*
X3474Y591D01*
X3472Y591D01*
X3472Y587D01*
X3470Y587D01*
X3470Y583D01*
X3468Y583D01*
X3468Y579D01*
X3466Y579D01*
X3466Y575D01*
X3464Y575D01*
X3464Y571D01*
X3462Y571D01*
X3462Y567D01*
X3460Y567D01*
X3460Y565D01*
X3458Y565D01*
X3458Y561D01*
X3456Y561D01*
X3456Y557D01*
X3454Y557D01*
X3454Y553D01*
X3452Y553D01*
X3452Y549D01*
X3450Y549D01*
X3450Y545D01*
X3448Y545D01*
X3448Y541D01*
X3446Y541D01*
X3446Y537D01*
X3444Y537D01*
X3444Y533D01*
X3442Y533D01*
X3442Y529D01*
X3440Y529D01*
X3440Y525D01*
X3438Y525D01*
X3438Y521D01*
X3436Y521D01*
X3436Y517D01*
X3434Y517D01*
X3434Y513D01*
X3432Y513D01*
X3432Y509D01*
X3430Y509D01*
X3430Y505D01*
X3428Y505D01*
X3428Y503D01*
X3426Y503D01*
X3426Y499D01*
X3424Y499D01*
X3424Y495D01*
X3422Y495D01*
X3422Y491D01*
X3420Y491D01*
X3420Y487D01*
X3418Y487D01*
X3418Y483D01*
X3416Y483D01*
X3416Y479D01*
X3414Y479D01*
X3414Y477D01*
X3412Y477D01*
X3412Y475D01*
X3410Y475D01*
X3410Y473D01*
X3406Y473D01*
X3406Y471D01*
X3400Y471D01*
X3400Y469D01*
X3392Y469D01*
X3392Y467D01*
X3386Y467D01*
X3386Y465D01*
X3380Y465D01*
X3380Y463D01*
X3372Y463D01*
X3372Y461D01*
X3366Y461D01*
X3366Y459D01*
X3360Y459D01*
X3360Y457D01*
X3352Y457D01*
X3352Y455D01*
X3346Y455D01*
X3346Y453D01*
X3340Y453D01*
X3340Y451D01*
X3332Y451D01*
X3332Y449D01*
X3326Y449D01*
X3326Y447D01*
X3320Y447D01*
X3320Y445D01*
X3312Y445D01*
X3312Y443D01*
X3306Y443D01*
X3306Y441D01*
X3300Y441D01*
X3300Y439D01*
X3292Y439D01*
X3292Y437D01*
X3286Y437D01*
X3286Y435D01*
X3280Y435D01*
X3280Y433D01*
X3272Y433D01*
X3272Y431D01*
X3268Y431D01*
X3268Y411D01*
X3558Y411D01*
X3558Y643D01*
X3556Y643D01*
X3556Y645D01*
X3554Y645D01*
X3554Y647D01*
X3552Y647D01*
X3552Y649D01*
X3550Y649D01*
X3550Y653D01*
X3548Y653D01*
X3548Y659D01*
X3546Y659D01*
X3546Y671D01*
X3548Y671D01*
X3548Y677D01*
X3550Y677D01*
X3550Y681D01*
X3552Y681D01*
X3552Y683D01*
X3554Y683D01*
X3554Y685D01*
X3556Y685D01*
X3556Y687D01*
X3558Y687D01*
X3558Y689D01*
X3560Y689D01*
X3560Y691D01*
X3564Y691D01*
X3564Y693D01*
X3570Y693D01*
X3570Y695D01*
X3526Y695D01*
G37*
D02*
G36*
X3598Y647D02*
X3598Y645D01*
X3596Y645D01*
X3596Y643D01*
X3594Y643D01*
X3594Y459D01*
X3746Y459D01*
X3746Y461D01*
X3740Y461D01*
X3740Y463D01*
X3736Y463D01*
X3736Y465D01*
X3734Y465D01*
X3734Y467D01*
X3732Y467D01*
X3732Y469D01*
X3730Y469D01*
X3730Y471D01*
X3728Y471D01*
X3728Y473D01*
X3726Y473D01*
X3726Y477D01*
X3724Y477D01*
X3724Y483D01*
X3722Y483D01*
X3722Y495D01*
X3724Y495D01*
X3724Y501D01*
X3726Y501D01*
X3726Y505D01*
X3728Y505D01*
X3728Y507D01*
X3730Y507D01*
X3730Y509D01*
X3732Y509D01*
X3732Y511D01*
X3734Y511D01*
X3734Y595D01*
X3732Y595D01*
X3732Y597D01*
X3730Y597D01*
X3730Y599D01*
X3728Y599D01*
X3728Y601D01*
X3726Y601D01*
X3726Y605D01*
X3724Y605D01*
X3724Y611D01*
X3722Y611D01*
X3722Y623D01*
X3724Y623D01*
X3724Y629D01*
X3726Y629D01*
X3726Y633D01*
X3728Y633D01*
X3728Y635D01*
X3730Y635D01*
X3730Y637D01*
X3732Y637D01*
X3732Y639D01*
X3734Y639D01*
X3734Y641D01*
X3736Y641D01*
X3736Y643D01*
X3740Y643D01*
X3740Y645D01*
X3746Y645D01*
X3746Y647D01*
X3598Y647D01*
G37*
D02*
G36*
X3594Y459D02*
X3594Y457D01*
X4134Y457D01*
X4134Y459D01*
X3594Y459D01*
G37*
D02*
G36*
X3594Y459D02*
X3594Y457D01*
X4134Y457D01*
X4134Y459D01*
X3594Y459D01*
G37*
D02*
G36*
X3594Y457D02*
X3594Y387D01*
X3592Y387D01*
X3592Y383D01*
X3590Y383D01*
X3590Y381D01*
X3588Y381D01*
X3588Y379D01*
X3586Y379D01*
X3586Y377D01*
X3582Y377D01*
X3582Y375D01*
X3072Y375D01*
X3072Y355D01*
X3118Y355D01*
X3118Y353D01*
X3162Y353D01*
X3162Y351D01*
X3206Y351D01*
X3206Y349D01*
X3250Y349D01*
X3250Y347D01*
X3902Y347D01*
X3902Y345D01*
X3910Y345D01*
X3910Y343D01*
X3918Y343D01*
X3918Y341D01*
X3926Y341D01*
X3926Y339D01*
X3934Y339D01*
X3934Y337D01*
X3942Y337D01*
X3942Y335D01*
X3950Y335D01*
X3950Y333D01*
X3958Y333D01*
X3958Y331D01*
X3964Y331D01*
X3964Y329D01*
X3972Y329D01*
X3972Y327D01*
X3980Y327D01*
X3980Y325D01*
X3988Y325D01*
X3988Y323D01*
X3996Y323D01*
X3996Y321D01*
X4004Y321D01*
X4004Y319D01*
X4012Y319D01*
X4012Y317D01*
X4020Y317D01*
X4020Y315D01*
X4028Y315D01*
X4028Y313D01*
X4036Y313D01*
X4036Y311D01*
X4044Y311D01*
X4044Y309D01*
X4052Y309D01*
X4052Y307D01*
X4058Y307D01*
X4058Y305D01*
X4066Y305D01*
X4066Y303D01*
X4074Y303D01*
X4074Y301D01*
X4100Y301D01*
X4100Y309D01*
X4126Y309D01*
X4126Y343D01*
X4128Y343D01*
X4128Y381D01*
X4130Y381D01*
X4130Y417D01*
X4132Y417D01*
X4132Y455D01*
X4134Y455D01*
X4134Y457D01*
X3594Y457D01*
G37*
D02*
G36*
X3278Y347D02*
X3278Y345D01*
X3282Y345D01*
X3282Y343D01*
X3284Y343D01*
X3284Y341D01*
X3286Y341D01*
X3286Y339D01*
X3288Y339D01*
X3288Y337D01*
X3292Y337D01*
X3292Y335D01*
X3294Y335D01*
X3294Y333D01*
X3296Y333D01*
X3296Y331D01*
X3298Y331D01*
X3298Y329D01*
X3300Y329D01*
X3300Y327D01*
X3302Y327D01*
X3302Y325D01*
X3304Y325D01*
X3304Y323D01*
X3306Y323D01*
X3306Y321D01*
X3308Y321D01*
X3308Y319D01*
X3310Y319D01*
X3310Y317D01*
X3314Y317D01*
X3314Y315D01*
X3316Y315D01*
X3316Y313D01*
X3318Y313D01*
X3318Y311D01*
X3320Y311D01*
X3320Y309D01*
X3382Y309D01*
X3382Y303D01*
X3422Y303D01*
X3422Y305D01*
X3444Y305D01*
X3444Y307D01*
X3466Y307D01*
X3466Y309D01*
X3488Y309D01*
X3488Y311D01*
X3510Y311D01*
X3510Y313D01*
X3532Y313D01*
X3532Y315D01*
X3554Y315D01*
X3554Y317D01*
X3576Y317D01*
X3576Y319D01*
X3598Y319D01*
X3598Y321D01*
X3620Y321D01*
X3620Y323D01*
X3642Y323D01*
X3642Y325D01*
X3664Y325D01*
X3664Y327D01*
X3686Y327D01*
X3686Y329D01*
X3708Y329D01*
X3708Y331D01*
X3730Y331D01*
X3730Y333D01*
X3752Y333D01*
X3752Y335D01*
X3774Y335D01*
X3774Y337D01*
X3796Y337D01*
X3796Y339D01*
X3818Y339D01*
X3818Y341D01*
X3840Y341D01*
X3840Y343D01*
X3862Y343D01*
X3862Y345D01*
X3884Y345D01*
X3884Y347D01*
X3278Y347D01*
G37*
D02*
G36*
X3078Y647D02*
X3078Y645D01*
X3076Y645D01*
X3076Y641D01*
X3074Y641D01*
X3074Y639D01*
X3072Y639D01*
X3072Y637D01*
X3070Y637D01*
X3070Y635D01*
X3068Y635D01*
X3068Y633D01*
X3066Y633D01*
X3066Y631D01*
X3062Y631D01*
X3062Y629D01*
X3060Y629D01*
X3060Y609D01*
X3082Y609D01*
X3082Y531D01*
X3112Y531D01*
X3112Y533D01*
X3130Y533D01*
X3130Y535D01*
X3148Y535D01*
X3148Y537D01*
X3166Y537D01*
X3166Y539D01*
X3184Y539D01*
X3184Y541D01*
X3202Y541D01*
X3202Y543D01*
X3220Y543D01*
X3220Y545D01*
X3238Y545D01*
X3238Y547D01*
X3256Y547D01*
X3256Y549D01*
X3274Y549D01*
X3274Y551D01*
X3292Y551D01*
X3292Y553D01*
X3300Y553D01*
X3300Y609D01*
X3322Y609D01*
X3322Y629D01*
X3318Y629D01*
X3318Y631D01*
X3316Y631D01*
X3316Y633D01*
X3314Y633D01*
X3314Y635D01*
X3312Y635D01*
X3312Y637D01*
X3310Y637D01*
X3310Y639D01*
X3308Y639D01*
X3308Y641D01*
X3306Y641D01*
X3306Y645D01*
X3304Y645D01*
X3304Y647D01*
X3078Y647D01*
G37*
D02*
G36*
X3878Y647D02*
X3878Y645D01*
X3876Y645D01*
X3876Y641D01*
X3874Y641D01*
X3874Y639D01*
X3872Y639D01*
X3872Y637D01*
X3870Y637D01*
X3870Y635D01*
X3868Y635D01*
X3868Y633D01*
X3866Y633D01*
X3866Y631D01*
X3862Y631D01*
X3862Y629D01*
X3860Y629D01*
X3860Y609D01*
X3882Y609D01*
X3882Y551D01*
X3890Y551D01*
X3890Y549D01*
X3900Y549D01*
X3900Y547D01*
X3910Y547D01*
X3910Y545D01*
X3920Y545D01*
X3920Y543D01*
X3930Y543D01*
X3930Y541D01*
X3940Y541D01*
X3940Y539D01*
X3950Y539D01*
X3950Y537D01*
X3960Y537D01*
X3960Y535D01*
X3968Y535D01*
X3968Y533D01*
X3978Y533D01*
X3978Y531D01*
X3988Y531D01*
X3988Y529D01*
X3998Y529D01*
X3998Y527D01*
X4008Y527D01*
X4008Y525D01*
X4018Y525D01*
X4018Y523D01*
X4028Y523D01*
X4028Y521D01*
X4100Y521D01*
X4100Y609D01*
X4122Y609D01*
X4122Y629D01*
X4118Y629D01*
X4118Y631D01*
X4116Y631D01*
X4116Y633D01*
X4114Y633D01*
X4114Y635D01*
X4112Y635D01*
X4112Y637D01*
X4110Y637D01*
X4110Y639D01*
X4108Y639D01*
X4108Y641D01*
X4106Y641D01*
X4106Y645D01*
X4104Y645D01*
X4104Y647D01*
X3878Y647D01*
G37*
D02*
G36*
X1280Y641D02*
X1280Y639D01*
X1278Y639D01*
X1278Y637D01*
X1276Y637D01*
X1276Y633D01*
X1274Y633D01*
X1274Y631D01*
X1270Y631D01*
X1270Y629D01*
X1268Y629D01*
X1268Y627D01*
X1266Y627D01*
X1266Y625D01*
X1262Y625D01*
X1262Y623D01*
X1256Y623D01*
X1256Y603D01*
X1324Y603D01*
X1324Y623D01*
X1320Y623D01*
X1320Y625D01*
X1316Y625D01*
X1316Y627D01*
X1314Y627D01*
X1314Y629D01*
X1310Y629D01*
X1310Y631D01*
X1308Y631D01*
X1308Y633D01*
X1306Y633D01*
X1306Y635D01*
X1304Y635D01*
X1304Y639D01*
X1302Y639D01*
X1302Y641D01*
X1280Y641D01*
G37*
D02*
G36*
X1480Y641D02*
X1480Y639D01*
X1478Y639D01*
X1478Y637D01*
X1476Y637D01*
X1476Y633D01*
X1474Y633D01*
X1474Y631D01*
X1470Y631D01*
X1470Y629D01*
X1468Y629D01*
X1468Y627D01*
X1466Y627D01*
X1466Y625D01*
X1462Y625D01*
X1462Y623D01*
X1456Y623D01*
X1456Y621D01*
X1452Y621D01*
X1452Y619D01*
X1532Y619D01*
X1532Y621D01*
X1524Y621D01*
X1524Y623D01*
X1520Y623D01*
X1520Y625D01*
X1516Y625D01*
X1516Y627D01*
X1514Y627D01*
X1514Y629D01*
X1510Y629D01*
X1510Y631D01*
X1508Y631D01*
X1508Y633D01*
X1506Y633D01*
X1506Y635D01*
X1504Y635D01*
X1504Y639D01*
X1502Y639D01*
X1502Y641D01*
X1480Y641D01*
G37*
D02*
G36*
X1580Y641D02*
X1580Y639D01*
X1578Y639D01*
X1578Y637D01*
X1576Y637D01*
X1576Y633D01*
X1574Y633D01*
X1574Y631D01*
X1570Y631D01*
X1570Y629D01*
X1568Y629D01*
X1568Y627D01*
X1566Y627D01*
X1566Y625D01*
X1562Y625D01*
X1562Y623D01*
X1556Y623D01*
X1556Y621D01*
X1550Y621D01*
X1550Y619D01*
X1632Y619D01*
X1632Y621D01*
X1624Y621D01*
X1624Y623D01*
X1620Y623D01*
X1620Y625D01*
X1616Y625D01*
X1616Y627D01*
X1614Y627D01*
X1614Y629D01*
X1610Y629D01*
X1610Y631D01*
X1608Y631D01*
X1608Y633D01*
X1606Y633D01*
X1606Y635D01*
X1604Y635D01*
X1604Y639D01*
X1602Y639D01*
X1602Y641D01*
X1580Y641D01*
G37*
D02*
G36*
X1680Y641D02*
X1680Y639D01*
X1678Y639D01*
X1678Y637D01*
X1676Y637D01*
X1676Y633D01*
X1674Y633D01*
X1674Y631D01*
X1670Y631D01*
X1670Y629D01*
X1668Y629D01*
X1668Y627D01*
X1666Y627D01*
X1666Y625D01*
X1662Y625D01*
X1662Y623D01*
X1656Y623D01*
X1656Y621D01*
X1650Y621D01*
X1650Y619D01*
X1732Y619D01*
X1732Y621D01*
X1724Y621D01*
X1724Y623D01*
X1720Y623D01*
X1720Y625D01*
X1716Y625D01*
X1716Y627D01*
X1714Y627D01*
X1714Y629D01*
X1710Y629D01*
X1710Y631D01*
X1708Y631D01*
X1708Y633D01*
X1706Y633D01*
X1706Y635D01*
X1704Y635D01*
X1704Y639D01*
X1702Y639D01*
X1702Y641D01*
X1680Y641D01*
G37*
D02*
G36*
X1780Y641D02*
X1780Y639D01*
X1778Y639D01*
X1778Y637D01*
X1776Y637D01*
X1776Y633D01*
X1774Y633D01*
X1774Y631D01*
X1770Y631D01*
X1770Y629D01*
X1768Y629D01*
X1768Y627D01*
X1766Y627D01*
X1766Y625D01*
X1762Y625D01*
X1762Y623D01*
X1756Y623D01*
X1756Y621D01*
X1750Y621D01*
X1750Y619D01*
X1824Y619D01*
X1824Y623D01*
X1820Y623D01*
X1820Y625D01*
X1816Y625D01*
X1816Y627D01*
X1814Y627D01*
X1814Y629D01*
X1810Y629D01*
X1810Y631D01*
X1808Y631D01*
X1808Y633D01*
X1806Y633D01*
X1806Y635D01*
X1804Y635D01*
X1804Y639D01*
X1802Y639D01*
X1802Y641D01*
X1780Y641D01*
G37*
D02*
G36*
X1452Y619D02*
X1452Y617D01*
X1824Y617D01*
X1824Y619D01*
X1452Y619D01*
G37*
D02*
G36*
X1452Y619D02*
X1452Y617D01*
X1824Y617D01*
X1824Y619D01*
X1452Y619D01*
G37*
D02*
G36*
X1452Y619D02*
X1452Y617D01*
X1824Y617D01*
X1824Y619D01*
X1452Y619D01*
G37*
D02*
G36*
X1452Y619D02*
X1452Y617D01*
X1824Y617D01*
X1824Y619D01*
X1452Y619D01*
G37*
D02*
G36*
X1452Y617D02*
X1452Y607D01*
X1450Y607D01*
X1450Y591D01*
X1448Y591D01*
X1448Y577D01*
X1446Y577D01*
X1446Y561D01*
X1444Y561D01*
X1444Y547D01*
X1442Y547D01*
X1442Y531D01*
X1440Y531D01*
X1440Y517D01*
X1438Y517D01*
X1438Y507D01*
X1544Y507D01*
X1544Y505D01*
X1554Y505D01*
X1554Y503D01*
X1560Y503D01*
X1560Y501D01*
X1562Y501D01*
X1562Y499D01*
X1566Y499D01*
X1566Y497D01*
X1568Y497D01*
X1568Y495D01*
X1570Y495D01*
X1570Y493D01*
X1572Y493D01*
X1572Y491D01*
X1574Y491D01*
X1574Y489D01*
X1576Y489D01*
X1576Y485D01*
X1578Y485D01*
X1578Y481D01*
X1580Y481D01*
X1580Y475D01*
X1582Y475D01*
X1582Y455D01*
X1580Y455D01*
X1580Y449D01*
X1578Y449D01*
X1578Y445D01*
X1598Y445D01*
X1598Y447D01*
X1600Y447D01*
X1600Y449D01*
X1602Y449D01*
X1602Y451D01*
X1604Y451D01*
X1604Y453D01*
X1606Y453D01*
X1606Y455D01*
X1608Y455D01*
X1608Y457D01*
X1610Y457D01*
X1610Y459D01*
X1612Y459D01*
X1612Y461D01*
X1614Y461D01*
X1614Y463D01*
X1616Y463D01*
X1616Y465D01*
X1618Y465D01*
X1618Y467D01*
X1620Y467D01*
X1620Y469D01*
X1622Y469D01*
X1622Y471D01*
X1624Y471D01*
X1624Y473D01*
X1626Y473D01*
X1626Y475D01*
X1628Y475D01*
X1628Y477D01*
X1630Y477D01*
X1630Y479D01*
X1632Y479D01*
X1632Y481D01*
X1634Y481D01*
X1634Y483D01*
X1638Y483D01*
X1638Y485D01*
X1640Y485D01*
X1640Y487D01*
X1642Y487D01*
X1642Y489D01*
X1644Y489D01*
X1644Y491D01*
X1646Y491D01*
X1646Y493D01*
X1648Y493D01*
X1648Y495D01*
X1650Y495D01*
X1650Y497D01*
X1652Y497D01*
X1652Y499D01*
X1654Y499D01*
X1654Y501D01*
X1656Y501D01*
X1656Y503D01*
X1658Y503D01*
X1658Y505D01*
X1660Y505D01*
X1660Y507D01*
X1662Y507D01*
X1662Y509D01*
X1664Y509D01*
X1664Y511D01*
X1666Y511D01*
X1666Y513D01*
X1668Y513D01*
X1668Y515D01*
X1670Y515D01*
X1670Y517D01*
X1672Y517D01*
X1672Y519D01*
X1674Y519D01*
X1674Y521D01*
X1676Y521D01*
X1676Y523D01*
X1678Y523D01*
X1678Y525D01*
X1680Y525D01*
X1680Y527D01*
X1682Y527D01*
X1682Y529D01*
X1684Y529D01*
X1684Y531D01*
X1686Y531D01*
X1686Y533D01*
X1690Y533D01*
X1690Y535D01*
X1692Y535D01*
X1692Y537D01*
X1694Y537D01*
X1694Y539D01*
X1696Y539D01*
X1696Y541D01*
X1698Y541D01*
X1698Y543D01*
X1700Y543D01*
X1700Y545D01*
X1702Y545D01*
X1702Y547D01*
X1704Y547D01*
X1704Y549D01*
X1706Y549D01*
X1706Y551D01*
X1708Y551D01*
X1708Y553D01*
X1710Y553D01*
X1710Y555D01*
X1712Y555D01*
X1712Y557D01*
X1714Y557D01*
X1714Y559D01*
X1716Y559D01*
X1716Y561D01*
X1718Y561D01*
X1718Y563D01*
X1720Y563D01*
X1720Y565D01*
X1722Y565D01*
X1722Y567D01*
X1724Y567D01*
X1724Y569D01*
X1726Y569D01*
X1726Y571D01*
X1728Y571D01*
X1728Y573D01*
X1730Y573D01*
X1730Y575D01*
X1732Y575D01*
X1732Y577D01*
X1734Y577D01*
X1734Y579D01*
X1736Y579D01*
X1736Y581D01*
X1738Y581D01*
X1738Y583D01*
X1740Y583D01*
X1740Y585D01*
X1744Y585D01*
X1744Y587D01*
X1746Y587D01*
X1746Y589D01*
X1748Y589D01*
X1748Y591D01*
X1750Y591D01*
X1750Y593D01*
X1752Y593D01*
X1752Y595D01*
X1754Y595D01*
X1754Y597D01*
X1756Y597D01*
X1756Y599D01*
X1758Y599D01*
X1758Y601D01*
X1762Y601D01*
X1762Y603D01*
X1824Y603D01*
X1824Y617D01*
X1452Y617D01*
G37*
D02*
G36*
X1438Y507D02*
X1438Y503D01*
X1436Y503D01*
X1436Y487D01*
X1434Y487D01*
X1434Y473D01*
X1432Y473D01*
X1432Y457D01*
X1430Y457D01*
X1430Y443D01*
X1428Y443D01*
X1428Y427D01*
X1426Y427D01*
X1426Y413D01*
X1424Y413D01*
X1424Y397D01*
X1422Y397D01*
X1422Y383D01*
X1420Y383D01*
X1420Y367D01*
X1418Y367D01*
X1418Y353D01*
X1416Y353D01*
X1416Y339D01*
X1414Y339D01*
X1414Y323D01*
X1412Y323D01*
X1412Y309D01*
X1410Y309D01*
X1410Y293D01*
X1408Y293D01*
X1408Y279D01*
X1406Y279D01*
X1406Y263D01*
X1404Y263D01*
X1404Y249D01*
X1402Y249D01*
X1402Y233D01*
X1400Y233D01*
X1400Y219D01*
X1398Y219D01*
X1398Y203D01*
X1396Y203D01*
X1396Y189D01*
X1394Y189D01*
X1394Y175D01*
X1392Y175D01*
X1392Y159D01*
X1390Y159D01*
X1390Y145D01*
X1388Y145D01*
X1388Y129D01*
X1386Y129D01*
X1386Y101D01*
X1390Y101D01*
X1390Y99D01*
X1396Y99D01*
X1396Y97D01*
X1420Y97D01*
X1420Y113D01*
X1418Y113D01*
X1418Y119D01*
X1416Y119D01*
X1416Y125D01*
X1414Y125D01*
X1414Y141D01*
X1416Y141D01*
X1416Y149D01*
X1418Y149D01*
X1418Y155D01*
X1420Y155D01*
X1420Y157D01*
X1422Y157D01*
X1422Y161D01*
X1424Y161D01*
X1424Y163D01*
X1426Y163D01*
X1426Y165D01*
X1428Y165D01*
X1428Y169D01*
X1432Y169D01*
X1432Y171D01*
X1434Y171D01*
X1434Y173D01*
X1436Y173D01*
X1436Y175D01*
X1440Y175D01*
X1440Y177D01*
X1444Y177D01*
X1444Y179D01*
X1452Y179D01*
X1452Y181D01*
X1460Y181D01*
X1460Y187D01*
X1462Y187D01*
X1462Y193D01*
X1464Y193D01*
X1464Y199D01*
X1466Y199D01*
X1466Y205D01*
X1468Y205D01*
X1468Y211D01*
X1470Y211D01*
X1470Y217D01*
X1472Y217D01*
X1472Y223D01*
X1474Y223D01*
X1474Y229D01*
X1476Y229D01*
X1476Y235D01*
X1478Y235D01*
X1478Y241D01*
X1480Y241D01*
X1480Y247D01*
X1482Y247D01*
X1482Y253D01*
X1484Y253D01*
X1484Y259D01*
X1486Y259D01*
X1486Y265D01*
X1488Y265D01*
X1488Y269D01*
X1490Y269D01*
X1490Y275D01*
X1492Y275D01*
X1492Y281D01*
X1494Y281D01*
X1494Y287D01*
X1496Y287D01*
X1496Y293D01*
X1498Y293D01*
X1498Y299D01*
X1500Y299D01*
X1500Y305D01*
X1502Y305D01*
X1502Y325D01*
X1500Y325D01*
X1500Y409D01*
X1522Y409D01*
X1522Y429D01*
X1518Y429D01*
X1518Y431D01*
X1516Y431D01*
X1516Y433D01*
X1514Y433D01*
X1514Y435D01*
X1512Y435D01*
X1512Y437D01*
X1510Y437D01*
X1510Y439D01*
X1508Y439D01*
X1508Y441D01*
X1506Y441D01*
X1506Y445D01*
X1504Y445D01*
X1504Y449D01*
X1502Y449D01*
X1502Y455D01*
X1500Y455D01*
X1500Y475D01*
X1502Y475D01*
X1502Y481D01*
X1504Y481D01*
X1504Y485D01*
X1506Y485D01*
X1506Y489D01*
X1508Y489D01*
X1508Y491D01*
X1510Y491D01*
X1510Y493D01*
X1512Y493D01*
X1512Y495D01*
X1514Y495D01*
X1514Y497D01*
X1516Y497D01*
X1516Y499D01*
X1520Y499D01*
X1520Y501D01*
X1522Y501D01*
X1522Y503D01*
X1528Y503D01*
X1528Y505D01*
X1536Y505D01*
X1536Y507D01*
X1438Y507D01*
G37*
D02*
G36*
X1880Y641D02*
X1880Y639D01*
X1878Y639D01*
X1878Y637D01*
X1876Y637D01*
X1876Y633D01*
X1874Y633D01*
X1874Y631D01*
X1870Y631D01*
X1870Y629D01*
X1868Y629D01*
X1868Y627D01*
X1866Y627D01*
X1866Y625D01*
X1862Y625D01*
X1862Y623D01*
X1856Y623D01*
X1856Y603D01*
X1924Y603D01*
X1924Y623D01*
X1920Y623D01*
X1920Y625D01*
X1916Y625D01*
X1916Y627D01*
X1914Y627D01*
X1914Y629D01*
X1910Y629D01*
X1910Y631D01*
X1908Y631D01*
X1908Y633D01*
X1906Y633D01*
X1906Y635D01*
X1904Y635D01*
X1904Y639D01*
X1902Y639D01*
X1902Y641D01*
X1880Y641D01*
G37*
D02*
G36*
X1980Y641D02*
X1980Y639D01*
X1978Y639D01*
X1978Y637D01*
X1976Y637D01*
X1976Y633D01*
X1974Y633D01*
X1974Y631D01*
X1970Y631D01*
X1970Y629D01*
X1968Y629D01*
X1968Y627D01*
X1966Y627D01*
X1966Y625D01*
X1962Y625D01*
X1962Y623D01*
X1956Y623D01*
X1956Y603D01*
X2024Y603D01*
X2024Y623D01*
X2020Y623D01*
X2020Y625D01*
X2016Y625D01*
X2016Y627D01*
X2014Y627D01*
X2014Y629D01*
X2010Y629D01*
X2010Y631D01*
X2008Y631D01*
X2008Y633D01*
X2006Y633D01*
X2006Y635D01*
X2004Y635D01*
X2004Y639D01*
X2002Y639D01*
X2002Y641D01*
X1980Y641D01*
G37*
D02*
G36*
X2080Y641D02*
X2080Y639D01*
X2078Y639D01*
X2078Y637D01*
X2076Y637D01*
X2076Y633D01*
X2074Y633D01*
X2074Y631D01*
X2070Y631D01*
X2070Y629D01*
X2068Y629D01*
X2068Y627D01*
X2066Y627D01*
X2066Y625D01*
X2062Y625D01*
X2062Y623D01*
X2056Y623D01*
X2056Y603D01*
X2124Y603D01*
X2124Y623D01*
X2120Y623D01*
X2120Y625D01*
X2116Y625D01*
X2116Y627D01*
X2114Y627D01*
X2114Y629D01*
X2110Y629D01*
X2110Y631D01*
X2108Y631D01*
X2108Y633D01*
X2106Y633D01*
X2106Y635D01*
X2104Y635D01*
X2104Y639D01*
X2102Y639D01*
X2102Y641D01*
X2080Y641D01*
G37*
D02*
G36*
X2280Y641D02*
X2280Y639D01*
X2278Y639D01*
X2278Y637D01*
X2276Y637D01*
X2276Y633D01*
X2274Y633D01*
X2274Y631D01*
X2270Y631D01*
X2270Y629D01*
X2268Y629D01*
X2268Y627D01*
X2266Y627D01*
X2266Y625D01*
X2262Y625D01*
X2262Y623D01*
X2256Y623D01*
X2256Y621D01*
X2250Y621D01*
X2250Y619D01*
X2332Y619D01*
X2332Y621D01*
X2324Y621D01*
X2324Y623D01*
X2320Y623D01*
X2320Y625D01*
X2316Y625D01*
X2316Y627D01*
X2314Y627D01*
X2314Y629D01*
X2310Y629D01*
X2310Y631D01*
X2308Y631D01*
X2308Y633D01*
X2306Y633D01*
X2306Y635D01*
X2304Y635D01*
X2304Y639D01*
X2302Y639D01*
X2302Y641D01*
X2280Y641D01*
G37*
D02*
G36*
X2380Y641D02*
X2380Y639D01*
X2378Y639D01*
X2378Y637D01*
X2376Y637D01*
X2376Y633D01*
X2374Y633D01*
X2374Y631D01*
X2370Y631D01*
X2370Y629D01*
X2368Y629D01*
X2368Y627D01*
X2366Y627D01*
X2366Y625D01*
X2362Y625D01*
X2362Y623D01*
X2356Y623D01*
X2356Y621D01*
X2350Y621D01*
X2350Y619D01*
X2432Y619D01*
X2432Y621D01*
X2424Y621D01*
X2424Y623D01*
X2420Y623D01*
X2420Y625D01*
X2416Y625D01*
X2416Y627D01*
X2414Y627D01*
X2414Y629D01*
X2410Y629D01*
X2410Y631D01*
X2408Y631D01*
X2408Y633D01*
X2406Y633D01*
X2406Y635D01*
X2404Y635D01*
X2404Y639D01*
X2402Y639D01*
X2402Y641D01*
X2380Y641D01*
G37*
D02*
G36*
X2466Y627D02*
X2466Y625D01*
X2462Y625D01*
X2462Y623D01*
X2456Y623D01*
X2456Y621D01*
X2450Y621D01*
X2450Y619D01*
X2486Y619D01*
X2486Y627D01*
X2466Y627D01*
G37*
D02*
G36*
X2228Y619D02*
X2228Y617D01*
X2486Y617D01*
X2486Y619D01*
X2228Y619D01*
G37*
D02*
G36*
X2228Y619D02*
X2228Y617D01*
X2486Y617D01*
X2486Y619D01*
X2228Y619D01*
G37*
D02*
G36*
X2228Y619D02*
X2228Y617D01*
X2486Y617D01*
X2486Y619D01*
X2228Y619D01*
G37*
D02*
G36*
X2228Y617D02*
X2228Y615D01*
X2226Y615D01*
X2226Y613D01*
X2224Y613D01*
X2224Y609D01*
X2222Y609D01*
X2222Y607D01*
X2220Y607D01*
X2220Y603D01*
X2218Y603D01*
X2218Y601D01*
X2216Y601D01*
X2216Y597D01*
X2214Y597D01*
X2214Y595D01*
X2212Y595D01*
X2212Y593D01*
X2210Y593D01*
X2210Y589D01*
X2208Y589D01*
X2208Y587D01*
X2206Y587D01*
X2206Y583D01*
X2204Y583D01*
X2204Y581D01*
X2202Y581D01*
X2202Y577D01*
X2200Y577D01*
X2200Y575D01*
X2198Y575D01*
X2198Y573D01*
X2196Y573D01*
X2196Y571D01*
X2194Y571D01*
X2194Y569D01*
X2190Y569D01*
X2190Y567D01*
X1774Y567D01*
X1774Y565D01*
X1772Y565D01*
X1772Y563D01*
X1770Y563D01*
X1770Y561D01*
X1768Y561D01*
X1768Y559D01*
X1766Y559D01*
X1766Y557D01*
X1764Y557D01*
X1764Y555D01*
X1762Y555D01*
X1762Y553D01*
X1760Y553D01*
X1760Y551D01*
X1758Y551D01*
X1758Y549D01*
X1756Y549D01*
X1756Y547D01*
X1754Y547D01*
X1754Y545D01*
X1752Y545D01*
X1752Y543D01*
X1750Y543D01*
X1750Y541D01*
X1748Y541D01*
X1748Y539D01*
X2206Y539D01*
X2206Y537D01*
X2210Y537D01*
X2210Y535D01*
X2212Y535D01*
X2212Y533D01*
X2214Y533D01*
X2214Y531D01*
X2216Y531D01*
X2216Y527D01*
X2218Y527D01*
X2218Y507D01*
X2444Y507D01*
X2444Y505D01*
X2454Y505D01*
X2454Y503D01*
X2460Y503D01*
X2460Y501D01*
X2462Y501D01*
X2462Y499D01*
X2466Y499D01*
X2466Y497D01*
X2486Y497D01*
X2486Y617D01*
X2228Y617D01*
G37*
D02*
G36*
X1746Y539D02*
X1746Y537D01*
X1744Y537D01*
X1744Y535D01*
X1740Y535D01*
X1740Y533D01*
X1738Y533D01*
X1738Y531D01*
X1736Y531D01*
X1736Y529D01*
X1734Y529D01*
X1734Y527D01*
X1732Y527D01*
X1732Y525D01*
X1730Y525D01*
X1730Y523D01*
X1728Y523D01*
X1728Y521D01*
X1726Y521D01*
X1726Y519D01*
X1724Y519D01*
X1724Y517D01*
X1722Y517D01*
X1722Y515D01*
X1720Y515D01*
X1720Y513D01*
X1718Y513D01*
X1718Y511D01*
X1716Y511D01*
X1716Y509D01*
X1714Y509D01*
X1714Y507D01*
X1712Y507D01*
X1712Y505D01*
X1710Y505D01*
X1710Y503D01*
X1708Y503D01*
X1708Y501D01*
X1706Y501D01*
X1706Y499D01*
X1704Y499D01*
X1704Y497D01*
X1702Y497D01*
X1702Y495D01*
X1700Y495D01*
X1700Y493D01*
X1698Y493D01*
X1698Y491D01*
X1696Y491D01*
X1696Y489D01*
X1694Y489D01*
X1694Y487D01*
X1692Y487D01*
X1692Y485D01*
X1688Y485D01*
X1688Y483D01*
X1686Y483D01*
X1686Y481D01*
X1684Y481D01*
X1684Y479D01*
X1682Y479D01*
X1682Y477D01*
X1680Y477D01*
X1680Y475D01*
X1678Y475D01*
X1678Y473D01*
X1676Y473D01*
X1676Y471D01*
X1674Y471D01*
X1674Y469D01*
X1672Y469D01*
X1672Y467D01*
X1670Y467D01*
X1670Y465D01*
X1668Y465D01*
X1668Y463D01*
X1666Y463D01*
X1666Y461D01*
X1664Y461D01*
X1664Y459D01*
X1662Y459D01*
X1662Y457D01*
X1660Y457D01*
X1660Y455D01*
X1658Y455D01*
X1658Y453D01*
X1656Y453D01*
X1656Y451D01*
X1654Y451D01*
X1654Y449D01*
X1652Y449D01*
X1652Y447D01*
X1650Y447D01*
X1650Y445D01*
X1648Y445D01*
X1648Y443D01*
X1646Y443D01*
X1646Y441D01*
X1644Y441D01*
X1644Y439D01*
X1642Y439D01*
X1642Y437D01*
X1640Y437D01*
X1640Y435D01*
X1636Y435D01*
X1636Y433D01*
X1634Y433D01*
X1634Y431D01*
X1632Y431D01*
X1632Y429D01*
X1630Y429D01*
X1630Y427D01*
X1628Y427D01*
X1628Y425D01*
X1626Y425D01*
X1626Y423D01*
X1624Y423D01*
X1624Y421D01*
X1622Y421D01*
X1622Y419D01*
X1620Y419D01*
X1620Y417D01*
X1618Y417D01*
X1618Y415D01*
X1616Y415D01*
X1616Y413D01*
X1614Y413D01*
X1614Y411D01*
X1612Y411D01*
X1612Y409D01*
X1610Y409D01*
X1610Y407D01*
X1608Y407D01*
X1608Y405D01*
X1606Y405D01*
X1606Y403D01*
X1604Y403D01*
X1604Y401D01*
X1602Y401D01*
X1602Y399D01*
X1600Y399D01*
X1600Y397D01*
X1598Y397D01*
X1598Y395D01*
X1596Y395D01*
X1596Y393D01*
X1594Y393D01*
X1594Y391D01*
X1592Y391D01*
X1592Y389D01*
X1590Y389D01*
X1590Y387D01*
X1588Y387D01*
X1588Y385D01*
X1586Y385D01*
X1586Y383D01*
X1582Y383D01*
X1582Y325D01*
X1546Y325D01*
X1546Y323D01*
X1544Y323D01*
X1544Y317D01*
X1542Y317D01*
X1542Y311D01*
X1540Y311D01*
X1540Y305D01*
X1538Y305D01*
X1538Y299D01*
X1536Y299D01*
X1536Y293D01*
X1534Y293D01*
X1534Y287D01*
X1532Y287D01*
X1532Y281D01*
X1530Y281D01*
X1530Y275D01*
X1528Y275D01*
X1528Y269D01*
X1526Y269D01*
X1526Y263D01*
X1524Y263D01*
X1524Y257D01*
X1522Y257D01*
X1522Y253D01*
X1520Y253D01*
X1520Y247D01*
X1518Y247D01*
X1518Y241D01*
X1516Y241D01*
X1516Y235D01*
X1514Y235D01*
X1514Y229D01*
X1512Y229D01*
X1512Y223D01*
X1510Y223D01*
X1510Y217D01*
X1508Y217D01*
X1508Y211D01*
X1506Y211D01*
X1506Y205D01*
X1504Y205D01*
X1504Y199D01*
X1502Y199D01*
X1502Y193D01*
X1500Y193D01*
X1500Y187D01*
X1498Y187D01*
X1498Y163D01*
X1500Y163D01*
X1500Y161D01*
X1502Y161D01*
X1502Y157D01*
X1504Y157D01*
X1504Y153D01*
X1506Y153D01*
X1506Y147D01*
X1508Y147D01*
X1508Y137D01*
X1510Y137D01*
X1510Y131D01*
X1508Y131D01*
X1508Y121D01*
X1506Y121D01*
X1506Y115D01*
X1504Y115D01*
X1504Y111D01*
X1502Y111D01*
X1502Y107D01*
X1500Y107D01*
X1500Y87D01*
X1532Y87D01*
X1532Y89D01*
X1542Y89D01*
X1542Y239D01*
X1544Y239D01*
X1544Y243D01*
X1546Y243D01*
X1546Y245D01*
X1548Y245D01*
X1548Y249D01*
X1550Y249D01*
X1550Y251D01*
X1552Y251D01*
X1552Y253D01*
X1554Y253D01*
X1554Y257D01*
X1556Y257D01*
X1556Y259D01*
X1558Y259D01*
X1558Y263D01*
X1560Y263D01*
X1560Y265D01*
X1562Y265D01*
X1562Y267D01*
X1564Y267D01*
X1564Y271D01*
X1566Y271D01*
X1566Y273D01*
X1568Y273D01*
X1568Y275D01*
X1570Y275D01*
X1570Y279D01*
X1572Y279D01*
X1572Y281D01*
X1574Y281D01*
X1574Y285D01*
X1576Y285D01*
X1576Y287D01*
X1578Y287D01*
X1578Y289D01*
X1580Y289D01*
X1580Y293D01*
X1582Y293D01*
X1582Y295D01*
X1584Y295D01*
X1584Y297D01*
X1586Y297D01*
X1586Y301D01*
X1588Y301D01*
X1588Y303D01*
X1590Y303D01*
X1590Y305D01*
X1592Y305D01*
X1592Y309D01*
X1594Y309D01*
X1594Y311D01*
X1596Y311D01*
X1596Y315D01*
X1598Y315D01*
X1598Y317D01*
X1600Y317D01*
X1600Y319D01*
X1602Y319D01*
X1602Y323D01*
X1604Y323D01*
X1604Y325D01*
X1606Y325D01*
X1606Y327D01*
X1608Y327D01*
X1608Y331D01*
X1610Y331D01*
X1610Y333D01*
X1612Y333D01*
X1612Y337D01*
X1614Y337D01*
X1614Y339D01*
X1616Y339D01*
X1616Y341D01*
X1618Y341D01*
X1618Y345D01*
X1620Y345D01*
X1620Y347D01*
X1622Y347D01*
X1622Y349D01*
X1624Y349D01*
X1624Y353D01*
X1626Y353D01*
X1626Y355D01*
X1628Y355D01*
X1628Y357D01*
X1630Y357D01*
X1630Y361D01*
X1632Y361D01*
X1632Y363D01*
X1634Y363D01*
X1634Y367D01*
X1636Y367D01*
X1636Y369D01*
X1638Y369D01*
X1638Y371D01*
X1640Y371D01*
X1640Y375D01*
X1642Y375D01*
X1642Y377D01*
X1644Y377D01*
X1644Y379D01*
X1646Y379D01*
X1646Y383D01*
X1648Y383D01*
X1648Y385D01*
X1650Y385D01*
X1650Y389D01*
X1652Y389D01*
X1652Y391D01*
X1654Y391D01*
X1654Y393D01*
X1656Y393D01*
X1656Y397D01*
X1658Y397D01*
X1658Y399D01*
X1660Y399D01*
X1660Y401D01*
X1662Y401D01*
X1662Y405D01*
X1664Y405D01*
X1664Y407D01*
X1666Y407D01*
X1666Y409D01*
X1668Y409D01*
X1668Y413D01*
X1670Y413D01*
X1670Y415D01*
X1672Y415D01*
X1672Y419D01*
X1674Y419D01*
X1674Y421D01*
X1676Y421D01*
X1676Y423D01*
X1678Y423D01*
X1678Y427D01*
X1680Y427D01*
X1680Y429D01*
X1682Y429D01*
X1682Y431D01*
X1684Y431D01*
X1684Y435D01*
X1686Y435D01*
X1686Y437D01*
X1688Y437D01*
X1688Y441D01*
X1690Y441D01*
X1690Y443D01*
X1692Y443D01*
X1692Y445D01*
X1694Y445D01*
X1694Y449D01*
X1696Y449D01*
X1696Y451D01*
X1698Y451D01*
X1698Y453D01*
X1700Y453D01*
X1700Y455D01*
X1702Y455D01*
X1702Y457D01*
X1704Y457D01*
X1704Y459D01*
X1706Y459D01*
X1706Y461D01*
X1708Y461D01*
X1708Y463D01*
X1710Y463D01*
X1710Y465D01*
X1712Y465D01*
X1712Y467D01*
X1714Y467D01*
X1714Y469D01*
X1718Y469D01*
X1718Y471D01*
X1720Y471D01*
X1720Y473D01*
X1722Y473D01*
X1722Y475D01*
X1724Y475D01*
X1724Y477D01*
X1726Y477D01*
X1726Y479D01*
X1728Y479D01*
X1728Y481D01*
X1730Y481D01*
X1730Y483D01*
X1732Y483D01*
X1732Y485D01*
X1734Y485D01*
X1734Y487D01*
X1736Y487D01*
X1736Y489D01*
X1740Y489D01*
X1740Y491D01*
X1742Y491D01*
X1742Y493D01*
X1744Y493D01*
X1744Y495D01*
X1746Y495D01*
X1746Y497D01*
X1748Y497D01*
X1748Y499D01*
X1750Y499D01*
X1750Y501D01*
X1752Y501D01*
X1752Y503D01*
X1754Y503D01*
X1754Y505D01*
X1756Y505D01*
X1756Y507D01*
X1758Y507D01*
X1758Y509D01*
X1762Y509D01*
X1762Y511D01*
X1764Y511D01*
X1764Y513D01*
X1766Y513D01*
X1766Y515D01*
X1768Y515D01*
X1768Y517D01*
X1770Y517D01*
X1770Y519D01*
X1772Y519D01*
X1772Y521D01*
X1774Y521D01*
X1774Y523D01*
X1776Y523D01*
X1776Y525D01*
X1778Y525D01*
X1778Y527D01*
X1780Y527D01*
X1780Y529D01*
X1784Y529D01*
X1784Y531D01*
X1786Y531D01*
X1786Y533D01*
X1788Y533D01*
X1788Y535D01*
X1790Y535D01*
X1790Y537D01*
X1794Y537D01*
X1794Y539D01*
X1746Y539D01*
G37*
D02*
G36*
X2218Y507D02*
X2218Y409D01*
X2228Y409D01*
X2228Y407D01*
X2246Y407D01*
X2246Y405D01*
X2264Y405D01*
X2264Y403D01*
X2282Y403D01*
X2282Y401D01*
X2300Y401D01*
X2300Y399D01*
X2320Y399D01*
X2320Y397D01*
X2338Y397D01*
X2338Y395D01*
X2356Y395D01*
X2356Y393D01*
X2374Y393D01*
X2374Y391D01*
X2400Y391D01*
X2400Y409D01*
X2422Y409D01*
X2422Y429D01*
X2418Y429D01*
X2418Y431D01*
X2416Y431D01*
X2416Y433D01*
X2414Y433D01*
X2414Y435D01*
X2412Y435D01*
X2412Y437D01*
X2410Y437D01*
X2410Y439D01*
X2408Y439D01*
X2408Y441D01*
X2406Y441D01*
X2406Y445D01*
X2404Y445D01*
X2404Y449D01*
X2402Y449D01*
X2402Y455D01*
X2400Y455D01*
X2400Y475D01*
X2402Y475D01*
X2402Y481D01*
X2404Y481D01*
X2404Y485D01*
X2406Y485D01*
X2406Y489D01*
X2408Y489D01*
X2408Y491D01*
X2410Y491D01*
X2410Y493D01*
X2412Y493D01*
X2412Y495D01*
X2414Y495D01*
X2414Y497D01*
X2416Y497D01*
X2416Y499D01*
X2420Y499D01*
X2420Y501D01*
X2422Y501D01*
X2422Y503D01*
X2428Y503D01*
X2428Y505D01*
X2436Y505D01*
X2436Y507D01*
X2218Y507D01*
G37*
D02*
G36*
X1380Y641D02*
X1380Y639D01*
X1378Y639D01*
X1378Y637D01*
X1376Y637D01*
X1376Y615D01*
X1378Y615D01*
X1378Y609D01*
X1380Y609D01*
X1380Y603D01*
X1382Y603D01*
X1382Y597D01*
X1384Y597D01*
X1384Y591D01*
X1386Y591D01*
X1386Y579D01*
X1384Y579D01*
X1384Y575D01*
X1382Y575D01*
X1382Y573D01*
X1380Y573D01*
X1380Y571D01*
X1378Y571D01*
X1378Y569D01*
X1374Y569D01*
X1374Y567D01*
X1140Y567D01*
X1140Y543D01*
X1142Y543D01*
X1142Y531D01*
X1140Y531D01*
X1140Y525D01*
X1138Y525D01*
X1138Y521D01*
X1136Y521D01*
X1136Y519D01*
X1134Y519D01*
X1134Y517D01*
X1132Y517D01*
X1132Y515D01*
X1130Y515D01*
X1130Y513D01*
X1128Y513D01*
X1128Y511D01*
X1124Y511D01*
X1124Y509D01*
X1118Y509D01*
X1118Y507D01*
X1402Y507D01*
X1402Y519D01*
X1404Y519D01*
X1404Y535D01*
X1406Y535D01*
X1406Y549D01*
X1408Y549D01*
X1408Y565D01*
X1410Y565D01*
X1410Y579D01*
X1412Y579D01*
X1412Y593D01*
X1414Y593D01*
X1414Y629D01*
X1410Y629D01*
X1410Y631D01*
X1408Y631D01*
X1408Y633D01*
X1406Y633D01*
X1406Y635D01*
X1404Y635D01*
X1404Y639D01*
X1402Y639D01*
X1402Y641D01*
X1380Y641D01*
G37*
D02*
G36*
X1054Y567D02*
X1054Y565D01*
X1030Y565D01*
X1030Y563D01*
X1006Y563D01*
X1006Y561D01*
X982Y561D01*
X982Y559D01*
X958Y559D01*
X958Y557D01*
X936Y557D01*
X936Y555D01*
X912Y555D01*
X912Y553D01*
X888Y553D01*
X888Y551D01*
X864Y551D01*
X864Y549D01*
X842Y549D01*
X842Y547D01*
X818Y547D01*
X818Y545D01*
X794Y545D01*
X794Y543D01*
X770Y543D01*
X770Y541D01*
X748Y541D01*
X748Y539D01*
X724Y539D01*
X724Y537D01*
X700Y537D01*
X700Y535D01*
X676Y535D01*
X676Y533D01*
X654Y533D01*
X654Y531D01*
X630Y531D01*
X630Y529D01*
X606Y529D01*
X606Y527D01*
X582Y527D01*
X582Y525D01*
X558Y525D01*
X558Y523D01*
X536Y523D01*
X536Y521D01*
X512Y521D01*
X512Y519D01*
X488Y519D01*
X488Y517D01*
X466Y517D01*
X466Y507D01*
X744Y507D01*
X744Y505D01*
X754Y505D01*
X754Y503D01*
X760Y503D01*
X760Y501D01*
X762Y501D01*
X762Y499D01*
X766Y499D01*
X766Y497D01*
X768Y497D01*
X768Y495D01*
X770Y495D01*
X770Y493D01*
X772Y493D01*
X772Y491D01*
X774Y491D01*
X774Y489D01*
X776Y489D01*
X776Y485D01*
X778Y485D01*
X778Y483D01*
X1004Y483D01*
X1004Y485D01*
X1006Y485D01*
X1006Y489D01*
X1008Y489D01*
X1008Y491D01*
X1010Y491D01*
X1010Y493D01*
X1012Y493D01*
X1012Y495D01*
X1014Y495D01*
X1014Y497D01*
X1016Y497D01*
X1016Y499D01*
X1020Y499D01*
X1020Y501D01*
X1022Y501D01*
X1022Y503D01*
X1028Y503D01*
X1028Y505D01*
X1036Y505D01*
X1036Y507D01*
X1106Y507D01*
X1106Y509D01*
X1100Y509D01*
X1100Y511D01*
X1096Y511D01*
X1096Y513D01*
X1094Y513D01*
X1094Y515D01*
X1092Y515D01*
X1092Y517D01*
X1090Y517D01*
X1090Y519D01*
X1088Y519D01*
X1088Y521D01*
X1086Y521D01*
X1086Y525D01*
X1084Y525D01*
X1084Y531D01*
X1082Y531D01*
X1082Y543D01*
X1084Y543D01*
X1084Y567D01*
X1054Y567D01*
G37*
D02*
G36*
X466Y507D02*
X466Y497D01*
X468Y497D01*
X468Y495D01*
X470Y495D01*
X470Y493D01*
X472Y493D01*
X472Y491D01*
X474Y491D01*
X474Y489D01*
X476Y489D01*
X476Y485D01*
X478Y485D01*
X478Y483D01*
X704Y483D01*
X704Y485D01*
X706Y485D01*
X706Y489D01*
X708Y489D01*
X708Y491D01*
X710Y491D01*
X710Y493D01*
X712Y493D01*
X712Y495D01*
X714Y495D01*
X714Y497D01*
X716Y497D01*
X716Y499D01*
X720Y499D01*
X720Y501D01*
X722Y501D01*
X722Y503D01*
X728Y503D01*
X728Y505D01*
X736Y505D01*
X736Y507D01*
X466Y507D01*
G37*
D02*
G36*
X1044Y507D02*
X1044Y505D01*
X1402Y505D01*
X1402Y507D01*
X1044Y507D01*
G37*
D02*
G36*
X1044Y507D02*
X1044Y505D01*
X1402Y505D01*
X1402Y507D01*
X1044Y507D01*
G37*
D02*
G36*
X1054Y505D02*
X1054Y503D01*
X1060Y503D01*
X1060Y501D01*
X1062Y501D01*
X1062Y499D01*
X1066Y499D01*
X1066Y497D01*
X1068Y497D01*
X1068Y495D01*
X1070Y495D01*
X1070Y493D01*
X1072Y493D01*
X1072Y491D01*
X1074Y491D01*
X1074Y489D01*
X1076Y489D01*
X1076Y485D01*
X1078Y485D01*
X1078Y481D01*
X1080Y481D01*
X1080Y475D01*
X1082Y475D01*
X1082Y471D01*
X1342Y471D01*
X1342Y469D01*
X1348Y469D01*
X1348Y467D01*
X1352Y467D01*
X1352Y465D01*
X1354Y465D01*
X1354Y463D01*
X1356Y463D01*
X1356Y461D01*
X1358Y461D01*
X1358Y459D01*
X1360Y459D01*
X1360Y457D01*
X1362Y457D01*
X1362Y453D01*
X1364Y453D01*
X1364Y447D01*
X1366Y447D01*
X1366Y435D01*
X1364Y435D01*
X1364Y429D01*
X1362Y429D01*
X1362Y425D01*
X1360Y425D01*
X1360Y423D01*
X1358Y423D01*
X1358Y421D01*
X1356Y421D01*
X1356Y419D01*
X1354Y419D01*
X1354Y417D01*
X1352Y417D01*
X1352Y415D01*
X1348Y415D01*
X1348Y413D01*
X1342Y413D01*
X1342Y411D01*
X1388Y411D01*
X1388Y415D01*
X1390Y415D01*
X1390Y429D01*
X1392Y429D01*
X1392Y445D01*
X1394Y445D01*
X1394Y459D01*
X1396Y459D01*
X1396Y475D01*
X1398Y475D01*
X1398Y489D01*
X1400Y489D01*
X1400Y505D01*
X1054Y505D01*
G37*
D02*
G36*
X1082Y471D02*
X1082Y457D01*
X1084Y457D01*
X1084Y455D01*
X1086Y455D01*
X1086Y453D01*
X1090Y453D01*
X1090Y451D01*
X1092Y451D01*
X1092Y449D01*
X1094Y449D01*
X1094Y447D01*
X1098Y447D01*
X1098Y445D01*
X1100Y445D01*
X1100Y443D01*
X1104Y443D01*
X1104Y441D01*
X1106Y441D01*
X1106Y439D01*
X1108Y439D01*
X1108Y437D01*
X1110Y437D01*
X1110Y435D01*
X1112Y435D01*
X1112Y431D01*
X1114Y431D01*
X1114Y411D01*
X1330Y411D01*
X1330Y413D01*
X1324Y413D01*
X1324Y415D01*
X1320Y415D01*
X1320Y417D01*
X1318Y417D01*
X1318Y419D01*
X1316Y419D01*
X1316Y421D01*
X1314Y421D01*
X1314Y423D01*
X1312Y423D01*
X1312Y425D01*
X1310Y425D01*
X1310Y429D01*
X1308Y429D01*
X1308Y435D01*
X1306Y435D01*
X1306Y447D01*
X1308Y447D01*
X1308Y453D01*
X1310Y453D01*
X1310Y457D01*
X1312Y457D01*
X1312Y459D01*
X1314Y459D01*
X1314Y461D01*
X1316Y461D01*
X1316Y463D01*
X1318Y463D01*
X1318Y465D01*
X1320Y465D01*
X1320Y467D01*
X1324Y467D01*
X1324Y469D01*
X1330Y469D01*
X1330Y471D01*
X1082Y471D01*
G37*
D02*
G36*
X1114Y411D02*
X1114Y409D01*
X1388Y409D01*
X1388Y411D01*
X1114Y411D01*
G37*
D02*
G36*
X1114Y411D02*
X1114Y409D01*
X1388Y409D01*
X1388Y411D01*
X1114Y411D01*
G37*
D02*
G36*
X1114Y409D02*
X1114Y307D01*
X1112Y307D01*
X1112Y295D01*
X1110Y295D01*
X1110Y285D01*
X1108Y285D01*
X1108Y275D01*
X1106Y275D01*
X1106Y265D01*
X1104Y265D01*
X1104Y253D01*
X1102Y253D01*
X1102Y243D01*
X1100Y243D01*
X1100Y233D01*
X1098Y233D01*
X1098Y223D01*
X1096Y223D01*
X1096Y211D01*
X1094Y211D01*
X1094Y201D01*
X1092Y201D01*
X1092Y191D01*
X1090Y191D01*
X1090Y171D01*
X1092Y171D01*
X1092Y169D01*
X1094Y169D01*
X1094Y167D01*
X1096Y167D01*
X1096Y165D01*
X1098Y165D01*
X1098Y163D01*
X1100Y163D01*
X1100Y161D01*
X1102Y161D01*
X1102Y157D01*
X1104Y157D01*
X1104Y153D01*
X1106Y153D01*
X1106Y147D01*
X1108Y147D01*
X1108Y137D01*
X1110Y137D01*
X1110Y131D01*
X1108Y131D01*
X1108Y121D01*
X1106Y121D01*
X1106Y115D01*
X1104Y115D01*
X1104Y111D01*
X1102Y111D01*
X1102Y107D01*
X1100Y107D01*
X1100Y105D01*
X1098Y105D01*
X1098Y103D01*
X1096Y103D01*
X1096Y83D01*
X1100Y83D01*
X1100Y81D01*
X1122Y81D01*
X1122Y79D01*
X1144Y79D01*
X1144Y77D01*
X1166Y77D01*
X1166Y75D01*
X1188Y75D01*
X1188Y73D01*
X1210Y73D01*
X1210Y71D01*
X1232Y71D01*
X1232Y69D01*
X1254Y69D01*
X1254Y67D01*
X1276Y67D01*
X1276Y65D01*
X1298Y65D01*
X1298Y63D01*
X1320Y63D01*
X1320Y61D01*
X1350Y61D01*
X1350Y79D01*
X1348Y79D01*
X1348Y83D01*
X1346Y83D01*
X1346Y103D01*
X1348Y103D01*
X1348Y117D01*
X1350Y117D01*
X1350Y131D01*
X1352Y131D01*
X1352Y147D01*
X1354Y147D01*
X1354Y161D01*
X1356Y161D01*
X1356Y177D01*
X1358Y177D01*
X1358Y191D01*
X1360Y191D01*
X1360Y207D01*
X1362Y207D01*
X1362Y221D01*
X1364Y221D01*
X1364Y237D01*
X1366Y237D01*
X1366Y251D01*
X1368Y251D01*
X1368Y267D01*
X1370Y267D01*
X1370Y281D01*
X1372Y281D01*
X1372Y295D01*
X1374Y295D01*
X1374Y311D01*
X1376Y311D01*
X1376Y325D01*
X1378Y325D01*
X1378Y341D01*
X1380Y341D01*
X1380Y355D01*
X1382Y355D01*
X1382Y371D01*
X1384Y371D01*
X1384Y385D01*
X1386Y385D01*
X1386Y401D01*
X1388Y401D01*
X1388Y409D01*
X1114Y409D01*
G37*
D02*
G36*
X4560Y547D02*
X4560Y545D01*
X4494Y545D01*
X4494Y543D01*
X4428Y543D01*
X4428Y523D01*
X4600Y523D01*
X4600Y547D01*
X4560Y547D01*
G37*
D02*
G36*
X1878Y503D02*
X1878Y481D01*
X1880Y481D01*
X1880Y475D01*
X1882Y475D01*
X1882Y467D01*
X1884Y467D01*
X1884Y465D01*
X1888Y465D01*
X1888Y463D01*
X1892Y463D01*
X1892Y461D01*
X1896Y461D01*
X1896Y459D01*
X1902Y459D01*
X1902Y457D01*
X1906Y457D01*
X1906Y455D01*
X1910Y455D01*
X1910Y453D01*
X1914Y453D01*
X1914Y451D01*
X1920Y451D01*
X1920Y449D01*
X1924Y449D01*
X1924Y447D01*
X1928Y447D01*
X1928Y445D01*
X1932Y445D01*
X1932Y443D01*
X1938Y443D01*
X1938Y441D01*
X1942Y441D01*
X1942Y439D01*
X1946Y439D01*
X1946Y437D01*
X1952Y437D01*
X1952Y435D01*
X1956Y435D01*
X1956Y433D01*
X1960Y433D01*
X1960Y431D01*
X1964Y431D01*
X1964Y429D01*
X1970Y429D01*
X1970Y427D01*
X1974Y427D01*
X1974Y425D01*
X1978Y425D01*
X1978Y423D01*
X1982Y423D01*
X1982Y421D01*
X1988Y421D01*
X1988Y419D01*
X1992Y419D01*
X1992Y417D01*
X1996Y417D01*
X1996Y415D01*
X2000Y415D01*
X2000Y413D01*
X2006Y413D01*
X2006Y411D01*
X2010Y411D01*
X2010Y409D01*
X2014Y409D01*
X2014Y407D01*
X2018Y407D01*
X2018Y405D01*
X2024Y405D01*
X2024Y403D01*
X2044Y403D01*
X2044Y405D01*
X2046Y405D01*
X2046Y407D01*
X2048Y407D01*
X2048Y409D01*
X2050Y409D01*
X2050Y411D01*
X2052Y411D01*
X2052Y413D01*
X2056Y413D01*
X2056Y415D01*
X2058Y415D01*
X2058Y417D01*
X2060Y417D01*
X2060Y419D01*
X2062Y419D01*
X2062Y421D01*
X2064Y421D01*
X2064Y423D01*
X2066Y423D01*
X2066Y425D01*
X2068Y425D01*
X2068Y427D01*
X2072Y427D01*
X2072Y429D01*
X2074Y429D01*
X2074Y431D01*
X2076Y431D01*
X2076Y433D01*
X2078Y433D01*
X2078Y435D01*
X2080Y435D01*
X2080Y437D01*
X2082Y437D01*
X2082Y439D01*
X2084Y439D01*
X2084Y441D01*
X2088Y441D01*
X2088Y443D01*
X2090Y443D01*
X2090Y445D01*
X2092Y445D01*
X2092Y447D01*
X2094Y447D01*
X2094Y449D01*
X2096Y449D01*
X2096Y451D01*
X2098Y451D01*
X2098Y453D01*
X2100Y453D01*
X2100Y475D01*
X2102Y475D01*
X2102Y481D01*
X2104Y481D01*
X2104Y503D01*
X1878Y503D01*
G37*
D02*
G36*
X5188Y697D02*
X5188Y675D01*
X5186Y675D01*
X5186Y659D01*
X5184Y659D01*
X5184Y655D01*
X5182Y655D01*
X5182Y653D01*
X5180Y653D01*
X5180Y649D01*
X5178Y649D01*
X5178Y647D01*
X5176Y647D01*
X5176Y645D01*
X5174Y645D01*
X5174Y641D01*
X5172Y641D01*
X5172Y639D01*
X5170Y639D01*
X5170Y637D01*
X5168Y637D01*
X5168Y633D01*
X5166Y633D01*
X5166Y631D01*
X5164Y631D01*
X5164Y629D01*
X5162Y629D01*
X5162Y625D01*
X5160Y625D01*
X5160Y623D01*
X5158Y623D01*
X5158Y621D01*
X5156Y621D01*
X5156Y619D01*
X5154Y619D01*
X5154Y617D01*
X5150Y617D01*
X5150Y615D01*
X5208Y615D01*
X5208Y697D01*
X5188Y697D01*
G37*
D02*
G36*
X4980Y677D02*
X4980Y675D01*
X4982Y675D01*
X4982Y655D01*
X4980Y655D01*
X4980Y649D01*
X4978Y649D01*
X4978Y645D01*
X4976Y645D01*
X4976Y641D01*
X4974Y641D01*
X4974Y639D01*
X4972Y639D01*
X4972Y637D01*
X4970Y637D01*
X4970Y635D01*
X4968Y635D01*
X4968Y633D01*
X4966Y633D01*
X4966Y631D01*
X4962Y631D01*
X4962Y629D01*
X4960Y629D01*
X4960Y615D01*
X5058Y615D01*
X5058Y617D01*
X5054Y617D01*
X5054Y619D01*
X5052Y619D01*
X5052Y621D01*
X5050Y621D01*
X5050Y623D01*
X5048Y623D01*
X5048Y625D01*
X5046Y625D01*
X5046Y627D01*
X5044Y627D01*
X5044Y629D01*
X5042Y629D01*
X5042Y631D01*
X5040Y631D01*
X5040Y633D01*
X5038Y633D01*
X5038Y635D01*
X5036Y635D01*
X5036Y637D01*
X5034Y637D01*
X5034Y639D01*
X5032Y639D01*
X5032Y641D01*
X5030Y641D01*
X5030Y645D01*
X5028Y645D01*
X5028Y647D01*
X5026Y647D01*
X5026Y649D01*
X5024Y649D01*
X5024Y651D01*
X5022Y651D01*
X5022Y653D01*
X5020Y653D01*
X5020Y655D01*
X5018Y655D01*
X5018Y657D01*
X5016Y657D01*
X5016Y659D01*
X5014Y659D01*
X5014Y661D01*
X5012Y661D01*
X5012Y663D01*
X5010Y663D01*
X5010Y665D01*
X5008Y665D01*
X5008Y667D01*
X5006Y667D01*
X5006Y669D01*
X5004Y669D01*
X5004Y671D01*
X5002Y671D01*
X5002Y675D01*
X5000Y675D01*
X5000Y677D01*
X4980Y677D01*
G37*
D02*
G36*
X4960Y615D02*
X4960Y613D01*
X5208Y613D01*
X5208Y615D01*
X4960Y615D01*
G37*
D02*
G36*
X4960Y615D02*
X4960Y613D01*
X5208Y613D01*
X5208Y615D01*
X4960Y615D01*
G37*
D02*
G36*
X4960Y613D02*
X4960Y609D01*
X4982Y609D01*
X4982Y525D01*
X4898Y525D01*
X4898Y523D01*
X4894Y523D01*
X4894Y521D01*
X4890Y521D01*
X4890Y519D01*
X4886Y519D01*
X4886Y517D01*
X4882Y517D01*
X4882Y515D01*
X4878Y515D01*
X4878Y513D01*
X4874Y513D01*
X4874Y511D01*
X4870Y511D01*
X4870Y509D01*
X4866Y509D01*
X4866Y507D01*
X4862Y507D01*
X4862Y505D01*
X4858Y505D01*
X4858Y503D01*
X4854Y503D01*
X4854Y501D01*
X4850Y501D01*
X4850Y499D01*
X4848Y499D01*
X4848Y497D01*
X4844Y497D01*
X4844Y495D01*
X4840Y495D01*
X4840Y493D01*
X4836Y493D01*
X4836Y491D01*
X4832Y491D01*
X4832Y489D01*
X4828Y489D01*
X4828Y487D01*
X4824Y487D01*
X4824Y485D01*
X4820Y485D01*
X4820Y483D01*
X4816Y483D01*
X4816Y481D01*
X4812Y481D01*
X4812Y479D01*
X4808Y479D01*
X4808Y477D01*
X4804Y477D01*
X4804Y475D01*
X4800Y475D01*
X4800Y473D01*
X4796Y473D01*
X4796Y471D01*
X4792Y471D01*
X4792Y469D01*
X4788Y469D01*
X4788Y467D01*
X4784Y467D01*
X4784Y465D01*
X4780Y465D01*
X4780Y463D01*
X4778Y463D01*
X4778Y461D01*
X4774Y461D01*
X4774Y459D01*
X4770Y459D01*
X4770Y457D01*
X4766Y457D01*
X4766Y455D01*
X4762Y455D01*
X4762Y453D01*
X4758Y453D01*
X4758Y451D01*
X4754Y451D01*
X4754Y449D01*
X4750Y449D01*
X4750Y447D01*
X4746Y447D01*
X4746Y445D01*
X4742Y445D01*
X4742Y443D01*
X4738Y443D01*
X4738Y441D01*
X4734Y441D01*
X4734Y439D01*
X4722Y439D01*
X4722Y437D01*
X4708Y437D01*
X4708Y435D01*
X4692Y435D01*
X4692Y433D01*
X4678Y433D01*
X4678Y431D01*
X4664Y431D01*
X4664Y429D01*
X4648Y429D01*
X4648Y427D01*
X4634Y427D01*
X4634Y425D01*
X5180Y425D01*
X5180Y423D01*
X5208Y423D01*
X5208Y613D01*
X4960Y613D01*
G37*
D02*
G36*
X4250Y487D02*
X4250Y467D01*
X4248Y467D01*
X4248Y463D01*
X4246Y463D01*
X4246Y461D01*
X4244Y461D01*
X4244Y459D01*
X4242Y459D01*
X4242Y457D01*
X4238Y457D01*
X4238Y455D01*
X4168Y455D01*
X4168Y439D01*
X4382Y439D01*
X4382Y437D01*
X4388Y437D01*
X4388Y435D01*
X4392Y435D01*
X4392Y433D01*
X4426Y433D01*
X4426Y435D01*
X4440Y435D01*
X4440Y437D01*
X4456Y437D01*
X4456Y439D01*
X4470Y439D01*
X4470Y441D01*
X4484Y441D01*
X4484Y443D01*
X4500Y443D01*
X4500Y445D01*
X4514Y445D01*
X4514Y447D01*
X4528Y447D01*
X4528Y449D01*
X4544Y449D01*
X4544Y451D01*
X4558Y451D01*
X4558Y453D01*
X4572Y453D01*
X4572Y455D01*
X4588Y455D01*
X4588Y457D01*
X4602Y457D01*
X4602Y459D01*
X4616Y459D01*
X4616Y461D01*
X4632Y461D01*
X4632Y463D01*
X4646Y463D01*
X4646Y465D01*
X4660Y465D01*
X4660Y467D01*
X4676Y467D01*
X4676Y487D01*
X4250Y487D01*
G37*
D02*
G36*
X4168Y439D02*
X4168Y417D01*
X4166Y417D01*
X4166Y379D01*
X4370Y379D01*
X4370Y381D01*
X4364Y381D01*
X4364Y383D01*
X4360Y383D01*
X4360Y385D01*
X4358Y385D01*
X4358Y387D01*
X4356Y387D01*
X4356Y389D01*
X4354Y389D01*
X4354Y391D01*
X4352Y391D01*
X4352Y393D01*
X4350Y393D01*
X4350Y397D01*
X4348Y397D01*
X4348Y403D01*
X4346Y403D01*
X4346Y415D01*
X4348Y415D01*
X4348Y421D01*
X4350Y421D01*
X4350Y425D01*
X4352Y425D01*
X4352Y427D01*
X4354Y427D01*
X4354Y429D01*
X4356Y429D01*
X4356Y431D01*
X4358Y431D01*
X4358Y433D01*
X4360Y433D01*
X4360Y435D01*
X4364Y435D01*
X4364Y437D01*
X4370Y437D01*
X4370Y439D01*
X4168Y439D01*
G37*
D02*
G36*
X4620Y425D02*
X4620Y423D01*
X4766Y423D01*
X4766Y421D01*
X4772Y421D01*
X4772Y419D01*
X4776Y419D01*
X4776Y417D01*
X4778Y417D01*
X4778Y415D01*
X4780Y415D01*
X4780Y413D01*
X4782Y413D01*
X4782Y411D01*
X4784Y411D01*
X4784Y409D01*
X4786Y409D01*
X4786Y405D01*
X4788Y405D01*
X4788Y403D01*
X4796Y403D01*
X4796Y401D01*
X4804Y401D01*
X4804Y399D01*
X4812Y399D01*
X4812Y397D01*
X4818Y397D01*
X4818Y395D01*
X4826Y395D01*
X4826Y393D01*
X4834Y393D01*
X4834Y391D01*
X4842Y391D01*
X4842Y389D01*
X4848Y389D01*
X4848Y387D01*
X4856Y387D01*
X4856Y385D01*
X4864Y385D01*
X4864Y383D01*
X4872Y383D01*
X4872Y381D01*
X4878Y381D01*
X4878Y379D01*
X4886Y379D01*
X4886Y377D01*
X4894Y377D01*
X4894Y375D01*
X4902Y375D01*
X4902Y373D01*
X4908Y373D01*
X4908Y371D01*
X4916Y371D01*
X4916Y369D01*
X4924Y369D01*
X4924Y367D01*
X4932Y367D01*
X4932Y365D01*
X4938Y365D01*
X4938Y363D01*
X4946Y363D01*
X4946Y361D01*
X4954Y361D01*
X4954Y359D01*
X4962Y359D01*
X4962Y357D01*
X4968Y357D01*
X4968Y355D01*
X4976Y355D01*
X4976Y353D01*
X4984Y353D01*
X4984Y351D01*
X4992Y351D01*
X4992Y349D01*
X4998Y349D01*
X4998Y347D01*
X5006Y347D01*
X5006Y345D01*
X5010Y345D01*
X5010Y343D01*
X5012Y343D01*
X5012Y341D01*
X5014Y341D01*
X5014Y339D01*
X5016Y339D01*
X5016Y335D01*
X5018Y335D01*
X5018Y329D01*
X5170Y329D01*
X5170Y331D01*
X5162Y331D01*
X5162Y333D01*
X5158Y333D01*
X5158Y335D01*
X5154Y335D01*
X5154Y337D01*
X5150Y337D01*
X5150Y339D01*
X5148Y339D01*
X5148Y341D01*
X5146Y341D01*
X5146Y343D01*
X5144Y343D01*
X5144Y345D01*
X5142Y345D01*
X5142Y347D01*
X5140Y347D01*
X5140Y349D01*
X5138Y349D01*
X5138Y353D01*
X5136Y353D01*
X5136Y357D01*
X5134Y357D01*
X5134Y363D01*
X5132Y363D01*
X5132Y371D01*
X5130Y371D01*
X5130Y383D01*
X5132Y383D01*
X5132Y391D01*
X5134Y391D01*
X5134Y397D01*
X5136Y397D01*
X5136Y401D01*
X5138Y401D01*
X5138Y403D01*
X5140Y403D01*
X5140Y407D01*
X5142Y407D01*
X5142Y409D01*
X5144Y409D01*
X5144Y411D01*
X5146Y411D01*
X5146Y413D01*
X5150Y413D01*
X5150Y415D01*
X5152Y415D01*
X5152Y417D01*
X5156Y417D01*
X5156Y419D01*
X5158Y419D01*
X5158Y421D01*
X5164Y421D01*
X5164Y423D01*
X5176Y423D01*
X5176Y425D01*
X4620Y425D01*
G37*
D02*
G36*
X4604Y423D02*
X4604Y421D01*
X4590Y421D01*
X4590Y419D01*
X4576Y419D01*
X4576Y417D01*
X4560Y417D01*
X4560Y415D01*
X4546Y415D01*
X4546Y413D01*
X4532Y413D01*
X4532Y411D01*
X4516Y411D01*
X4516Y409D01*
X4502Y409D01*
X4502Y407D01*
X4488Y407D01*
X4488Y405D01*
X4472Y405D01*
X4472Y403D01*
X4458Y403D01*
X4458Y401D01*
X4444Y401D01*
X4444Y399D01*
X4428Y399D01*
X4428Y397D01*
X4414Y397D01*
X4414Y395D01*
X4402Y395D01*
X4402Y393D01*
X4400Y393D01*
X4400Y391D01*
X4398Y391D01*
X4398Y389D01*
X4396Y389D01*
X4396Y387D01*
X4394Y387D01*
X4394Y385D01*
X4392Y385D01*
X4392Y383D01*
X4388Y383D01*
X4388Y381D01*
X4382Y381D01*
X4382Y379D01*
X4734Y379D01*
X4734Y381D01*
X4732Y381D01*
X4732Y387D01*
X4730Y387D01*
X4730Y399D01*
X4732Y399D01*
X4732Y405D01*
X4734Y405D01*
X4734Y409D01*
X4736Y409D01*
X4736Y411D01*
X4738Y411D01*
X4738Y413D01*
X4740Y413D01*
X4740Y415D01*
X4742Y415D01*
X4742Y417D01*
X4744Y417D01*
X4744Y419D01*
X4748Y419D01*
X4748Y421D01*
X4754Y421D01*
X4754Y423D01*
X4604Y423D01*
G37*
D02*
G36*
X4164Y379D02*
X4164Y377D01*
X4734Y377D01*
X4734Y379D01*
X4164Y379D01*
G37*
D02*
G36*
X4164Y379D02*
X4164Y377D01*
X4734Y377D01*
X4734Y379D01*
X4164Y379D01*
G37*
D02*
G36*
X4164Y377D02*
X4164Y363D01*
X4754Y363D01*
X4754Y365D01*
X4748Y365D01*
X4748Y367D01*
X4744Y367D01*
X4744Y369D01*
X4742Y369D01*
X4742Y371D01*
X4740Y371D01*
X4740Y373D01*
X4738Y373D01*
X4738Y375D01*
X4736Y375D01*
X4736Y377D01*
X4164Y377D01*
G37*
D02*
G36*
X4772Y367D02*
X4772Y365D01*
X4766Y365D01*
X4766Y363D01*
X4798Y363D01*
X4798Y365D01*
X4792Y365D01*
X4792Y367D01*
X4772Y367D01*
G37*
D02*
G36*
X4164Y363D02*
X4164Y361D01*
X4806Y361D01*
X4806Y363D01*
X4164Y363D01*
G37*
D02*
G36*
X4164Y363D02*
X4164Y361D01*
X4806Y361D01*
X4806Y363D01*
X4164Y363D01*
G37*
D02*
G36*
X4164Y361D02*
X4164Y347D01*
X4702Y347D01*
X4702Y345D01*
X4706Y345D01*
X4706Y343D01*
X4708Y343D01*
X4708Y341D01*
X4710Y341D01*
X4710Y339D01*
X4712Y339D01*
X4712Y335D01*
X4714Y335D01*
X4714Y283D01*
X4856Y283D01*
X4856Y285D01*
X4900Y285D01*
X4900Y309D01*
X4934Y309D01*
X4934Y329D01*
X4926Y329D01*
X4926Y331D01*
X4918Y331D01*
X4918Y333D01*
X4912Y333D01*
X4912Y335D01*
X4904Y335D01*
X4904Y337D01*
X4896Y337D01*
X4896Y339D01*
X4888Y339D01*
X4888Y341D01*
X4882Y341D01*
X4882Y343D01*
X4874Y343D01*
X4874Y345D01*
X4866Y345D01*
X4866Y347D01*
X4858Y347D01*
X4858Y349D01*
X4852Y349D01*
X4852Y351D01*
X4844Y351D01*
X4844Y353D01*
X4836Y353D01*
X4836Y355D01*
X4828Y355D01*
X4828Y357D01*
X4822Y357D01*
X4822Y359D01*
X4814Y359D01*
X4814Y361D01*
X4164Y361D01*
G37*
D02*
G36*
X4164Y347D02*
X4164Y343D01*
X4162Y343D01*
X4162Y309D01*
X4182Y309D01*
X4182Y319D01*
X4184Y319D01*
X4184Y323D01*
X4186Y323D01*
X4186Y325D01*
X4188Y325D01*
X4188Y327D01*
X4190Y327D01*
X4190Y329D01*
X4194Y329D01*
X4194Y331D01*
X4230Y331D01*
X4230Y333D01*
X4292Y333D01*
X4292Y335D01*
X4354Y335D01*
X4354Y337D01*
X4416Y337D01*
X4416Y339D01*
X4478Y339D01*
X4478Y341D01*
X4540Y341D01*
X4540Y343D01*
X4602Y343D01*
X4602Y345D01*
X4664Y345D01*
X4664Y347D01*
X4164Y347D01*
G37*
D02*
G36*
X5186Y331D02*
X5186Y329D01*
X5208Y329D01*
X5208Y331D01*
X5186Y331D01*
G37*
D02*
G36*
X5018Y329D02*
X5018Y327D01*
X5208Y327D01*
X5208Y329D01*
X5018Y329D01*
G37*
D02*
G36*
X5018Y329D02*
X5018Y327D01*
X5208Y327D01*
X5208Y329D01*
X5018Y329D01*
G37*
D02*
G36*
X5018Y327D02*
X5018Y99D01*
X5016Y99D01*
X5016Y95D01*
X5014Y95D01*
X5014Y93D01*
X5012Y93D01*
X5012Y91D01*
X5010Y91D01*
X5010Y89D01*
X5006Y89D01*
X5006Y87D01*
X4976Y87D01*
X4976Y85D01*
X4928Y85D01*
X4928Y83D01*
X4880Y83D01*
X4880Y81D01*
X4832Y81D01*
X4832Y79D01*
X4784Y79D01*
X4784Y77D01*
X4736Y77D01*
X4736Y75D01*
X4688Y75D01*
X4688Y73D01*
X4640Y73D01*
X4640Y71D01*
X4592Y71D01*
X4592Y69D01*
X4544Y69D01*
X4544Y67D01*
X4496Y67D01*
X4496Y65D01*
X4448Y65D01*
X4448Y63D01*
X4400Y63D01*
X4400Y61D01*
X4352Y61D01*
X4352Y41D01*
X5208Y41D01*
X5208Y327D01*
X5018Y327D01*
G37*
D02*
G36*
X1782Y481D02*
X1782Y479D01*
X1780Y479D01*
X1780Y477D01*
X1778Y477D01*
X1778Y475D01*
X1776Y475D01*
X1776Y473D01*
X1772Y473D01*
X1772Y471D01*
X1770Y471D01*
X1770Y469D01*
X1768Y469D01*
X1768Y467D01*
X1766Y467D01*
X1766Y465D01*
X1764Y465D01*
X1764Y463D01*
X1762Y463D01*
X1762Y461D01*
X1760Y461D01*
X1760Y459D01*
X1758Y459D01*
X1758Y457D01*
X1756Y457D01*
X1756Y455D01*
X1754Y455D01*
X1754Y453D01*
X1750Y453D01*
X1750Y451D01*
X1748Y451D01*
X1748Y449D01*
X1746Y449D01*
X1746Y447D01*
X1744Y447D01*
X1744Y445D01*
X1742Y445D01*
X1742Y443D01*
X1740Y443D01*
X1740Y441D01*
X1738Y441D01*
X1738Y439D01*
X1736Y439D01*
X1736Y437D01*
X1734Y437D01*
X1734Y435D01*
X1732Y435D01*
X1732Y433D01*
X1728Y433D01*
X1728Y431D01*
X1726Y431D01*
X1726Y429D01*
X1724Y429D01*
X1724Y425D01*
X1722Y425D01*
X1722Y423D01*
X1720Y423D01*
X1720Y421D01*
X1718Y421D01*
X1718Y417D01*
X1716Y417D01*
X1716Y415D01*
X1714Y415D01*
X1714Y411D01*
X1712Y411D01*
X1712Y409D01*
X1710Y409D01*
X1710Y407D01*
X1708Y407D01*
X1708Y403D01*
X1706Y403D01*
X1706Y401D01*
X1704Y401D01*
X1704Y399D01*
X1702Y399D01*
X1702Y395D01*
X1700Y395D01*
X1700Y393D01*
X1698Y393D01*
X1698Y389D01*
X1696Y389D01*
X1696Y387D01*
X1694Y387D01*
X1694Y385D01*
X1692Y385D01*
X1692Y381D01*
X1690Y381D01*
X1690Y379D01*
X1688Y379D01*
X1688Y377D01*
X1686Y377D01*
X1686Y373D01*
X1684Y373D01*
X1684Y371D01*
X1682Y371D01*
X1682Y369D01*
X1680Y369D01*
X1680Y365D01*
X1678Y365D01*
X1678Y363D01*
X1676Y363D01*
X1676Y359D01*
X1674Y359D01*
X1674Y357D01*
X1672Y357D01*
X1672Y355D01*
X1670Y355D01*
X1670Y351D01*
X1668Y351D01*
X1668Y349D01*
X1666Y349D01*
X1666Y347D01*
X1664Y347D01*
X1664Y343D01*
X1662Y343D01*
X1662Y341D01*
X1660Y341D01*
X1660Y337D01*
X1658Y337D01*
X1658Y335D01*
X1656Y335D01*
X1656Y333D01*
X1654Y333D01*
X1654Y329D01*
X1652Y329D01*
X1652Y327D01*
X1650Y327D01*
X1650Y325D01*
X1648Y325D01*
X1648Y321D01*
X1646Y321D01*
X1646Y319D01*
X1644Y319D01*
X1644Y317D01*
X1642Y317D01*
X1642Y313D01*
X1640Y313D01*
X1640Y311D01*
X1638Y311D01*
X1638Y307D01*
X1636Y307D01*
X1636Y305D01*
X1634Y305D01*
X1634Y303D01*
X1632Y303D01*
X1632Y299D01*
X1630Y299D01*
X1630Y297D01*
X1628Y297D01*
X1628Y295D01*
X1626Y295D01*
X1626Y291D01*
X1624Y291D01*
X1624Y289D01*
X1622Y289D01*
X1622Y285D01*
X1620Y285D01*
X1620Y283D01*
X1618Y283D01*
X1618Y281D01*
X1616Y281D01*
X1616Y277D01*
X1614Y277D01*
X1614Y275D01*
X1612Y275D01*
X1612Y273D01*
X1610Y273D01*
X1610Y269D01*
X1608Y269D01*
X1608Y267D01*
X1606Y267D01*
X1606Y265D01*
X1604Y265D01*
X1604Y261D01*
X1602Y261D01*
X1602Y259D01*
X1600Y259D01*
X1600Y255D01*
X1598Y255D01*
X1598Y253D01*
X1596Y253D01*
X1596Y251D01*
X1594Y251D01*
X1594Y247D01*
X1592Y247D01*
X1592Y245D01*
X1590Y245D01*
X1590Y243D01*
X1588Y243D01*
X1588Y239D01*
X1586Y239D01*
X1586Y237D01*
X1584Y237D01*
X1584Y235D01*
X1632Y235D01*
X1632Y233D01*
X1640Y233D01*
X1640Y231D01*
X1646Y231D01*
X1646Y229D01*
X1650Y229D01*
X1650Y227D01*
X1654Y227D01*
X1654Y225D01*
X1656Y225D01*
X1656Y223D01*
X1658Y223D01*
X1658Y221D01*
X1660Y221D01*
X1660Y219D01*
X1662Y219D01*
X1662Y217D01*
X1664Y217D01*
X1664Y215D01*
X1666Y215D01*
X1666Y211D01*
X1668Y211D01*
X1668Y207D01*
X1670Y207D01*
X1670Y203D01*
X1672Y203D01*
X1672Y201D01*
X1692Y201D01*
X1692Y203D01*
X1694Y203D01*
X1694Y205D01*
X1696Y205D01*
X1696Y207D01*
X1698Y207D01*
X1698Y211D01*
X1700Y211D01*
X1700Y213D01*
X1702Y213D01*
X1702Y215D01*
X1704Y215D01*
X1704Y219D01*
X1706Y219D01*
X1706Y221D01*
X1708Y221D01*
X1708Y223D01*
X1710Y223D01*
X1710Y227D01*
X1712Y227D01*
X1712Y229D01*
X1714Y229D01*
X1714Y231D01*
X1716Y231D01*
X1716Y235D01*
X1718Y235D01*
X1718Y237D01*
X1720Y237D01*
X1720Y239D01*
X1722Y239D01*
X1722Y241D01*
X1724Y241D01*
X1724Y245D01*
X1726Y245D01*
X1726Y247D01*
X1728Y247D01*
X1728Y249D01*
X1730Y249D01*
X1730Y253D01*
X1732Y253D01*
X1732Y255D01*
X1734Y255D01*
X1734Y257D01*
X1736Y257D01*
X1736Y261D01*
X1738Y261D01*
X1738Y263D01*
X1740Y263D01*
X1740Y265D01*
X1742Y265D01*
X1742Y269D01*
X1744Y269D01*
X1744Y271D01*
X1746Y271D01*
X1746Y273D01*
X1748Y273D01*
X1748Y275D01*
X1750Y275D01*
X1750Y279D01*
X1752Y279D01*
X1752Y281D01*
X1754Y281D01*
X1754Y283D01*
X1756Y283D01*
X1756Y287D01*
X1758Y287D01*
X1758Y289D01*
X1760Y289D01*
X1760Y291D01*
X1762Y291D01*
X1762Y295D01*
X1764Y295D01*
X1764Y297D01*
X1766Y297D01*
X1766Y299D01*
X1768Y299D01*
X1768Y303D01*
X1770Y303D01*
X1770Y305D01*
X1772Y305D01*
X1772Y307D01*
X1774Y307D01*
X1774Y309D01*
X1776Y309D01*
X1776Y313D01*
X1778Y313D01*
X1778Y315D01*
X1780Y315D01*
X1780Y317D01*
X1782Y317D01*
X1782Y321D01*
X1784Y321D01*
X1784Y323D01*
X1786Y323D01*
X1786Y325D01*
X1788Y325D01*
X1788Y329D01*
X1790Y329D01*
X1790Y331D01*
X1792Y331D01*
X1792Y333D01*
X1794Y333D01*
X1794Y337D01*
X1796Y337D01*
X1796Y339D01*
X1798Y339D01*
X1798Y341D01*
X1800Y341D01*
X1800Y409D01*
X1822Y409D01*
X1822Y429D01*
X1818Y429D01*
X1818Y431D01*
X1816Y431D01*
X1816Y433D01*
X1814Y433D01*
X1814Y435D01*
X1812Y435D01*
X1812Y437D01*
X1810Y437D01*
X1810Y439D01*
X1808Y439D01*
X1808Y441D01*
X1806Y441D01*
X1806Y445D01*
X1804Y445D01*
X1804Y449D01*
X1802Y449D01*
X1802Y455D01*
X1800Y455D01*
X1800Y475D01*
X1802Y475D01*
X1802Y481D01*
X1782Y481D01*
G37*
D02*
G36*
X1584Y235D02*
X1584Y233D01*
X1582Y233D01*
X1582Y231D01*
X1580Y231D01*
X1580Y229D01*
X1578Y229D01*
X1578Y225D01*
X1600Y225D01*
X1600Y227D01*
X1602Y227D01*
X1602Y229D01*
X1606Y229D01*
X1606Y231D01*
X1612Y231D01*
X1612Y233D01*
X1620Y233D01*
X1620Y235D01*
X1584Y235D01*
G37*
D02*
G36*
X478Y447D02*
X478Y445D01*
X476Y445D01*
X476Y441D01*
X474Y441D01*
X474Y439D01*
X472Y439D01*
X472Y437D01*
X470Y437D01*
X470Y435D01*
X468Y435D01*
X468Y433D01*
X466Y433D01*
X466Y431D01*
X462Y431D01*
X462Y429D01*
X460Y429D01*
X460Y409D01*
X482Y409D01*
X482Y383D01*
X550Y383D01*
X550Y381D01*
X638Y381D01*
X638Y379D01*
X700Y379D01*
X700Y409D01*
X722Y409D01*
X722Y429D01*
X718Y429D01*
X718Y431D01*
X716Y431D01*
X716Y433D01*
X714Y433D01*
X714Y435D01*
X712Y435D01*
X712Y437D01*
X710Y437D01*
X710Y439D01*
X708Y439D01*
X708Y441D01*
X706Y441D01*
X706Y445D01*
X704Y445D01*
X704Y447D01*
X478Y447D01*
G37*
D02*
G36*
X778Y447D02*
X778Y445D01*
X776Y445D01*
X776Y441D01*
X774Y441D01*
X774Y439D01*
X772Y439D01*
X772Y437D01*
X770Y437D01*
X770Y435D01*
X768Y435D01*
X768Y433D01*
X766Y433D01*
X766Y431D01*
X762Y431D01*
X762Y429D01*
X760Y429D01*
X760Y409D01*
X782Y409D01*
X782Y315D01*
X1000Y315D01*
X1000Y409D01*
X1022Y409D01*
X1022Y429D01*
X1018Y429D01*
X1018Y431D01*
X1016Y431D01*
X1016Y433D01*
X1014Y433D01*
X1014Y435D01*
X1012Y435D01*
X1012Y437D01*
X1010Y437D01*
X1010Y439D01*
X1008Y439D01*
X1008Y441D01*
X1006Y441D01*
X1006Y445D01*
X1004Y445D01*
X1004Y447D01*
X778Y447D01*
G37*
D02*
G36*
X3332Y525D02*
X3332Y523D01*
X3330Y523D01*
X3330Y521D01*
X3326Y521D01*
X3326Y519D01*
X3312Y519D01*
X3312Y517D01*
X3294Y517D01*
X3294Y515D01*
X3276Y515D01*
X3276Y513D01*
X3258Y513D01*
X3258Y511D01*
X3240Y511D01*
X3240Y509D01*
X3222Y509D01*
X3222Y507D01*
X3204Y507D01*
X3204Y505D01*
X3186Y505D01*
X3186Y503D01*
X3168Y503D01*
X3168Y501D01*
X3150Y501D01*
X3150Y499D01*
X3132Y499D01*
X3132Y497D01*
X3114Y497D01*
X3114Y495D01*
X3096Y495D01*
X3096Y493D01*
X3078Y493D01*
X3078Y491D01*
X3060Y491D01*
X3060Y489D01*
X3042Y489D01*
X3042Y487D01*
X3024Y487D01*
X3024Y485D01*
X3006Y485D01*
X3006Y483D01*
X2988Y483D01*
X2988Y481D01*
X2970Y481D01*
X2970Y479D01*
X2952Y479D01*
X2952Y477D01*
X2934Y477D01*
X2934Y475D01*
X2916Y475D01*
X2916Y473D01*
X2898Y473D01*
X2898Y471D01*
X3246Y471D01*
X3246Y469D01*
X3274Y469D01*
X3274Y471D01*
X3280Y471D01*
X3280Y473D01*
X3288Y473D01*
X3288Y475D01*
X3294Y475D01*
X3294Y477D01*
X3300Y477D01*
X3300Y479D01*
X3308Y479D01*
X3308Y481D01*
X3314Y481D01*
X3314Y483D01*
X3320Y483D01*
X3320Y485D01*
X3328Y485D01*
X3328Y487D01*
X3334Y487D01*
X3334Y489D01*
X3340Y489D01*
X3340Y491D01*
X3348Y491D01*
X3348Y493D01*
X3354Y493D01*
X3354Y495D01*
X3360Y495D01*
X3360Y497D01*
X3368Y497D01*
X3368Y499D01*
X3374Y499D01*
X3374Y501D01*
X3380Y501D01*
X3380Y503D01*
X3388Y503D01*
X3388Y507D01*
X3390Y507D01*
X3390Y511D01*
X3392Y511D01*
X3392Y515D01*
X3394Y515D01*
X3394Y519D01*
X3396Y519D01*
X3396Y523D01*
X3398Y523D01*
X3398Y525D01*
X3332Y525D01*
G37*
D02*
G36*
X2880Y471D02*
X2880Y469D01*
X2862Y469D01*
X2862Y467D01*
X2844Y467D01*
X2844Y465D01*
X2826Y465D01*
X2826Y463D01*
X2808Y463D01*
X2808Y461D01*
X2790Y461D01*
X2790Y459D01*
X2772Y459D01*
X2772Y457D01*
X2754Y457D01*
X2754Y455D01*
X2736Y455D01*
X2736Y453D01*
X2718Y453D01*
X2718Y451D01*
X2700Y451D01*
X2700Y449D01*
X2682Y449D01*
X2682Y447D01*
X2664Y447D01*
X2664Y445D01*
X2646Y445D01*
X2646Y443D01*
X2628Y443D01*
X2628Y441D01*
X2624Y441D01*
X2624Y439D01*
X2622Y439D01*
X2622Y437D01*
X2620Y437D01*
X2620Y435D01*
X2618Y435D01*
X2618Y433D01*
X2616Y433D01*
X2616Y431D01*
X2612Y431D01*
X2612Y429D01*
X2606Y429D01*
X2606Y427D01*
X3212Y427D01*
X3212Y435D01*
X3210Y435D01*
X3210Y447D01*
X3212Y447D01*
X3212Y453D01*
X3214Y453D01*
X3214Y457D01*
X3216Y457D01*
X3216Y459D01*
X3218Y459D01*
X3218Y461D01*
X3220Y461D01*
X3220Y463D01*
X3222Y463D01*
X3222Y465D01*
X3224Y465D01*
X3224Y467D01*
X3228Y467D01*
X3228Y469D01*
X3234Y469D01*
X3234Y471D01*
X2880Y471D01*
G37*
D02*
G36*
X2474Y441D02*
X2474Y439D01*
X2472Y439D01*
X2472Y437D01*
X2470Y437D01*
X2470Y435D01*
X2468Y435D01*
X2468Y433D01*
X2466Y433D01*
X2466Y431D01*
X2462Y431D01*
X2462Y429D01*
X2460Y429D01*
X2460Y427D01*
X2594Y427D01*
X2594Y429D01*
X2588Y429D01*
X2588Y431D01*
X2584Y431D01*
X2584Y433D01*
X2582Y433D01*
X2582Y435D01*
X2580Y435D01*
X2580Y437D01*
X2578Y437D01*
X2578Y439D01*
X2498Y439D01*
X2498Y441D01*
X2474Y441D01*
G37*
D02*
G36*
X2460Y427D02*
X2460Y425D01*
X3212Y425D01*
X3212Y427D01*
X2460Y427D01*
G37*
D02*
G36*
X2460Y427D02*
X2460Y425D01*
X3212Y425D01*
X3212Y427D01*
X2460Y427D01*
G37*
D02*
G36*
X2460Y425D02*
X2460Y423D01*
X2990Y423D01*
X2990Y421D01*
X2996Y421D01*
X2996Y419D01*
X3000Y419D01*
X3000Y417D01*
X3002Y417D01*
X3002Y415D01*
X3004Y415D01*
X3004Y413D01*
X3006Y413D01*
X3006Y411D01*
X3212Y411D01*
X3212Y425D01*
X2460Y425D01*
G37*
D02*
G36*
X2460Y423D02*
X2460Y409D01*
X2482Y409D01*
X2482Y383D01*
X2498Y383D01*
X2498Y381D01*
X2542Y381D01*
X2542Y379D01*
X2586Y379D01*
X2586Y377D01*
X2630Y377D01*
X2630Y375D01*
X2674Y375D01*
X2674Y373D01*
X2718Y373D01*
X2718Y371D01*
X2762Y371D01*
X2762Y369D01*
X2808Y369D01*
X2808Y367D01*
X2852Y367D01*
X2852Y365D01*
X2896Y365D01*
X2896Y363D01*
X2958Y363D01*
X2958Y381D01*
X2956Y381D01*
X2956Y387D01*
X2954Y387D01*
X2954Y399D01*
X2956Y399D01*
X2956Y405D01*
X2958Y405D01*
X2958Y409D01*
X2960Y409D01*
X2960Y411D01*
X2962Y411D01*
X2962Y413D01*
X2964Y413D01*
X2964Y415D01*
X2966Y415D01*
X2966Y417D01*
X2968Y417D01*
X2968Y419D01*
X2972Y419D01*
X2972Y421D01*
X2978Y421D01*
X2978Y423D01*
X2460Y423D01*
G37*
D02*
G36*
X2326Y359D02*
X2326Y341D01*
X2334Y341D01*
X2334Y339D01*
X2344Y339D01*
X2344Y337D01*
X2352Y337D01*
X2352Y335D01*
X2360Y335D01*
X2360Y333D01*
X2368Y333D01*
X2368Y331D01*
X2378Y331D01*
X2378Y329D01*
X2400Y329D01*
X2400Y353D01*
X2390Y353D01*
X2390Y355D01*
X2372Y355D01*
X2372Y357D01*
X2354Y357D01*
X2354Y359D01*
X2326Y359D01*
G37*
D02*
G36*
X482Y347D02*
X482Y325D01*
X476Y325D01*
X476Y305D01*
X484Y305D01*
X484Y303D01*
X492Y303D01*
X492Y301D01*
X498Y301D01*
X498Y299D01*
X506Y299D01*
X506Y297D01*
X514Y297D01*
X514Y295D01*
X522Y295D01*
X522Y293D01*
X530Y293D01*
X530Y291D01*
X538Y291D01*
X538Y289D01*
X546Y289D01*
X546Y287D01*
X554Y287D01*
X554Y285D01*
X562Y285D01*
X562Y283D01*
X568Y283D01*
X568Y281D01*
X576Y281D01*
X576Y279D01*
X584Y279D01*
X584Y277D01*
X592Y277D01*
X592Y275D01*
X600Y275D01*
X600Y273D01*
X608Y273D01*
X608Y271D01*
X616Y271D01*
X616Y269D01*
X624Y269D01*
X624Y267D01*
X632Y267D01*
X632Y265D01*
X638Y265D01*
X638Y263D01*
X646Y263D01*
X646Y261D01*
X654Y261D01*
X654Y259D01*
X662Y259D01*
X662Y257D01*
X670Y257D01*
X670Y255D01*
X678Y255D01*
X678Y253D01*
X686Y253D01*
X686Y251D01*
X694Y251D01*
X694Y249D01*
X702Y249D01*
X702Y247D01*
X708Y247D01*
X708Y245D01*
X716Y245D01*
X716Y243D01*
X724Y243D01*
X724Y241D01*
X732Y241D01*
X732Y239D01*
X740Y239D01*
X740Y237D01*
X748Y237D01*
X748Y235D01*
X756Y235D01*
X756Y233D01*
X764Y233D01*
X764Y231D01*
X772Y231D01*
X772Y229D01*
X778Y229D01*
X778Y227D01*
X786Y227D01*
X786Y225D01*
X794Y225D01*
X794Y223D01*
X802Y223D01*
X802Y221D01*
X810Y221D01*
X810Y219D01*
X818Y219D01*
X818Y217D01*
X826Y217D01*
X826Y215D01*
X834Y215D01*
X834Y213D01*
X842Y213D01*
X842Y211D01*
X848Y211D01*
X848Y209D01*
X856Y209D01*
X856Y207D01*
X864Y207D01*
X864Y205D01*
X872Y205D01*
X872Y203D01*
X880Y203D01*
X880Y201D01*
X888Y201D01*
X888Y199D01*
X942Y199D01*
X942Y197D01*
X948Y197D01*
X948Y195D01*
X952Y195D01*
X952Y193D01*
X954Y193D01*
X954Y191D01*
X956Y191D01*
X956Y189D01*
X958Y189D01*
X958Y187D01*
X960Y187D01*
X960Y185D01*
X962Y185D01*
X962Y181D01*
X982Y181D01*
X982Y193D01*
X984Y193D01*
X984Y207D01*
X986Y207D01*
X986Y221D01*
X988Y221D01*
X988Y235D01*
X990Y235D01*
X990Y249D01*
X992Y249D01*
X992Y279D01*
X674Y279D01*
X674Y281D01*
X670Y281D01*
X670Y283D01*
X668Y283D01*
X668Y285D01*
X666Y285D01*
X666Y287D01*
X664Y287D01*
X664Y291D01*
X662Y291D01*
X662Y343D01*
X636Y343D01*
X636Y345D01*
X550Y345D01*
X550Y347D01*
X482Y347D01*
G37*
D02*
G36*
X896Y199D02*
X896Y197D01*
X904Y197D01*
X904Y195D01*
X924Y195D01*
X924Y197D01*
X930Y197D01*
X930Y199D01*
X896Y199D01*
G37*
D02*
G36*
X2482Y345D02*
X2482Y315D01*
X2762Y315D01*
X2762Y335D01*
X2718Y335D01*
X2718Y337D01*
X2674Y337D01*
X2674Y339D01*
X2628Y339D01*
X2628Y341D01*
X2584Y341D01*
X2584Y343D01*
X2540Y343D01*
X2540Y345D01*
X2482Y345D01*
G37*
D02*
G36*
X1032Y325D02*
X1032Y303D01*
X1034Y303D01*
X1034Y289D01*
X1032Y289D01*
X1032Y275D01*
X1030Y275D01*
X1030Y261D01*
X1028Y261D01*
X1028Y247D01*
X1026Y247D01*
X1026Y233D01*
X1024Y233D01*
X1024Y219D01*
X1022Y219D01*
X1022Y205D01*
X1020Y205D01*
X1020Y191D01*
X1018Y191D01*
X1018Y175D01*
X1040Y175D01*
X1040Y177D01*
X1044Y177D01*
X1044Y179D01*
X1052Y179D01*
X1052Y185D01*
X1054Y185D01*
X1054Y195D01*
X1056Y195D01*
X1056Y205D01*
X1058Y205D01*
X1058Y215D01*
X1060Y215D01*
X1060Y225D01*
X1062Y225D01*
X1062Y237D01*
X1064Y237D01*
X1064Y247D01*
X1066Y247D01*
X1066Y257D01*
X1068Y257D01*
X1068Y267D01*
X1070Y267D01*
X1070Y279D01*
X1072Y279D01*
X1072Y289D01*
X1074Y289D01*
X1074Y299D01*
X1076Y299D01*
X1076Y325D01*
X1032Y325D01*
G37*
D02*
G36*
X3082Y319D02*
X3082Y209D01*
X3104Y209D01*
X3104Y207D01*
X3126Y207D01*
X3126Y205D01*
X3148Y205D01*
X3148Y203D01*
X3170Y203D01*
X3170Y201D01*
X3190Y201D01*
X3190Y199D01*
X3212Y199D01*
X3212Y197D01*
X3234Y197D01*
X3234Y195D01*
X3256Y195D01*
X3256Y193D01*
X3278Y193D01*
X3278Y191D01*
X3308Y191D01*
X3308Y195D01*
X3310Y195D01*
X3310Y197D01*
X3312Y197D01*
X3312Y199D01*
X3314Y199D01*
X3314Y201D01*
X3318Y201D01*
X3318Y203D01*
X3320Y203D01*
X3320Y205D01*
X3324Y205D01*
X3324Y225D01*
X3300Y225D01*
X3300Y281D01*
X3298Y281D01*
X3298Y283D01*
X3294Y283D01*
X3294Y285D01*
X3292Y285D01*
X3292Y287D01*
X3290Y287D01*
X3290Y289D01*
X3288Y289D01*
X3288Y291D01*
X3286Y291D01*
X3286Y293D01*
X3284Y293D01*
X3284Y295D01*
X3282Y295D01*
X3282Y297D01*
X3280Y297D01*
X3280Y299D01*
X3278Y299D01*
X3278Y301D01*
X3274Y301D01*
X3274Y303D01*
X3272Y303D01*
X3272Y305D01*
X3270Y305D01*
X3270Y307D01*
X3268Y307D01*
X3268Y309D01*
X3266Y309D01*
X3266Y311D01*
X3250Y311D01*
X3250Y313D01*
X3206Y313D01*
X3206Y315D01*
X3160Y315D01*
X3160Y317D01*
X3116Y317D01*
X3116Y319D01*
X3082Y319D01*
G37*
D02*
G36*
X3882Y309D02*
X3882Y261D01*
X3886Y261D01*
X3886Y259D01*
X3890Y259D01*
X3890Y257D01*
X3892Y257D01*
X3892Y255D01*
X3896Y255D01*
X3896Y253D01*
X3898Y253D01*
X3898Y251D01*
X3902Y251D01*
X3902Y249D01*
X3906Y249D01*
X3906Y247D01*
X3908Y247D01*
X3908Y245D01*
X3912Y245D01*
X3912Y243D01*
X3916Y243D01*
X3916Y241D01*
X3918Y241D01*
X3918Y239D01*
X3922Y239D01*
X3922Y237D01*
X3926Y237D01*
X3926Y235D01*
X3928Y235D01*
X3928Y233D01*
X3932Y233D01*
X3932Y231D01*
X3934Y231D01*
X3934Y229D01*
X3938Y229D01*
X3938Y227D01*
X3942Y227D01*
X3942Y225D01*
X3944Y225D01*
X3944Y223D01*
X3948Y223D01*
X3948Y221D01*
X3952Y221D01*
X3952Y219D01*
X3954Y219D01*
X3954Y217D01*
X3958Y217D01*
X3958Y215D01*
X3960Y215D01*
X3960Y213D01*
X3964Y213D01*
X3964Y211D01*
X3968Y211D01*
X3968Y209D01*
X3970Y209D01*
X3970Y207D01*
X3974Y207D01*
X3974Y205D01*
X3978Y205D01*
X3978Y203D01*
X3980Y203D01*
X3980Y201D01*
X3984Y201D01*
X3984Y199D01*
X3986Y199D01*
X3986Y197D01*
X3990Y197D01*
X3990Y195D01*
X3994Y195D01*
X3994Y193D01*
X3996Y193D01*
X3996Y191D01*
X4000Y191D01*
X4000Y189D01*
X4004Y189D01*
X4004Y187D01*
X4006Y187D01*
X4006Y185D01*
X4010Y185D01*
X4010Y183D01*
X4012Y183D01*
X4012Y181D01*
X4016Y181D01*
X4016Y179D01*
X4020Y179D01*
X4020Y177D01*
X4022Y177D01*
X4022Y175D01*
X4026Y175D01*
X4026Y173D01*
X4030Y173D01*
X4030Y171D01*
X4032Y171D01*
X4032Y169D01*
X4036Y169D01*
X4036Y167D01*
X4040Y167D01*
X4040Y165D01*
X4042Y165D01*
X4042Y163D01*
X4046Y163D01*
X4046Y161D01*
X4048Y161D01*
X4048Y159D01*
X4052Y159D01*
X4052Y157D01*
X4056Y157D01*
X4056Y155D01*
X4058Y155D01*
X4058Y153D01*
X4062Y153D01*
X4062Y151D01*
X4066Y151D01*
X4066Y149D01*
X4068Y149D01*
X4068Y147D01*
X4072Y147D01*
X4072Y145D01*
X4074Y145D01*
X4074Y143D01*
X4078Y143D01*
X4078Y141D01*
X4082Y141D01*
X4082Y139D01*
X4084Y139D01*
X4084Y137D01*
X4088Y137D01*
X4088Y135D01*
X4108Y135D01*
X4108Y145D01*
X4106Y145D01*
X4106Y147D01*
X4104Y147D01*
X4104Y151D01*
X4102Y151D01*
X4102Y157D01*
X4100Y157D01*
X4100Y179D01*
X4102Y179D01*
X4102Y185D01*
X4104Y185D01*
X4104Y189D01*
X4106Y189D01*
X4106Y191D01*
X4108Y191D01*
X4108Y195D01*
X4110Y195D01*
X4110Y197D01*
X4112Y197D01*
X4112Y199D01*
X4114Y199D01*
X4114Y201D01*
X4118Y201D01*
X4118Y203D01*
X4120Y203D01*
X4120Y205D01*
X4124Y205D01*
X4124Y225D01*
X4100Y225D01*
X4100Y259D01*
X4094Y259D01*
X4094Y261D01*
X4086Y261D01*
X4086Y263D01*
X4078Y263D01*
X4078Y265D01*
X4070Y265D01*
X4070Y267D01*
X4062Y267D01*
X4062Y269D01*
X4054Y269D01*
X4054Y271D01*
X4046Y271D01*
X4046Y273D01*
X4038Y273D01*
X4038Y275D01*
X4030Y275D01*
X4030Y277D01*
X4024Y277D01*
X4024Y279D01*
X4016Y279D01*
X4016Y281D01*
X4008Y281D01*
X4008Y283D01*
X4000Y283D01*
X4000Y285D01*
X3992Y285D01*
X3992Y287D01*
X3984Y287D01*
X3984Y289D01*
X3976Y289D01*
X3976Y291D01*
X3968Y291D01*
X3968Y293D01*
X3960Y293D01*
X3960Y295D01*
X3952Y295D01*
X3952Y297D01*
X3944Y297D01*
X3944Y299D01*
X3936Y299D01*
X3936Y301D01*
X3930Y301D01*
X3930Y303D01*
X3922Y303D01*
X3922Y305D01*
X3914Y305D01*
X3914Y307D01*
X3906Y307D01*
X3906Y309D01*
X3882Y309D01*
G37*
D02*
G36*
X4542Y307D02*
X4542Y305D01*
X4480Y305D01*
X4480Y303D01*
X4418Y303D01*
X4418Y301D01*
X4356Y301D01*
X4356Y299D01*
X4294Y299D01*
X4294Y297D01*
X4232Y297D01*
X4232Y295D01*
X4218Y295D01*
X4218Y91D01*
X4256Y91D01*
X4256Y93D01*
X4304Y93D01*
X4304Y95D01*
X4352Y95D01*
X4352Y97D01*
X4400Y97D01*
X4400Y99D01*
X4448Y99D01*
X4448Y101D01*
X4496Y101D01*
X4496Y103D01*
X4544Y103D01*
X4544Y105D01*
X4592Y105D01*
X4592Y107D01*
X4640Y107D01*
X4640Y127D01*
X4630Y127D01*
X4630Y129D01*
X4624Y129D01*
X4624Y131D01*
X4620Y131D01*
X4620Y133D01*
X4618Y133D01*
X4618Y135D01*
X4614Y135D01*
X4614Y137D01*
X4612Y137D01*
X4612Y139D01*
X4610Y139D01*
X4610Y141D01*
X4608Y141D01*
X4608Y145D01*
X4606Y145D01*
X4606Y147D01*
X4604Y147D01*
X4604Y151D01*
X4602Y151D01*
X4602Y157D01*
X4600Y157D01*
X4600Y179D01*
X4602Y179D01*
X4602Y185D01*
X4604Y185D01*
X4604Y189D01*
X4606Y189D01*
X4606Y191D01*
X4608Y191D01*
X4608Y195D01*
X4610Y195D01*
X4610Y197D01*
X4612Y197D01*
X4612Y199D01*
X4614Y199D01*
X4614Y201D01*
X4618Y201D01*
X4618Y203D01*
X4620Y203D01*
X4620Y205D01*
X4624Y205D01*
X4624Y225D01*
X4600Y225D01*
X4600Y307D01*
X4542Y307D01*
G37*
D02*
G36*
X1882Y419D02*
X1882Y325D01*
X1832Y325D01*
X1832Y323D01*
X1830Y323D01*
X1830Y321D01*
X1828Y321D01*
X1828Y319D01*
X1826Y319D01*
X1826Y317D01*
X1824Y317D01*
X1824Y313D01*
X1822Y313D01*
X1822Y295D01*
X1838Y295D01*
X1838Y293D01*
X1844Y293D01*
X1844Y291D01*
X1848Y291D01*
X1848Y289D01*
X1850Y289D01*
X1850Y287D01*
X1852Y287D01*
X1852Y285D01*
X1854Y285D01*
X1854Y283D01*
X1856Y283D01*
X1856Y281D01*
X1858Y281D01*
X1858Y277D01*
X1860Y277D01*
X1860Y271D01*
X1862Y271D01*
X1862Y259D01*
X1860Y259D01*
X1860Y253D01*
X1858Y253D01*
X1858Y249D01*
X1856Y249D01*
X1856Y247D01*
X1854Y247D01*
X1854Y245D01*
X1852Y245D01*
X1852Y243D01*
X1850Y243D01*
X1850Y241D01*
X1848Y241D01*
X1848Y239D01*
X1844Y239D01*
X1844Y237D01*
X1838Y237D01*
X1838Y235D01*
X2012Y235D01*
X2012Y253D01*
X2014Y253D01*
X2014Y281D01*
X2016Y281D01*
X2016Y309D01*
X2018Y309D01*
X2018Y337D01*
X2020Y337D01*
X2020Y367D01*
X2016Y367D01*
X2016Y369D01*
X2012Y369D01*
X2012Y371D01*
X2006Y371D01*
X2006Y373D01*
X2002Y373D01*
X2002Y375D01*
X1998Y375D01*
X1998Y377D01*
X1994Y377D01*
X1994Y379D01*
X1988Y379D01*
X1988Y381D01*
X1984Y381D01*
X1984Y383D01*
X1980Y383D01*
X1980Y385D01*
X1976Y385D01*
X1976Y387D01*
X1970Y387D01*
X1970Y389D01*
X1966Y389D01*
X1966Y391D01*
X1962Y391D01*
X1962Y393D01*
X1956Y393D01*
X1956Y395D01*
X1952Y395D01*
X1952Y397D01*
X1948Y397D01*
X1948Y399D01*
X1944Y399D01*
X1944Y401D01*
X1938Y401D01*
X1938Y403D01*
X1934Y403D01*
X1934Y405D01*
X1930Y405D01*
X1930Y407D01*
X1926Y407D01*
X1926Y409D01*
X1920Y409D01*
X1920Y411D01*
X1916Y411D01*
X1916Y413D01*
X1912Y413D01*
X1912Y415D01*
X1908Y415D01*
X1908Y417D01*
X1902Y417D01*
X1902Y419D01*
X1882Y419D01*
G37*
D02*
G36*
X2080Y389D02*
X2080Y387D01*
X2078Y387D01*
X2078Y385D01*
X2076Y385D01*
X2076Y383D01*
X2074Y383D01*
X2074Y381D01*
X2070Y381D01*
X2070Y379D01*
X2068Y379D01*
X2068Y377D01*
X2066Y377D01*
X2066Y375D01*
X2064Y375D01*
X2064Y373D01*
X2062Y373D01*
X2062Y371D01*
X2060Y371D01*
X2060Y369D01*
X2058Y369D01*
X2058Y363D01*
X2056Y363D01*
X2056Y335D01*
X2054Y335D01*
X2054Y325D01*
X2100Y325D01*
X2100Y389D01*
X2080Y389D01*
G37*
D02*
G36*
X2182Y335D02*
X2182Y325D01*
X2236Y325D01*
X2236Y327D01*
X2228Y327D01*
X2228Y329D01*
X2218Y329D01*
X2218Y331D01*
X2210Y331D01*
X2210Y333D01*
X2202Y333D01*
X2202Y335D01*
X2182Y335D01*
G37*
D02*
G36*
X2054Y325D02*
X2054Y323D01*
X2244Y323D01*
X2244Y325D01*
X2054Y325D01*
G37*
D02*
G36*
X2054Y325D02*
X2054Y323D01*
X2244Y323D01*
X2244Y325D01*
X2054Y325D01*
G37*
D02*
G36*
X2054Y323D02*
X2054Y307D01*
X2052Y307D01*
X2052Y279D01*
X2050Y279D01*
X2050Y253D01*
X2048Y253D01*
X2048Y229D01*
X2050Y229D01*
X2050Y227D01*
X2054Y227D01*
X2054Y225D01*
X2056Y225D01*
X2056Y223D01*
X2058Y223D01*
X2058Y221D01*
X2060Y221D01*
X2060Y219D01*
X2062Y219D01*
X2062Y217D01*
X2064Y217D01*
X2064Y215D01*
X2066Y215D01*
X2066Y211D01*
X2068Y211D01*
X2068Y207D01*
X2070Y207D01*
X2070Y203D01*
X2072Y203D01*
X2072Y195D01*
X2074Y195D01*
X2074Y179D01*
X2072Y179D01*
X2072Y171D01*
X2070Y171D01*
X2070Y167D01*
X2068Y167D01*
X2068Y163D01*
X2066Y163D01*
X2066Y159D01*
X2064Y159D01*
X2064Y157D01*
X2062Y157D01*
X2062Y155D01*
X2060Y155D01*
X2060Y153D01*
X2058Y153D01*
X2058Y151D01*
X2056Y151D01*
X2056Y149D01*
X2054Y149D01*
X2054Y147D01*
X2050Y147D01*
X2050Y145D01*
X2046Y145D01*
X2046Y143D01*
X2040Y143D01*
X2040Y141D01*
X2032Y141D01*
X2032Y139D01*
X2290Y139D01*
X2290Y141D01*
X2298Y141D01*
X2298Y143D01*
X2304Y143D01*
X2304Y145D01*
X2312Y145D01*
X2312Y147D01*
X2320Y147D01*
X2320Y149D01*
X2328Y149D01*
X2328Y151D01*
X2334Y151D01*
X2334Y153D01*
X2342Y153D01*
X2342Y155D01*
X2350Y155D01*
X2350Y157D01*
X2356Y157D01*
X2356Y159D01*
X2364Y159D01*
X2364Y161D01*
X2372Y161D01*
X2372Y163D01*
X2378Y163D01*
X2378Y165D01*
X2386Y165D01*
X2386Y167D01*
X2394Y167D01*
X2394Y169D01*
X2400Y169D01*
X2400Y171D01*
X2408Y171D01*
X2408Y173D01*
X2416Y173D01*
X2416Y175D01*
X2422Y175D01*
X2422Y177D01*
X2430Y177D01*
X2430Y179D01*
X2438Y179D01*
X2438Y181D01*
X2446Y181D01*
X2446Y183D01*
X2452Y183D01*
X2452Y185D01*
X2460Y185D01*
X2460Y187D01*
X2468Y187D01*
X2468Y189D01*
X2474Y189D01*
X2474Y191D01*
X2482Y191D01*
X2482Y193D01*
X2490Y193D01*
X2490Y195D01*
X2496Y195D01*
X2496Y197D01*
X2504Y197D01*
X2504Y199D01*
X2512Y199D01*
X2512Y201D01*
X2518Y201D01*
X2518Y203D01*
X2526Y203D01*
X2526Y205D01*
X2528Y205D01*
X2528Y225D01*
X2524Y225D01*
X2524Y227D01*
X2522Y227D01*
X2522Y229D01*
X2520Y229D01*
X2520Y231D01*
X2518Y231D01*
X2518Y233D01*
X2516Y233D01*
X2516Y237D01*
X2514Y237D01*
X2514Y243D01*
X2512Y243D01*
X2512Y255D01*
X2514Y255D01*
X2514Y279D01*
X2434Y279D01*
X2434Y281D01*
X2426Y281D01*
X2426Y283D01*
X2416Y283D01*
X2416Y285D01*
X2408Y285D01*
X2408Y287D01*
X2400Y287D01*
X2400Y289D01*
X2390Y289D01*
X2390Y291D01*
X2382Y291D01*
X2382Y293D01*
X2374Y293D01*
X2374Y295D01*
X2364Y295D01*
X2364Y297D01*
X2356Y297D01*
X2356Y299D01*
X2348Y299D01*
X2348Y301D01*
X2338Y301D01*
X2338Y303D01*
X2330Y303D01*
X2330Y305D01*
X2322Y305D01*
X2322Y307D01*
X2314Y307D01*
X2314Y309D01*
X2304Y309D01*
X2304Y311D01*
X2296Y311D01*
X2296Y313D01*
X2288Y313D01*
X2288Y315D01*
X2278Y315D01*
X2278Y317D01*
X2270Y317D01*
X2270Y319D01*
X2262Y319D01*
X2262Y321D01*
X2252Y321D01*
X2252Y323D01*
X2054Y323D01*
G37*
D02*
G36*
X1782Y261D02*
X1782Y259D01*
X1780Y259D01*
X1780Y255D01*
X1778Y255D01*
X1778Y253D01*
X1776Y253D01*
X1776Y251D01*
X1774Y251D01*
X1774Y249D01*
X1772Y249D01*
X1772Y245D01*
X1770Y245D01*
X1770Y243D01*
X1768Y243D01*
X1768Y241D01*
X1766Y241D01*
X1766Y237D01*
X1764Y237D01*
X1764Y235D01*
X1826Y235D01*
X1826Y237D01*
X1820Y237D01*
X1820Y239D01*
X1816Y239D01*
X1816Y241D01*
X1814Y241D01*
X1814Y243D01*
X1812Y243D01*
X1812Y245D01*
X1810Y245D01*
X1810Y247D01*
X1808Y247D01*
X1808Y249D01*
X1806Y249D01*
X1806Y253D01*
X1804Y253D01*
X1804Y259D01*
X1802Y259D01*
X1802Y261D01*
X1782Y261D01*
G37*
D02*
G36*
X1762Y235D02*
X1762Y233D01*
X2012Y233D01*
X2012Y235D01*
X1762Y235D01*
G37*
D02*
G36*
X1762Y235D02*
X1762Y233D01*
X2012Y233D01*
X2012Y235D01*
X1762Y235D01*
G37*
D02*
G36*
X1760Y233D02*
X1760Y229D01*
X1758Y229D01*
X1758Y227D01*
X1756Y227D01*
X1756Y225D01*
X1754Y225D01*
X1754Y221D01*
X1752Y221D01*
X1752Y219D01*
X1750Y219D01*
X1750Y217D01*
X1748Y217D01*
X1748Y215D01*
X1746Y215D01*
X1746Y211D01*
X1744Y211D01*
X1744Y209D01*
X1742Y209D01*
X1742Y207D01*
X1740Y207D01*
X1740Y203D01*
X1738Y203D01*
X1738Y201D01*
X1736Y201D01*
X1736Y181D01*
X1742Y181D01*
X1742Y179D01*
X1748Y179D01*
X1748Y177D01*
X1752Y177D01*
X1752Y175D01*
X1754Y175D01*
X1754Y173D01*
X1756Y173D01*
X1756Y171D01*
X1758Y171D01*
X1758Y169D01*
X1760Y169D01*
X1760Y167D01*
X1762Y167D01*
X1762Y163D01*
X1764Y163D01*
X1764Y153D01*
X1766Y153D01*
X1766Y149D01*
X1768Y149D01*
X1768Y147D01*
X1770Y147D01*
X1770Y145D01*
X1772Y145D01*
X1772Y143D01*
X1774Y143D01*
X1774Y141D01*
X1776Y141D01*
X1776Y139D01*
X2020Y139D01*
X2020Y141D01*
X2012Y141D01*
X2012Y143D01*
X2006Y143D01*
X2006Y145D01*
X2002Y145D01*
X2002Y147D01*
X2000Y147D01*
X2000Y149D01*
X1996Y149D01*
X1996Y151D01*
X1994Y151D01*
X1994Y153D01*
X1992Y153D01*
X1992Y155D01*
X1990Y155D01*
X1990Y157D01*
X1988Y157D01*
X1988Y161D01*
X1986Y161D01*
X1986Y163D01*
X1984Y163D01*
X1984Y167D01*
X1982Y167D01*
X1982Y173D01*
X1980Y173D01*
X1980Y183D01*
X1978Y183D01*
X1978Y191D01*
X1980Y191D01*
X1980Y201D01*
X1982Y201D01*
X1982Y207D01*
X1984Y207D01*
X1984Y211D01*
X1986Y211D01*
X1986Y213D01*
X1988Y213D01*
X1988Y217D01*
X1990Y217D01*
X1990Y219D01*
X1992Y219D01*
X1992Y221D01*
X1994Y221D01*
X1994Y223D01*
X1996Y223D01*
X1996Y225D01*
X2000Y225D01*
X2000Y227D01*
X2002Y227D01*
X2002Y229D01*
X2006Y229D01*
X2006Y231D01*
X2012Y231D01*
X2012Y233D01*
X1760Y233D01*
G37*
D02*
G36*
X1778Y139D02*
X1778Y137D01*
X2282Y137D01*
X2282Y139D01*
X1778Y139D01*
G37*
D02*
G36*
X1778Y139D02*
X1778Y137D01*
X2282Y137D01*
X2282Y139D01*
X1778Y139D01*
G37*
D02*
G36*
X1782Y137D02*
X1782Y135D01*
X1784Y135D01*
X1784Y133D01*
X1786Y133D01*
X1786Y131D01*
X1788Y131D01*
X1788Y129D01*
X1790Y129D01*
X1790Y127D01*
X1792Y127D01*
X1792Y125D01*
X1796Y125D01*
X1796Y123D01*
X1798Y123D01*
X1798Y121D01*
X1800Y121D01*
X1800Y119D01*
X1802Y119D01*
X1802Y117D01*
X1804Y117D01*
X1804Y115D01*
X1806Y115D01*
X1806Y113D01*
X1850Y113D01*
X1850Y111D01*
X1914Y111D01*
X1914Y109D01*
X1978Y109D01*
X1978Y107D01*
X2044Y107D01*
X2044Y105D01*
X2108Y105D01*
X2108Y103D01*
X2158Y103D01*
X2158Y105D01*
X2164Y105D01*
X2164Y107D01*
X2172Y107D01*
X2172Y109D01*
X2180Y109D01*
X2180Y111D01*
X2186Y111D01*
X2186Y113D01*
X2194Y113D01*
X2194Y115D01*
X2202Y115D01*
X2202Y117D01*
X2210Y117D01*
X2210Y119D01*
X2216Y119D01*
X2216Y121D01*
X2224Y121D01*
X2224Y123D01*
X2232Y123D01*
X2232Y125D01*
X2238Y125D01*
X2238Y127D01*
X2246Y127D01*
X2246Y129D01*
X2254Y129D01*
X2254Y131D01*
X2260Y131D01*
X2260Y133D01*
X2268Y133D01*
X2268Y135D01*
X2276Y135D01*
X2276Y137D01*
X1782Y137D01*
G37*
D02*
G36*
X4858Y249D02*
X4858Y247D01*
X4682Y247D01*
X4682Y225D01*
X4658Y225D01*
X4658Y205D01*
X4662Y205D01*
X4662Y203D01*
X4664Y203D01*
X4664Y201D01*
X4668Y201D01*
X4668Y199D01*
X4670Y199D01*
X4670Y197D01*
X4672Y197D01*
X4672Y193D01*
X4674Y193D01*
X4674Y191D01*
X4676Y191D01*
X4676Y189D01*
X4678Y189D01*
X4678Y185D01*
X4680Y185D01*
X4680Y177D01*
X4682Y177D01*
X4682Y159D01*
X4680Y159D01*
X4680Y151D01*
X4678Y151D01*
X4678Y149D01*
X4676Y149D01*
X4676Y145D01*
X4674Y145D01*
X4674Y143D01*
X4672Y143D01*
X4672Y139D01*
X4670Y139D01*
X4670Y137D01*
X4666Y137D01*
X4666Y135D01*
X4664Y135D01*
X4664Y133D01*
X4660Y133D01*
X4660Y131D01*
X4658Y131D01*
X4658Y129D01*
X4650Y129D01*
X4650Y109D01*
X4688Y109D01*
X4688Y111D01*
X4736Y111D01*
X4736Y113D01*
X4784Y113D01*
X4784Y115D01*
X4832Y115D01*
X4832Y117D01*
X4880Y117D01*
X4880Y119D01*
X4912Y119D01*
X4912Y139D01*
X4910Y139D01*
X4910Y141D01*
X4908Y141D01*
X4908Y145D01*
X4906Y145D01*
X4906Y147D01*
X4904Y147D01*
X4904Y151D01*
X4902Y151D01*
X4902Y157D01*
X4900Y157D01*
X4900Y179D01*
X4902Y179D01*
X4902Y185D01*
X4904Y185D01*
X4904Y189D01*
X4906Y189D01*
X4906Y191D01*
X4908Y191D01*
X4908Y195D01*
X4910Y195D01*
X4910Y197D01*
X4912Y197D01*
X4912Y199D01*
X4914Y199D01*
X4914Y201D01*
X4918Y201D01*
X4918Y203D01*
X4920Y203D01*
X4920Y205D01*
X4924Y205D01*
X4924Y225D01*
X4900Y225D01*
X4900Y249D01*
X4858Y249D01*
G37*
D02*
G36*
X3776Y301D02*
X3776Y299D01*
X3754Y299D01*
X3754Y297D01*
X3732Y297D01*
X3732Y295D01*
X3710Y295D01*
X3710Y293D01*
X3688Y293D01*
X3688Y291D01*
X3666Y291D01*
X3666Y289D01*
X3644Y289D01*
X3644Y287D01*
X3622Y287D01*
X3622Y285D01*
X3600Y285D01*
X3600Y283D01*
X3578Y283D01*
X3578Y281D01*
X3556Y281D01*
X3556Y279D01*
X3534Y279D01*
X3534Y277D01*
X3512Y277D01*
X3512Y275D01*
X3490Y275D01*
X3490Y273D01*
X3468Y273D01*
X3468Y271D01*
X3446Y271D01*
X3446Y269D01*
X3424Y269D01*
X3424Y267D01*
X3402Y267D01*
X3402Y265D01*
X3382Y265D01*
X3382Y225D01*
X3358Y225D01*
X3358Y205D01*
X3362Y205D01*
X3362Y203D01*
X3364Y203D01*
X3364Y201D01*
X3368Y201D01*
X3368Y199D01*
X3370Y199D01*
X3370Y197D01*
X3372Y197D01*
X3372Y193D01*
X3374Y193D01*
X3374Y191D01*
X3376Y191D01*
X3376Y189D01*
X3378Y189D01*
X3378Y185D01*
X3380Y185D01*
X3380Y177D01*
X3382Y177D01*
X3382Y159D01*
X3380Y159D01*
X3380Y151D01*
X3378Y151D01*
X3378Y149D01*
X3376Y149D01*
X3376Y145D01*
X3374Y145D01*
X3374Y143D01*
X3372Y143D01*
X3372Y139D01*
X3370Y139D01*
X3370Y137D01*
X3366Y137D01*
X3366Y135D01*
X3364Y135D01*
X3364Y133D01*
X3360Y133D01*
X3360Y131D01*
X3358Y131D01*
X3358Y129D01*
X3350Y129D01*
X3350Y127D01*
X3830Y127D01*
X3830Y129D01*
X3824Y129D01*
X3824Y131D01*
X3820Y131D01*
X3820Y133D01*
X3818Y133D01*
X3818Y135D01*
X3814Y135D01*
X3814Y137D01*
X3812Y137D01*
X3812Y139D01*
X3810Y139D01*
X3810Y141D01*
X3808Y141D01*
X3808Y145D01*
X3806Y145D01*
X3806Y147D01*
X3804Y147D01*
X3804Y151D01*
X3802Y151D01*
X3802Y157D01*
X3800Y157D01*
X3800Y179D01*
X3802Y179D01*
X3802Y185D01*
X3804Y185D01*
X3804Y189D01*
X3806Y189D01*
X3806Y191D01*
X3808Y191D01*
X3808Y195D01*
X3810Y195D01*
X3810Y197D01*
X3812Y197D01*
X3812Y199D01*
X3814Y199D01*
X3814Y201D01*
X3818Y201D01*
X3818Y203D01*
X3820Y203D01*
X3820Y205D01*
X3824Y205D01*
X3824Y225D01*
X3800Y225D01*
X3800Y301D01*
X3776Y301D01*
G37*
D02*
G36*
X2570Y279D02*
X2570Y255D01*
X2572Y255D01*
X2572Y231D01*
X2590Y231D01*
X2590Y229D01*
X2596Y229D01*
X2596Y227D01*
X2600Y227D01*
X2600Y225D01*
X2602Y225D01*
X2602Y223D01*
X2604Y223D01*
X2604Y221D01*
X2606Y221D01*
X2606Y219D01*
X2608Y219D01*
X2608Y217D01*
X2610Y217D01*
X2610Y213D01*
X2612Y213D01*
X2612Y205D01*
X2614Y205D01*
X2614Y197D01*
X2612Y197D01*
X2612Y189D01*
X2610Y189D01*
X2610Y185D01*
X2608Y185D01*
X2608Y183D01*
X2606Y183D01*
X2606Y181D01*
X2604Y181D01*
X2604Y179D01*
X2602Y179D01*
X2602Y177D01*
X2600Y177D01*
X2600Y175D01*
X2596Y175D01*
X2596Y173D01*
X2590Y173D01*
X2590Y171D01*
X2998Y171D01*
X2998Y173D01*
X2994Y173D01*
X2994Y175D01*
X2992Y175D01*
X2992Y177D01*
X2988Y177D01*
X2988Y179D01*
X2984Y179D01*
X2984Y181D01*
X2980Y181D01*
X2980Y183D01*
X2978Y183D01*
X2978Y185D01*
X2974Y185D01*
X2974Y187D01*
X2972Y187D01*
X2972Y189D01*
X2970Y189D01*
X2970Y191D01*
X2968Y191D01*
X2968Y193D01*
X2966Y193D01*
X2966Y195D01*
X2964Y195D01*
X2964Y197D01*
X2962Y197D01*
X2962Y199D01*
X2960Y199D01*
X2960Y201D01*
X2958Y201D01*
X2958Y203D01*
X2946Y203D01*
X2946Y205D01*
X2940Y205D01*
X2940Y207D01*
X2936Y207D01*
X2936Y209D01*
X2934Y209D01*
X2934Y211D01*
X2932Y211D01*
X2932Y213D01*
X2930Y213D01*
X2930Y215D01*
X2928Y215D01*
X2928Y217D01*
X2926Y217D01*
X2926Y221D01*
X2924Y221D01*
X2924Y227D01*
X2922Y227D01*
X2922Y239D01*
X2924Y239D01*
X2924Y245D01*
X2926Y245D01*
X2926Y249D01*
X2928Y249D01*
X2928Y251D01*
X2930Y251D01*
X2930Y253D01*
X2932Y253D01*
X2932Y255D01*
X2934Y255D01*
X2934Y257D01*
X2936Y257D01*
X2936Y259D01*
X2940Y259D01*
X2940Y279D01*
X2570Y279D01*
G37*
D02*
G36*
X3858Y223D02*
X3858Y205D01*
X3862Y205D01*
X3862Y203D01*
X3864Y203D01*
X3864Y201D01*
X3868Y201D01*
X3868Y199D01*
X3870Y199D01*
X3870Y197D01*
X3872Y197D01*
X3872Y193D01*
X3874Y193D01*
X3874Y191D01*
X3876Y191D01*
X3876Y189D01*
X3878Y189D01*
X3878Y185D01*
X3880Y185D01*
X3880Y177D01*
X3882Y177D01*
X3882Y159D01*
X3880Y159D01*
X3880Y151D01*
X3878Y151D01*
X3878Y149D01*
X3876Y149D01*
X3876Y145D01*
X3874Y145D01*
X3874Y143D01*
X3872Y143D01*
X3872Y139D01*
X3870Y139D01*
X3870Y137D01*
X3866Y137D01*
X3866Y135D01*
X3864Y135D01*
X3864Y133D01*
X3860Y133D01*
X3860Y131D01*
X3858Y131D01*
X3858Y129D01*
X3850Y129D01*
X3850Y127D01*
X4032Y127D01*
X4032Y129D01*
X4028Y129D01*
X4028Y131D01*
X4026Y131D01*
X4026Y133D01*
X4022Y133D01*
X4022Y135D01*
X4020Y135D01*
X4020Y137D01*
X4016Y137D01*
X4016Y139D01*
X4012Y139D01*
X4012Y141D01*
X4010Y141D01*
X4010Y143D01*
X4006Y143D01*
X4006Y145D01*
X4002Y145D01*
X4002Y147D01*
X4000Y147D01*
X4000Y149D01*
X3996Y149D01*
X3996Y151D01*
X3994Y151D01*
X3994Y153D01*
X3990Y153D01*
X3990Y155D01*
X3986Y155D01*
X3986Y157D01*
X3984Y157D01*
X3984Y159D01*
X3980Y159D01*
X3980Y161D01*
X3976Y161D01*
X3976Y163D01*
X3974Y163D01*
X3974Y165D01*
X3970Y165D01*
X3970Y167D01*
X3966Y167D01*
X3966Y169D01*
X3964Y169D01*
X3964Y171D01*
X3960Y171D01*
X3960Y173D01*
X3958Y173D01*
X3958Y175D01*
X3954Y175D01*
X3954Y177D01*
X3950Y177D01*
X3950Y179D01*
X3948Y179D01*
X3948Y181D01*
X3944Y181D01*
X3944Y183D01*
X3940Y183D01*
X3940Y185D01*
X3938Y185D01*
X3938Y187D01*
X3934Y187D01*
X3934Y189D01*
X3932Y189D01*
X3932Y191D01*
X3928Y191D01*
X3928Y193D01*
X3924Y193D01*
X3924Y195D01*
X3922Y195D01*
X3922Y197D01*
X3918Y197D01*
X3918Y199D01*
X3914Y199D01*
X3914Y201D01*
X3912Y201D01*
X3912Y203D01*
X3908Y203D01*
X3908Y205D01*
X3906Y205D01*
X3906Y207D01*
X3902Y207D01*
X3902Y209D01*
X3898Y209D01*
X3898Y211D01*
X3896Y211D01*
X3896Y213D01*
X3892Y213D01*
X3892Y215D01*
X3888Y215D01*
X3888Y217D01*
X3886Y217D01*
X3886Y219D01*
X3882Y219D01*
X3882Y221D01*
X3878Y221D01*
X3878Y223D01*
X3858Y223D01*
G37*
D02*
G36*
X2546Y173D02*
X2546Y171D01*
X2578Y171D01*
X2578Y173D01*
X2546Y173D01*
G37*
D02*
G36*
X3082Y173D02*
X3082Y159D01*
X3080Y159D01*
X3080Y151D01*
X3078Y151D01*
X3078Y149D01*
X3076Y149D01*
X3076Y145D01*
X3074Y145D01*
X3074Y143D01*
X3072Y143D01*
X3072Y139D01*
X3070Y139D01*
X3070Y137D01*
X3066Y137D01*
X3066Y135D01*
X3064Y135D01*
X3064Y133D01*
X3060Y133D01*
X3060Y131D01*
X3058Y131D01*
X3058Y129D01*
X3050Y129D01*
X3050Y127D01*
X3330Y127D01*
X3330Y129D01*
X3324Y129D01*
X3324Y131D01*
X3320Y131D01*
X3320Y133D01*
X3318Y133D01*
X3318Y135D01*
X3314Y135D01*
X3314Y137D01*
X3312Y137D01*
X3312Y139D01*
X3310Y139D01*
X3310Y141D01*
X3308Y141D01*
X3308Y145D01*
X3306Y145D01*
X3306Y147D01*
X3304Y147D01*
X3304Y151D01*
X3302Y151D01*
X3302Y153D01*
X3298Y153D01*
X3298Y155D01*
X3276Y155D01*
X3276Y157D01*
X3254Y157D01*
X3254Y159D01*
X3232Y159D01*
X3232Y161D01*
X3210Y161D01*
X3210Y163D01*
X3188Y163D01*
X3188Y165D01*
X3168Y165D01*
X3168Y167D01*
X3146Y167D01*
X3146Y169D01*
X3124Y169D01*
X3124Y171D01*
X3102Y171D01*
X3102Y173D01*
X3082Y173D01*
G37*
D02*
G36*
X2538Y171D02*
X2538Y169D01*
X3000Y169D01*
X3000Y171D01*
X2538Y171D01*
G37*
D02*
G36*
X2538Y171D02*
X2538Y169D01*
X3000Y169D01*
X3000Y171D01*
X2538Y171D01*
G37*
D02*
G36*
X2530Y169D02*
X2530Y167D01*
X2524Y167D01*
X2524Y165D01*
X2516Y165D01*
X2516Y163D01*
X2508Y163D01*
X2508Y161D01*
X2502Y161D01*
X2502Y159D01*
X2494Y159D01*
X2494Y157D01*
X2486Y157D01*
X2486Y155D01*
X2480Y155D01*
X2480Y153D01*
X2472Y153D01*
X2472Y151D01*
X2464Y151D01*
X2464Y149D01*
X2458Y149D01*
X2458Y147D01*
X2450Y147D01*
X2450Y145D01*
X2442Y145D01*
X2442Y143D01*
X2436Y143D01*
X2436Y141D01*
X2428Y141D01*
X2428Y139D01*
X2420Y139D01*
X2420Y137D01*
X2414Y137D01*
X2414Y135D01*
X2406Y135D01*
X2406Y133D01*
X2398Y133D01*
X2398Y131D01*
X2390Y131D01*
X2390Y129D01*
X2384Y129D01*
X2384Y127D01*
X3030Y127D01*
X3030Y129D01*
X3024Y129D01*
X3024Y131D01*
X3020Y131D01*
X3020Y133D01*
X3018Y133D01*
X3018Y135D01*
X3014Y135D01*
X3014Y137D01*
X3012Y137D01*
X3012Y139D01*
X3010Y139D01*
X3010Y141D01*
X3008Y141D01*
X3008Y145D01*
X3006Y145D01*
X3006Y147D01*
X3004Y147D01*
X3004Y151D01*
X3002Y151D01*
X3002Y157D01*
X3000Y157D01*
X3000Y169D01*
X2530Y169D01*
G37*
D02*
G36*
X2376Y127D02*
X2376Y125D01*
X4036Y125D01*
X4036Y127D01*
X2376Y127D01*
G37*
D02*
G36*
X2376Y127D02*
X2376Y125D01*
X4036Y125D01*
X4036Y127D01*
X2376Y127D01*
G37*
D02*
G36*
X2376Y127D02*
X2376Y125D01*
X4036Y125D01*
X4036Y127D01*
X2376Y127D01*
G37*
D02*
G36*
X2376Y127D02*
X2376Y125D01*
X4036Y125D01*
X4036Y127D01*
X2376Y127D01*
G37*
D02*
G36*
X2368Y125D02*
X2368Y123D01*
X2362Y123D01*
X2362Y121D01*
X2354Y121D01*
X2354Y119D01*
X2346Y119D01*
X2346Y117D01*
X2340Y117D01*
X2340Y115D01*
X2332Y115D01*
X2332Y113D01*
X2324Y113D01*
X2324Y111D01*
X2318Y111D01*
X2318Y109D01*
X2310Y109D01*
X2310Y107D01*
X2302Y107D01*
X2302Y105D01*
X2296Y105D01*
X2296Y103D01*
X2288Y103D01*
X2288Y101D01*
X2280Y101D01*
X2280Y99D01*
X2272Y99D01*
X2272Y97D01*
X2266Y97D01*
X2266Y95D01*
X2258Y95D01*
X2258Y93D01*
X2250Y93D01*
X2250Y91D01*
X2244Y91D01*
X2244Y89D01*
X2236Y89D01*
X2236Y87D01*
X2228Y87D01*
X2228Y85D01*
X2222Y85D01*
X2222Y83D01*
X2214Y83D01*
X2214Y81D01*
X2206Y81D01*
X2206Y79D01*
X2200Y79D01*
X2200Y77D01*
X2192Y77D01*
X2192Y75D01*
X2184Y75D01*
X2184Y73D01*
X2178Y73D01*
X2178Y71D01*
X2170Y71D01*
X2170Y69D01*
X2162Y69D01*
X2162Y49D01*
X2320Y49D01*
X2320Y51D01*
X2414Y51D01*
X2414Y53D01*
X2508Y53D01*
X2508Y55D01*
X2600Y55D01*
X2600Y57D01*
X2694Y57D01*
X2694Y59D01*
X2786Y59D01*
X2786Y61D01*
X2880Y61D01*
X2880Y63D01*
X2974Y63D01*
X2974Y65D01*
X3066Y65D01*
X3066Y67D01*
X3160Y67D01*
X3160Y69D01*
X3252Y69D01*
X3252Y71D01*
X3346Y71D01*
X3346Y73D01*
X3440Y73D01*
X3440Y75D01*
X3532Y75D01*
X3532Y77D01*
X3626Y77D01*
X3626Y79D01*
X3718Y79D01*
X3718Y81D01*
X3812Y81D01*
X3812Y83D01*
X3906Y83D01*
X3906Y85D01*
X3998Y85D01*
X3998Y87D01*
X4068Y87D01*
X4068Y107D01*
X4064Y107D01*
X4064Y109D01*
X4062Y109D01*
X4062Y111D01*
X4058Y111D01*
X4058Y113D01*
X4054Y113D01*
X4054Y115D01*
X4052Y115D01*
X4052Y117D01*
X4048Y117D01*
X4048Y119D01*
X4046Y119D01*
X4046Y121D01*
X4042Y121D01*
X4042Y123D01*
X4038Y123D01*
X4038Y125D01*
X2368Y125D01*
G37*
D02*
G36*
X1578Y149D02*
X1578Y77D01*
X1598Y77D01*
X1598Y79D01*
X1600Y79D01*
X1600Y83D01*
X1602Y83D01*
X1602Y85D01*
X1604Y85D01*
X1604Y87D01*
X1606Y87D01*
X1606Y91D01*
X1608Y91D01*
X1608Y93D01*
X1610Y93D01*
X1610Y95D01*
X1612Y95D01*
X1612Y99D01*
X1614Y99D01*
X1614Y101D01*
X1616Y101D01*
X1616Y103D01*
X1618Y103D01*
X1618Y105D01*
X1620Y105D01*
X1620Y109D01*
X1622Y109D01*
X1622Y111D01*
X1624Y111D01*
X1624Y113D01*
X1626Y113D01*
X1626Y117D01*
X1628Y117D01*
X1628Y119D01*
X1630Y119D01*
X1630Y139D01*
X1620Y139D01*
X1620Y141D01*
X1612Y141D01*
X1612Y143D01*
X1606Y143D01*
X1606Y145D01*
X1602Y145D01*
X1602Y147D01*
X1600Y147D01*
X1600Y149D01*
X1578Y149D01*
G37*
D02*
G36*
X1688Y139D02*
X1688Y135D01*
X1686Y135D01*
X1686Y133D01*
X1684Y133D01*
X1684Y131D01*
X1682Y131D01*
X1682Y127D01*
X1680Y127D01*
X1680Y125D01*
X1678Y125D01*
X1678Y123D01*
X1676Y123D01*
X1676Y119D01*
X1674Y119D01*
X1674Y117D01*
X1672Y117D01*
X1672Y115D01*
X1670Y115D01*
X1670Y113D01*
X1668Y113D01*
X1668Y109D01*
X1666Y109D01*
X1666Y107D01*
X1664Y107D01*
X1664Y105D01*
X1662Y105D01*
X1662Y101D01*
X1660Y101D01*
X1660Y83D01*
X1666Y83D01*
X1666Y81D01*
X1676Y81D01*
X1676Y79D01*
X1680Y79D01*
X1680Y77D01*
X1682Y77D01*
X1682Y75D01*
X1686Y75D01*
X1686Y71D01*
X1688Y71D01*
X1688Y69D01*
X1690Y69D01*
X1690Y67D01*
X1698Y67D01*
X1698Y65D01*
X1712Y65D01*
X1712Y63D01*
X1726Y63D01*
X1726Y61D01*
X1740Y61D01*
X1740Y59D01*
X1754Y59D01*
X1754Y57D01*
X1768Y57D01*
X1768Y55D01*
X1824Y55D01*
X1824Y53D01*
X1956Y53D01*
X1956Y51D01*
X2042Y51D01*
X2042Y71D01*
X1978Y71D01*
X1978Y73D01*
X1912Y73D01*
X1912Y75D01*
X1848Y75D01*
X1848Y77D01*
X1796Y77D01*
X1796Y79D01*
X1792Y79D01*
X1792Y81D01*
X1788Y81D01*
X1788Y83D01*
X1786Y83D01*
X1786Y85D01*
X1784Y85D01*
X1784Y87D01*
X1782Y87D01*
X1782Y89D01*
X1780Y89D01*
X1780Y91D01*
X1778Y91D01*
X1778Y93D01*
X1774Y93D01*
X1774Y95D01*
X1772Y95D01*
X1772Y97D01*
X1770Y97D01*
X1770Y99D01*
X1768Y99D01*
X1768Y101D01*
X1766Y101D01*
X1766Y103D01*
X1764Y103D01*
X1764Y105D01*
X1760Y105D01*
X1760Y107D01*
X1758Y107D01*
X1758Y109D01*
X1756Y109D01*
X1756Y111D01*
X1754Y111D01*
X1754Y113D01*
X1752Y113D01*
X1752Y115D01*
X1750Y115D01*
X1750Y117D01*
X1746Y117D01*
X1746Y119D01*
X1744Y119D01*
X1744Y121D01*
X1732Y121D01*
X1732Y123D01*
X1724Y123D01*
X1724Y125D01*
X1720Y125D01*
X1720Y127D01*
X1718Y127D01*
X1718Y129D01*
X1714Y129D01*
X1714Y133D01*
X1712Y133D01*
X1712Y135D01*
X1710Y135D01*
X1710Y139D01*
X1688Y139D01*
G37*
D02*
G36*
X284Y775D02*
X323Y775D01*
X323Y745D01*
X284Y745D01*
X284Y775D01*
G37*
D02*
G36*
X260Y751D02*
X290Y751D01*
X290Y712D01*
X260Y712D01*
X260Y751D01*
G37*
D02*
G36*
X4729Y1105D02*
X4782Y1105D01*
X4782Y1071D01*
X4729Y1071D01*
X4729Y1105D01*
G37*
D02*
G36*
X809Y1003D02*
X834Y1003D01*
X834Y979D01*
X809Y979D01*
X809Y1003D01*
G37*
D02*
G36*
X790Y984D02*
X814Y984D01*
X814Y959D01*
X790Y959D01*
X790Y984D01*
G37*
D02*
G36*
X513Y855D02*
X566Y855D01*
X566Y813D01*
X513Y813D01*
X513Y855D01*
G37*
D02*
G36*
X4665Y1067D02*
X4690Y1067D01*
X4690Y1043D01*
X4665Y1043D01*
X4665Y1067D01*
G37*
D02*
G36*
X4665Y1029D02*
X4690Y1029D01*
X4690Y1003D01*
X4665Y1003D01*
X4665Y1029D01*
G37*
D02*
G36*
X2569Y699D02*
X2594Y699D01*
X2594Y675D01*
X2569Y675D01*
X2569Y699D01*
G37*
D02*
G36*
X2588Y552D02*
X2614Y552D01*
X2614Y527D01*
X2588Y527D01*
X2588Y552D01*
G37*
D02*
G36*
X1097Y533D02*
X1122Y533D01*
X1122Y507D01*
X1097Y507D01*
X1097Y533D01*
G37*
D02*
G36*
X1078Y552D02*
X1102Y552D01*
X1102Y527D01*
X1078Y527D01*
X1078Y552D01*
G37*
D02*
G36*
X1321Y475D02*
X1346Y475D01*
X1346Y451D01*
X1321Y451D01*
X1321Y475D01*
G37*
D02*
G36*
X1321Y437D02*
X1346Y437D01*
X1346Y411D01*
X1321Y411D01*
X1321Y437D01*
G37*
D02*
G36*
X1836Y280D02*
X1862Y280D01*
X1862Y255D01*
X1836Y255D01*
X1836Y280D01*
G37*
D02*
G54D20*
X1113Y694D02*
X1168Y694D01*
X1168Y639D01*
X1113Y639D01*
X1113Y694D01*
D02*
G54D21*
X1361Y98D02*
X1365Y98D01*
X1359Y97D02*
X1368Y97D01*
X1358Y96D02*
X1371Y96D01*
X1357Y95D02*
X1373Y95D01*
X1356Y94D02*
X1376Y94D01*
X1356Y93D02*
X1379Y93D01*
X1356Y92D02*
X1382Y92D01*
X1356Y91D02*
X1385Y91D01*
X1356Y90D02*
X1389Y90D01*
X1356Y89D02*
X1392Y89D01*
X1356Y88D02*
X1396Y88D01*
X1356Y87D02*
X1400Y87D01*
X1357Y86D02*
X1404Y86D01*
X1358Y85D02*
X1409Y85D01*
X1359Y84D02*
X1413Y84D01*
X1361Y83D02*
X1419Y83D01*
X1363Y82D02*
X1425Y82D01*
X1366Y81D02*
X1431Y81D01*
X1555Y81D02*
X1562Y81D01*
X1369Y80D02*
X1439Y80D01*
X1547Y80D02*
X1564Y80D01*
X1372Y79D02*
X1448Y79D01*
X1538Y79D02*
X1565Y79D01*
X1375Y78D02*
X1460Y78D01*
X1525Y78D02*
X1566Y78D01*
X1377Y77D02*
X1486Y77D01*
X1499Y77D02*
X1566Y77D01*
X1381Y76D02*
X1567Y76D01*
X1384Y75D02*
X1567Y75D01*
X1387Y74D02*
X1567Y74D01*
X1391Y73D02*
X1567Y73D01*
X1395Y72D02*
X1567Y72D01*
X1399Y71D02*
X1567Y71D01*
X1403Y70D02*
X1566Y70D01*
X1408Y69D02*
X1566Y69D01*
X1413Y68D02*
X1565Y68D01*
X1419Y67D02*
X1564Y67D01*
X1425Y66D02*
X1562Y66D01*
X1431Y65D02*
X1556Y65D01*
X1440Y64D02*
X1547Y64D01*
X1448Y63D02*
X1538Y63D01*
X1461Y62D02*
X1525Y62D01*
X1486Y61D02*
X1499Y61D01*
X1349Y49D02*
X1354Y49D01*
X1588Y49D02*
X1594Y49D01*
X1347Y48D02*
X1357Y48D01*
X1582Y48D02*
X1596Y48D01*
X1346Y47D02*
X1360Y47D01*
X1576Y47D02*
X1597Y47D01*
X1345Y46D02*
X1363Y46D01*
X1570Y46D02*
X1598Y46D01*
X1345Y45D02*
X1366Y45D01*
X1565Y45D02*
X1598Y45D01*
X1344Y44D02*
X1370Y44D01*
X1558Y44D02*
X1599Y44D01*
X1344Y43D02*
X1374Y43D01*
X1551Y43D02*
X1599Y43D01*
X1344Y42D02*
X1378Y42D01*
X1543Y42D02*
X1599Y42D01*
X1344Y41D02*
X1383Y41D01*
X1535Y41D02*
X1599Y41D01*
X1344Y40D02*
X1389Y40D01*
X1526Y40D02*
X1599Y40D01*
X1344Y39D02*
X1395Y39D01*
X1516Y39D02*
X1599Y39D01*
X1345Y38D02*
X1403Y38D01*
X1505Y38D02*
X1598Y38D01*
X1345Y37D02*
X1413Y37D01*
X1491Y37D02*
X1598Y37D01*
X1346Y36D02*
X1429Y36D01*
X1472Y36D02*
X1597Y36D01*
X1347Y35D02*
X1596Y35D01*
X1349Y34D02*
X1594Y34D01*
X1352Y33D02*
X1588Y33D01*
X1355Y32D02*
X1583Y32D01*
X1358Y31D02*
X1577Y31D01*
X1361Y30D02*
X1571Y30D01*
X1365Y29D02*
X1565Y29D01*
X1369Y28D02*
X1558Y28D01*
X1373Y27D02*
X1550Y27D01*
X1378Y26D02*
X1543Y26D01*
X1383Y25D02*
X1534Y25D01*
X1389Y24D02*
X1525Y24D01*
X1396Y23D02*
X1515Y23D01*
X1404Y22D02*
X1504Y22D01*
X1415Y21D02*
X1489Y21D01*
X1432Y20D02*
X1468Y20D01*
D02*
G04 End of Copper0*
M02*