; NON-PLATED HOLES START AT T1
; THROUGH (PLATED) HOLES START AT T100
M48
INCH
T100C0.040000
T101C0.031555
T102C0.015748
T103C0.035000
T104C0.031496
T105C0.031497
T106C0.027559
%
T100
X047580Y010493
X028408Y007665
X048994Y009079
X027408Y007665
X051115Y006958
X028408Y009665
X027408Y009665
X049701Y008372
X048287Y009786
X050408Y007665
X028408Y008665
X027408Y008665
T101
X009408Y008665
T102
X029840Y003930
X035760Y006650
X018320Y002650
X009359Y001690
X027120Y006330
X008239Y009690
X017356Y001512
X010160Y008410
X037520Y008090
X025840Y006650
X047600Y003930
X026000Y004570
X028560Y010650
X029520Y002330
X025419Y002496
X037520Y006170
X018160Y008570
X037520Y004890
X046800Y010330
X025838Y002010
X025840Y005370
X032400Y004410
X016647Y000525
X013360Y004410
X043760Y004090
X011120Y005370
T103
X043408Y007665
X013408Y009665
X011408Y009665
X023408Y006665
X021408Y006665
X018408Y009665
X016408Y009665
X014408Y009665
X012408Y009665
X024408Y006665
X022408Y006665
X020408Y006665
X047408Y007665
X019408Y009665
X017408Y009665
X015408Y009665
X038550Y008268
X023408Y009665
X021408Y009665
X016262Y001870
X024408Y009665
X022408Y009665
X020408Y009665
X042550Y008268
X020262Y001870
X051779Y007766
X013408Y006665
X011408Y006665
X014617Y001337
X010617Y001337
X018408Y006665
X016408Y006665
X014408Y006665
X012408Y006665
X019408Y006665
X017408Y006665
X015408Y006665
X051779Y003766
T104
X008043Y007299
T105
X046408Y002665
X046408Y001681
X049408Y002665
X049408Y001681
X041408Y006649
X041408Y005665
X046408Y006649
X046408Y005665
X049408Y006649
X001408Y004649
X049408Y005665
X001408Y003665
X004408Y004649
X004408Y003665
X007408Y004649
X007408Y003665
X010408Y004649
X018408Y004649
X010408Y003665
X018408Y003665
X015408Y004649
X015408Y003665
X033408Y002665
X033408Y001681
X030408Y002665
X038408Y002665
X030408Y001681
X038408Y001681
X021408Y004649
X021408Y003665
X024408Y004649
X024408Y003665
X033408Y006649
X033408Y005665
X038408Y006649
X030408Y006649
X041408Y002665
X038408Y005665
X030408Y005665
X041408Y001681
T106
X003060Y006294
X006115Y009372
X003060Y007294
X005408Y008665
T00
M30
